{"glyphs":{"0":{"ha":851,"x_min":0,"x_max":0,"o":"m 440 -14 b 778 472 643 -14 778 182 b 417 986 778 776 632 986 b 75 501 213 986 75 790 b 440 -14 75 197 219 -14 z m 456 43 b 219 564 300 43 219 336 b 396 925 219 742 261 925 b 635 411 551 925 635 636 b 456 43 635 233 586 43 z "},"1":{"ha":460,"x_min":0,"x_max":0,"o":"m 321 956 b 293 986 321 981 311 988 b 164 946 274 985 210 964 b 82 896 88 917 82 910 b 128 863 82 882 90 872 b 193 768 186 847 193 819 l 193 167 b 100 25 193 63 100 65 b 161 0 100 7 114 0 l 325 0 b 385 25 369 0 385 7 b 321 167 385 63 321 61 z "},"2":{"ha":819,"x_min":0,"x_max":0,"o":"m 657 0 b 736 67 706 0 722 22 b 758 168 749 106 756 129 b 739 211 761 193 756 211 b 524 118 701 211 669 129 b 224 119 422 113 322 113 b 692 718 533 375 689 540 b 417 986 694 876 579 986 b 108 779 260 986 149 881 b 147 756 94 744 126 728 b 367 881 217 847 290 881 b 549 697 476 881 549 810 b 79 74 549 513 308 283 b 114 0 38 35 54 0 z "},"3":{"ha":839,"x_min":0,"x_max":0,"o":"m 422 -15 b 769 301 639 -15 769 136 b 431 589 769 493 576 581 b 731 922 549 688 647 804 b 701 972 751 953 733 972 l 267 972 b 154 922 176 972 164 956 b 135 790 143 883 136 840 b 157 746 133 768 136 746 b 214 808 179 746 186 772 b 325 860 242 847 282 856 b 606 857 406 867 519 865 b 308 565 517 744 418 651 b 322 504 279 540 279 507 b 629 276 493 489 629 426 b 400 82 629 146 524 82 b 118 224 282 82 189 135 b 72 197 96 250 58 232 b 422 -15 117 92 242 -15 z "},"4":{"ha":831,"x_min":0,"x_max":0,"o":"m 557 -29 b 640 -7 575 -29 619 -18 b 667 43 664 7 667 24 l 667 190 l 715 190 b 768 242 744 190 760 204 b 757 326 779 299 779 326 b 667 307 736 326 719 307 l 667 944 b 628 986 667 972 654 986 b 558 949 603 986 583 974 b 268 575 518 904 360 697 b 56 242 136 399 56 289 b 111 190 56 194 76 190 l 528 193 l 528 4 b 557 -29 528 -21 539 -29 z m 213 307 b 189 350 176 307 171 322 b 540 826 281 483 397 650 l 540 308 z "},"5":{"ha":818,"x_min":0,"x_max":0,"o":"m 408 -14 b 746 307 614 -14 746 139 b 249 663 746 507 572 621 l 306 858 b 632 858 417 851 538 851 b 708 897 679 861 696 871 b 731 982 721 926 728 951 b 710 1021 732 1007 726 1021 b 588 972 678 1021 675 978 b 304 972 490 965 397 965 b 269 946 286 974 275 964 l 164 601 b 189 564 158 579 167 565 b 599 282 447 535 599 460 b 385 85 599 174 514 85 b 92 224 261 85 163 136 b 46 199 71 251 32 233 b 408 -14 90 93 215 -14 z "},"6":{"ha":828,"x_min":0,"x_max":0,"o":"m 421 -14 b 765 354 611 -14 765 147 b 469 679 765 532 640 679 b 233 547 374 679 276 624 b 475 903 235 764 332 903 b 643 860 539 903 582 893 b 674 899 669 844 694 869 b 464 986 642 944 568 986 b 76 435 243 986 75 753 b 421 -14 76 160 210 -14 z m 453 57 b 232 364 308 57 232 213 b 411 582 232 485 296 582 b 628 281 547 582 628 433 b 453 57 628 161 572 57 z "},"7":{"ha":724,"x_min":0,"x_max":0,"o":"m 281 -12 b 311 10 297 -14 311 -8 b 686 926 311 325 521 626 b 651 972 706 960 685 972 l 147 972 b 92 933 114 972 101 963 b 65 797 76 892 67 833 b 86 754 64 778 69 754 b 228 851 126 754 138 843 b 575 851 343 861 460 861 b 163 65 413 588 163 282 b 188 17 163 47 167 29 b 281 -12 215 1 251 -11 z "},"8":{"ha":808,"x_min":0,"x_max":0,"o":"m 519 526 b 711 778 640 593 711 669 b 432 986 711 907 586 986 b 119 747 246 986 119 886 b 267 519 119 646 186 576 b 72 247 151 454 72 351 b 406 -12 72 82 219 -12 b 736 253 610 -12 736 107 b 519 526 736 375 669 438 z m 417 925 b 592 763 521 925 592 863 b 474 554 592 696 557 626 b 468 557 472 554 469 556 b 256 785 361 618 256 688 b 417 925 256 875 332 925 z m 426 47 b 199 264 283 47 199 142 b 310 490 199 360 246 433 l 376 450 b 599 211 540 356 599 290 b 426 47 599 124 529 47 z "},"9":{"ha":835,"x_min":0,"x_max":0,"o":"m 413 986 b 69 618 222 986 69 825 b 365 293 69 440 193 293 b 600 425 461 293 558 349 b 358 69 600 208 501 69 b 192 113 294 69 251 79 b 160 74 164 128 140 103 b 369 -14 192 28 265 -14 b 758 538 590 -14 758 219 b 413 986 757 813 624 986 z m 381 915 b 601 608 525 915 601 760 b 422 390 601 488 539 390 b 206 692 286 390 206 539 b 381 915 206 811 261 915 z "},"A":{"ha":953,"x_min":0,"x_max":0,"o":"m 221 251 b 447 293 236 293 236 293 b 663 253 647 293 647 293 l 697 165 b 654 26 740 57 654 72 b 710 0 654 7 676 0 l 872 0 b 940 31 921 0 940 7 b 838 165 940 72 883 51 l 529 947 b 493 972 524 964 511 972 l 367 972 b 328 943 336 972 328 961 b 376 832 328 899 407 908 l 114 164 b -1 26 68 47 -1 72 b 57 0 -1 6 22 0 l 169 0 b 221 29 199 0 221 6 b 186 164 221 71 143 51 z m 449 353 b 272 385 260 353 260 353 l 440 819 l 610 389 b 449 353 624 353 624 353 z "},"Á":{"ha":953,"x_min":0,"x_max":0,"o":"m 394 1060 b 617 1179 458 1044 603 1118 b 576 1253 626 1215 604 1244 b 461 1185 540 1263 510 1231 b 374 1085 415 1139 376 1100 b 394 1060 371 1075 378 1064 z m 221 251 b 447 293 236 293 236 293 b 663 253 647 293 647 293 l 697 165 b 654 26 740 57 654 72 b 710 0 654 7 676 0 l 872 0 b 940 31 921 0 940 7 b 838 165 940 72 883 51 l 529 947 b 493 972 524 964 511 972 l 367 972 b 328 943 336 972 328 961 b 376 832 328 899 407 908 l 114 164 b -1 26 68 47 -1 72 b 57 0 -1 6 22 0 l 169 0 b 221 29 199 0 221 6 b 186 164 221 71 143 51 z m 449 353 b 272 385 260 353 260 353 l 440 819 l 610 389 b 449 353 624 353 624 353 z "},"Ă":{"ha":953,"x_min":0,"x_max":0,"o":"m 442 1051 b 614 1207 546 1051 610 1124 b 596 1238 615 1226 608 1238 b 576 1222 589 1238 585 1233 b 443 1149 543 1175 504 1149 b 310 1222 381 1149 342 1176 b 289 1238 303 1233 296 1238 b 271 1207 276 1238 269 1226 b 442 1051 275 1126 331 1051 z m 221 251 b 447 293 236 293 236 293 b 663 253 647 293 647 293 l 697 165 b 654 26 740 57 654 72 b 710 0 654 7 676 0 l 872 0 b 940 31 921 0 940 7 b 838 165 940 72 883 51 l 529 947 b 493 972 524 964 511 972 l 367 972 b 328 943 336 972 328 961 b 376 832 328 899 407 908 l 114 164 b -1 26 68 47 -1 72 b 57 0 -1 6 22 0 l 169 0 b 221 29 199 0 221 6 b 186 164 221 71 143 51 z m 449 353 b 272 385 260 353 260 353 l 440 819 l 610 389 b 449 353 624 353 624 353 z "},"Â":{"ha":953,"x_min":0,"x_max":0,"o":"m 286 1046 b 454 1110 322 1043 414 1081 b 622 1046 494 1081 586 1043 b 639 1064 638 1047 640 1056 b 564 1147 636 1078 601 1108 b 453 1225 496 1215 493 1225 b 343 1146 415 1225 406 1208 b 269 1064 306 1108 272 1078 b 286 1046 268 1056 271 1047 z m 221 251 b 447 293 236 293 236 293 b 663 253 647 293 647 293 l 697 165 b 654 26 740 57 654 72 b 710 0 654 7 676 0 l 872 0 b 940 31 921 0 940 7 b 838 165 940 72 883 51 l 529 947 b 493 972 524 964 511 972 l 367 972 b 328 943 336 972 328 961 b 376 832 328 899 407 908 l 114 164 b -1 26 68 47 -1 72 b 57 0 -1 6 22 0 l 169 0 b 221 29 199 0 221 6 b 186 164 221 71 143 51 z m 449 353 b 272 385 260 353 260 353 l 440 819 l 610 389 b 449 353 624 353 624 353 z "},"Ä":{"ha":953,"x_min":0,"x_max":0,"o":"m 338 1078 b 425 1156 382 1078 425 1111 b 360 1219 425 1193 397 1219 b 278 1133 314 1219 278 1175 b 338 1078 278 1099 304 1078 z m 539 1078 b 626 1156 582 1078 626 1111 b 560 1219 626 1193 599 1219 b 478 1133 515 1219 478 1175 b 539 1078 478 1099 504 1078 z m 221 251 b 447 293 236 293 236 293 b 663 253 647 293 647 293 l 697 165 b 654 26 740 57 654 72 b 710 0 654 7 676 0 l 872 0 b 940 31 921 0 940 7 b 838 165 940 72 883 51 l 529 947 b 493 972 524 964 511 972 l 367 972 b 328 943 336 972 328 961 b 376 832 328 899 407 908 l 114 164 b -1 26 68 47 -1 72 b 57 0 -1 6 22 0 l 169 0 b 221 29 199 0 221 6 b 186 164 221 71 143 51 z m 449 353 b 272 385 260 353 260 353 l 440 819 l 610 389 b 449 353 624 353 624 353 z "},"À":{"ha":953,"x_min":0,"x_max":0,"o":"m 519 1060 b 540 1085 536 1064 543 1075 b 453 1185 538 1100 499 1139 b 338 1253 404 1231 374 1263 b 297 1179 310 1244 288 1215 b 519 1060 311 1118 456 1044 z m 221 251 b 447 293 236 293 236 293 b 663 253 647 293 647 293 l 697 165 b 654 26 740 57 654 72 b 710 0 654 7 676 0 l 872 0 b 940 31 921 0 940 7 b 838 165 940 72 883 51 l 529 947 b 493 972 524 964 511 972 l 367 972 b 328 943 336 972 328 961 b 376 832 328 899 407 908 l 114 164 b -1 26 68 47 -1 72 b 57 0 -1 6 22 0 l 169 0 b 221 29 199 0 221 6 b 186 164 221 71 143 51 z m 449 353 b 272 385 260 353 260 353 l 440 819 l 610 389 b 449 353 624 353 624 353 z "},"Ā":{"ha":953,"x_min":0,"x_max":0,"o":"m 593 1076 b 639 1113 632 1076 636 1086 b 603 1146 642 1136 640 1146 l 288 1146 b 243 1111 250 1146 246 1136 b 278 1076 240 1086 240 1076 z m 221 251 b 447 293 236 293 236 293 b 663 253 647 293 647 293 l 697 165 b 654 26 740 57 654 72 b 710 0 654 7 676 0 l 872 0 b 940 31 921 0 940 7 b 838 165 940 72 883 51 l 529 947 b 493 972 524 964 511 972 l 367 972 b 328 943 336 972 328 961 b 376 832 328 899 407 908 l 114 164 b -1 26 68 47 -1 72 b 57 0 -1 6 22 0 l 169 0 b 221 29 199 0 221 6 b 186 164 221 71 143 51 z m 449 353 b 272 385 260 353 260 353 l 440 819 l 610 389 b 449 353 624 353 624 353 z "},"Ą":{"ha":953,"x_min":0,"x_max":0,"o":"m 932 -190 b 875 -203 915 -197 892 -203 b 794 -128 822 -203 794 -174 b 860 0 794 -92 813 -49 l 872 0 b 940 31 921 0 940 7 b 838 165 940 72 883 51 l 529 947 b 493 972 524 964 511 972 l 367 972 b 328 943 336 972 328 961 b 376 832 328 899 407 908 l 114 164 b -1 26 68 47 -1 72 b 57 0 -1 6 22 0 l 169 0 b 221 29 199 0 221 6 b 186 164 221 71 143 51 l 221 251 b 447 293 236 293 236 293 b 663 253 647 293 647 293 l 697 165 b 654 26 740 57 654 72 b 710 0 654 7 676 0 l 811 0 b 707 -144 749 -42 707 -89 b 842 -254 707 -215 769 -254 b 951 -215 876 -254 922 -243 b 932 -190 967 -201 960 -178 z m 449 353 b 272 385 260 353 260 353 l 440 819 l 610 389 b 449 353 624 353 624 353 z "},"Å":{"ha":953,"x_min":0,"x_max":0,"o":"m 446 1044 b 583 1174 521 1044 583 1094 b 451 1299 583 1250 525 1299 b 314 1169 375 1299 314 1247 b 446 1044 314 1094 371 1044 z m 453 1099 b 378 1171 413 1099 383 1129 b 446 1247 375 1215 401 1247 b 518 1176 485 1247 513 1217 b 453 1099 521 1135 496 1099 z m 221 251 b 447 293 236 293 236 293 b 663 253 647 293 647 293 l 697 165 b 654 26 740 57 654 72 b 710 0 654 7 676 0 l 872 0 b 940 31 921 0 940 7 b 838 165 940 72 883 51 l 529 947 b 493 972 524 964 511 972 l 367 972 b 328 943 336 972 328 961 b 376 832 328 899 407 908 l 114 164 b -1 26 68 47 -1 72 b 57 0 -1 6 22 0 l 169 0 b 221 29 199 0 221 6 b 186 164 221 71 143 51 z m 449 353 b 272 385 260 353 260 353 l 440 819 l 610 389 b 449 353 624 353 624 353 z "},"Ã":{"ha":953,"x_min":0,"x_max":0,"o":"m 547 1057 b 644 1142 608 1057 644 1093 b 604 1178 644 1193 604 1213 b 556 1138 604 1151 589 1138 b 329 1196 508 1138 418 1196 b 233 1113 268 1196 233 1161 b 274 1075 233 1061 274 1042 b 322 1115 274 1103 290 1115 b 547 1057 392 1115 482 1057 z m 221 251 b 447 293 236 293 236 293 b 663 253 647 293 647 293 l 697 165 b 654 26 740 57 654 72 b 710 0 654 7 676 0 l 872 0 b 940 31 921 0 940 7 b 838 165 940 72 883 51 l 529 947 b 493 972 524 964 511 972 l 367 972 b 328 943 336 972 328 961 b 376 832 328 899 407 908 l 114 164 b -1 26 68 47 -1 72 b 57 0 -1 6 22 0 l 169 0 b 221 29 199 0 221 6 b 186 164 221 71 143 51 z m 449 353 b 272 385 260 353 260 353 l 440 819 l 610 389 b 449 353 624 353 624 353 z "},"Æ":{"ha":1343,"x_min":0,"x_max":0,"o":"m 1271 244 b 1217 190 1253 249 1238 238 b 1033 64 1179 103 1154 64 l 928 63 b 768 131 788 63 768 82 l 768 482 b 872 550 768 549 807 550 l 910 550 b 1121 425 1063 549 1071 411 b 1132 494 1142 431 1144 442 l 1106 613 b 1069 657 1099 644 1088 657 b 910 613 1031 657 1051 613 l 872 613 b 768 681 807 613 768 614 l 768 846 b 925 910 768 890 788 910 l 1003 910 b 1206 778 1101 910 1160 865 b 1263 732 1226 742 1239 726 b 1279 783 1283 738 1283 756 b 1244 931 1271 846 1257 893 b 1143 974 1232 967 1221 974 l 582 972 b 544 947 551 972 544 961 b 571 910 544 931 554 921 b 585 808 599 890 618 857 l 107 119 b -4 26 67 60 -4 72 b 54 0 -4 6 19 0 l 167 0 b 217 29 196 0 217 6 b 188 122 217 71 147 64 l 304 290 l 639 290 l 639 190 b 557 28 639 35 557 79 b 625 0 557 3 579 0 l 1158 0 b 1271 49 1247 0 1263 15 b 1292 197 1282 88 1288 131 b 1271 244 1293 222 1292 242 z m 639 347 l 343 347 l 639 776 z "},"B":{"ha":849,"x_min":0,"x_max":0,"o":"m 519 578 b 688 758 638 601 688 674 b 353 972 688 897 568 972 l 128 972 b 58 944 81 972 58 969 b 142 782 58 893 142 938 l 142 190 b 58 28 142 35 58 79 b 128 0 58 3 81 0 l 381 0 b 808 307 646 0 808 89 b 519 578 808 451 693 554 z m 269 854 b 353 910 269 903 296 910 b 554 743 472 910 554 843 b 350 608 554 653 500 608 b 269 636 307 608 269 607 z m 378 63 b 269 160 286 63 269 92 l 269 489 b 349 543 269 525 275 543 b 665 285 551 543 665 442 b 378 63 665 126 569 63 z "},"":{"ha":849,"x_min":0,"x_max":0,"o":"m 519 578 b 688 758 638 601 688 674 b 353 972 688 897 568 972 l 128 972 b 58 944 81 972 58 969 b 142 782 58 893 142 938 l 142 190 b 58 28 142 35 58 79 b 128 0 58 3 81 0 l 381 0 b 808 307 646 0 808 89 b 519 578 808 451 693 554 z m 269 854 b 353 910 269 903 296 910 b 554 743 472 910 554 843 b 350 608 554 653 500 608 b 269 636 307 608 269 607 z m 378 63 b 269 160 286 63 269 92 l 269 489 b 349 543 269 525 275 543 b 665 285 551 543 665 442 b 378 63 665 126 569 63 z "},"C":{"ha":950,"x_min":0,"x_max":0,"o":"m 522 -14 b 893 161 731 -14 854 100 b 860 206 919 203 888 236 b 567 72 793 132 708 72 b 188 524 340 72 188 267 b 515 910 188 726 310 910 b 800 738 661 910 740 831 b 857 688 821 706 833 685 b 878 735 878 690 883 708 b 839 910 864 818 850 869 b 786 983 822 968 813 983 b 718 965 763 983 749 965 b 549 986 678 965 629 986 b 54 463 268 986 54 757 b 522 -14 54 179 233 -14 z "},"Ć":{"ha":950,"x_min":0,"x_max":0,"o":"m 442 1060 b 664 1179 506 1044 650 1118 b 624 1253 674 1215 651 1244 b 508 1185 588 1263 557 1231 b 421 1085 463 1139 424 1100 b 442 1060 418 1075 425 1064 z m 522 -14 b 893 161 731 -14 854 100 b 860 206 919 203 888 236 b 567 72 793 132 708 72 b 188 524 340 72 188 267 b 515 910 188 726 310 910 b 800 738 661 910 740 831 b 857 688 821 706 833 685 b 878 735 878 690 883 708 b 839 910 864 818 850 869 b 786 983 822 968 813 983 b 718 965 763 983 749 965 b 549 986 678 965 629 986 b 54 463 268 986 54 757 b 522 -14 54 179 233 -14 z "},"Č":{"ha":950,"x_min":0,"x_max":0,"o":"m 333 1226 b 317 1207 318 1225 315 1217 b 390 1125 319 1193 353 1164 b 500 1046 453 1064 463 1046 b 611 1125 540 1046 543 1057 b 686 1207 649 1163 683 1193 b 669 1226 688 1217 685 1225 b 501 1161 633 1229 542 1192 b 333 1226 461 1192 369 1229 z m 522 -14 b 893 161 731 -14 854 100 b 860 206 919 203 888 236 b 567 72 793 132 708 72 b 188 524 340 72 188 267 b 515 910 188 726 310 910 b 800 738 661 910 740 831 b 857 688 821 706 833 685 b 878 735 878 690 883 708 b 839 910 864 818 850 869 b 786 983 822 968 813 983 b 718 965 763 983 749 965 b 549 986 678 965 629 986 b 54 463 268 986 54 757 b 522 -14 54 179 233 -14 z "},"Ç":{"ha":950,"x_min":0,"x_max":0,"o":"m 860 206 b 567 72 793 132 708 72 b 188 524 340 72 188 267 b 515 910 188 726 310 910 b 800 738 661 910 740 831 b 857 688 821 706 833 685 b 878 735 878 690 883 708 b 839 910 864 818 850 869 b 786 983 822 968 813 983 b 718 965 763 983 749 965 b 549 986 678 965 629 986 b 54 463 268 986 54 757 b 472 -12 54 196 213 8 l 429 -93 b 446 -117 422 -106 432 -114 b 540 -192 492 -128 540 -146 b 476 -250 540 -222 519 -250 b 401 -226 442 -250 421 -237 b 379 -249 382 -214 367 -233 b 492 -293 397 -271 432 -293 b 619 -183 561 -293 619 -249 b 492 -74 619 -117 561 -86 l 522 -14 b 893 161 731 -14 854 100 b 860 206 919 203 888 236 z "},"Ċ":{"ha":950,"x_min":0,"x_max":0,"o":"m 483 1056 b 604 1154 538 1051 600 1106 b 542 1226 606 1189 579 1224 b 421 1125 486 1233 424 1175 b 483 1056 418 1086 446 1058 z m 522 -14 b 893 161 731 -14 854 100 b 860 206 919 203 888 236 b 567 72 793 132 708 72 b 188 524 340 72 188 267 b 515 910 188 726 310 910 b 800 738 661 910 740 831 b 857 688 821 706 833 685 b 878 735 878 690 883 708 b 839 910 864 818 850 869 b 786 983 822 968 813 983 b 718 965 763 983 749 965 b 549 986 678 965 629 986 b 54 463 268 986 54 757 b 522 -14 54 179 233 -14 z "},"D":{"ha":1017,"x_min":0,"x_max":0,"o":"m 128 972 b 58 944 81 972 58 969 b 142 782 58 893 142 938 l 142 190 b 58 28 142 35 58 79 b 128 0 58 3 81 0 l 453 0 b 961 501 821 0 961 243 b 414 972 961 719 811 972 z m 438 61 b 269 143 296 61 269 86 l 269 851 b 363 913 269 903 289 913 b 824 436 657 913 824 706 b 438 61 824 247 749 61 z "},"Ď":{"ha":1017,"x_min":0,"x_max":0,"o":"m 358 1125 b 468 1046 421 1064 431 1046 b 579 1125 508 1046 511 1057 b 654 1207 617 1163 651 1193 b 638 1226 656 1217 653 1225 b 469 1161 601 1229 510 1192 b 301 1226 429 1192 338 1229 b 285 1207 286 1225 283 1217 b 358 1125 288 1193 321 1164 z m 128 972 b 58 944 81 972 58 969 b 142 782 58 893 142 938 l 142 190 b 58 28 142 35 58 79 b 128 0 58 3 81 0 l 453 0 b 961 501 821 0 961 243 b 414 972 961 719 811 972 z m 438 61 b 269 143 296 61 269 86 l 269 851 b 363 913 269 903 289 913 b 824 436 657 913 824 706 b 438 61 824 247 749 61 z "},"Đ":{"ha":1017,"x_min":0,"x_max":0,"o":"m 128 972 b 58 944 81 972 58 969 b 142 782 58 893 142 938 l 142 515 l 54 515 b 18 485 25 515 18 504 b 54 453 18 464 24 453 l 142 453 l 142 190 b 58 28 142 35 58 79 b 128 0 58 3 81 0 l 453 0 b 961 501 821 0 961 243 b 414 972 961 719 811 972 z m 438 61 b 269 143 296 61 269 86 l 269 453 l 354 453 b 390 485 385 453 390 464 b 354 515 390 504 383 515 l 269 515 l 269 851 b 363 913 269 903 289 913 b 824 436 657 913 824 706 b 438 61 824 247 749 61 z "},"Ð":{"ha":1017,"x_min":0,"x_max":0,"o":"m 128 972 b 58 944 81 972 58 969 b 142 782 58 893 142 938 l 142 515 l 54 515 b 18 485 25 515 18 504 b 54 453 18 464 24 453 l 142 453 l 142 190 b 58 28 142 35 58 79 b 128 0 58 3 81 0 l 453 0 b 961 501 821 0 961 243 b 414 972 961 719 811 972 z m 438 61 b 269 143 296 61 269 86 l 269 453 l 354 453 b 390 485 385 453 390 464 b 354 515 390 504 383 515 l 269 515 l 269 851 b 363 913 269 903 289 913 b 824 436 657 913 824 706 b 438 61 824 247 749 61 z "},"E":{"ha":844,"x_min":0,"x_max":0,"o":"m 774 244 b 718 190 754 249 739 238 b 535 64 681 103 656 64 l 429 63 b 269 131 289 63 269 82 l 269 482 b 374 550 269 549 310 550 l 411 550 b 622 425 565 549 572 411 b 635 494 643 431 646 442 l 607 613 b 571 657 600 644 589 657 b 411 613 532 657 554 613 l 374 613 b 269 681 310 613 269 614 l 269 846 b 428 910 269 890 289 910 l 504 910 b 708 778 603 910 661 865 b 764 732 728 742 740 726 b 781 783 785 738 785 756 b 746 931 772 846 758 893 b 644 974 733 967 724 974 l 128 972 b 58 944 81 972 58 969 b 142 782 58 893 142 938 l 142 190 b 58 28 142 35 58 79 b 128 0 58 3 81 0 l 660 0 b 772 49 750 0 764 15 b 793 197 783 88 789 131 b 774 244 794 222 793 242 z "},"":{"ha":844,"x_min":0,"x_max":0,"o":"m 774 244 b 718 190 754 249 739 238 b 535 64 681 103 656 64 l 429 63 b 269 131 289 63 269 82 l 269 482 b 374 550 269 549 310 550 l 411 550 b 622 425 565 549 572 411 b 635 494 643 431 646 442 l 607 613 b 571 657 600 644 589 657 b 411 613 532 657 554 613 l 374 613 b 269 681 310 613 269 614 l 269 846 b 428 910 269 890 289 910 l 504 910 b 708 778 603 910 661 865 b 764 732 728 742 740 726 b 781 783 785 738 785 756 b 746 931 772 846 758 893 b 644 974 733 967 724 974 l 128 972 b 58 944 81 972 58 969 b 142 782 58 893 142 938 l 142 190 b 58 28 142 35 58 79 b 128 0 58 3 81 0 l 660 0 b 772 49 750 0 764 15 b 793 197 783 88 789 131 b 774 244 794 222 793 242 z "},"É":{"ha":844,"x_min":0,"x_max":0,"o":"m 318 1060 b 540 1179 382 1044 526 1118 b 500 1253 550 1215 528 1244 b 385 1185 464 1263 433 1231 b 297 1085 339 1139 300 1100 b 318 1060 294 1075 301 1064 z m 774 244 b 718 190 754 249 739 238 b 535 64 681 103 656 64 l 429 63 b 269 131 289 63 269 82 l 269 482 b 374 550 269 549 310 550 l 411 550 b 622 425 565 549 572 411 b 635 494 643 431 646 442 l 607 613 b 571 657 600 644 589 657 b 411 613 532 657 554 613 l 374 613 b 269 681 310 613 269 614 l 269 846 b 428 910 269 890 289 910 l 504 910 b 708 778 603 910 661 865 b 764 732 728 742 740 726 b 781 783 785 738 785 756 b 746 931 772 846 758 893 b 644 974 733 967 724 974 l 128 972 b 58 944 81 972 58 969 b 142 782 58 893 142 938 l 142 190 b 58 28 142 35 58 79 b 128 0 58 3 81 0 l 660 0 b 772 49 750 0 764 15 b 793 197 783 88 789 131 b 774 244 794 222 793 242 z "},"Ě":{"ha":844,"x_min":0,"x_max":0,"o":"m 328 1125 b 438 1046 390 1064 400 1046 b 549 1125 478 1046 481 1057 b 624 1207 586 1163 621 1193 b 607 1226 625 1217 622 1225 b 439 1161 571 1229 479 1192 b 271 1226 399 1192 307 1229 b 254 1207 256 1225 253 1217 b 328 1125 257 1193 290 1164 z m 774 244 b 718 190 754 249 739 238 b 535 64 681 103 656 64 l 429 63 b 269 131 289 63 269 82 l 269 482 b 374 550 269 549 310 550 l 411 550 b 622 425 565 549 572 411 b 635 494 643 431 646 442 l 607 613 b 571 657 600 644 589 657 b 411 613 532 657 554 613 l 374 613 b 269 681 310 613 269 614 l 269 846 b 428 910 269 890 289 910 l 504 910 b 708 778 603 910 661 865 b 764 732 728 742 740 726 b 781 783 785 738 785 756 b 746 931 772 846 758 893 b 644 974 733 967 724 974 l 128 972 b 58 944 81 972 58 969 b 142 782 58 893 142 938 l 142 190 b 58 28 142 35 58 79 b 128 0 58 3 81 0 l 660 0 b 772 49 750 0 764 15 b 793 197 783 88 789 131 b 774 244 794 222 793 242 z "},"Ê":{"ha":844,"x_min":0,"x_max":0,"o":"m 258 1046 b 426 1110 294 1043 386 1081 b 594 1046 467 1081 558 1043 b 611 1064 610 1047 613 1056 b 536 1147 608 1078 574 1108 b 425 1225 468 1215 465 1225 b 315 1146 388 1225 378 1208 b 242 1064 278 1108 244 1078 b 258 1046 240 1056 243 1047 z m 774 244 b 718 190 754 249 739 238 b 535 64 681 103 656 64 l 429 63 b 269 131 289 63 269 82 l 269 482 b 374 550 269 549 310 550 l 411 550 b 622 425 565 549 572 411 b 635 494 643 431 646 442 l 607 613 b 571 657 600 644 589 657 b 411 613 532 657 554 613 l 374 613 b 269 681 310 613 269 614 l 269 846 b 428 910 269 890 289 910 l 504 910 b 708 778 603 910 661 865 b 764 732 728 742 740 726 b 781 783 785 738 785 756 b 746 931 772 846 758 893 b 644 974 733 967 724 974 l 128 972 b 58 944 81 972 58 969 b 142 782 58 893 142 938 l 142 190 b 58 28 142 35 58 79 b 128 0 58 3 81 0 l 660 0 b 772 49 750 0 764 15 b 793 197 783 88 789 131 b 774 244 794 222 793 242 z "},"Ë":{"ha":844,"x_min":0,"x_max":0,"o":"m 293 1078 b 381 1156 338 1078 381 1111 b 315 1219 381 1193 353 1219 b 233 1133 269 1219 233 1175 b 293 1078 233 1099 260 1078 z m 494 1078 b 582 1156 538 1078 582 1111 b 515 1219 582 1193 554 1219 b 433 1133 471 1219 433 1175 b 494 1078 433 1099 460 1078 z m 774 244 b 718 190 754 249 739 238 b 535 64 681 103 656 64 l 429 63 b 269 131 289 63 269 82 l 269 482 b 374 550 269 549 310 550 l 411 550 b 622 425 565 549 572 411 b 635 494 643 431 646 442 l 607 613 b 571 657 600 644 589 657 b 411 613 532 657 554 613 l 374 613 b 269 681 310 613 269 614 l 269 846 b 428 910 269 890 289 910 l 504 910 b 708 778 603 910 661 865 b 764 732 728 742 740 726 b 781 783 785 738 785 756 b 746 931 772 846 758 893 b 644 974 733 967 724 974 l 128 972 b 58 944 81 972 58 969 b 142 782 58 893 142 938 l 142 190 b 58 28 142 35 58 79 b 128 0 58 3 81 0 l 660 0 b 772 49 750 0 764 15 b 793 197 783 88 789 131 b 774 244 794 222 793 242 z "},"Ė":{"ha":844,"x_min":0,"x_max":0,"o":"m 403 1056 b 524 1154 457 1051 519 1106 b 461 1226 525 1189 499 1224 b 340 1125 406 1233 343 1175 b 403 1056 338 1086 365 1058 z m 774 244 b 718 190 754 249 739 238 b 535 64 681 103 656 64 l 429 63 b 269 131 289 63 269 82 l 269 482 b 374 550 269 549 310 550 l 411 550 b 622 425 565 549 572 411 b 635 494 643 431 646 442 l 607 613 b 571 657 600 644 589 657 b 411 613 532 657 554 613 l 374 613 b 269 681 310 613 269 614 l 269 846 b 428 910 269 890 289 910 l 504 910 b 708 778 603 910 661 865 b 764 732 728 742 740 726 b 781 783 785 738 785 756 b 746 931 772 846 758 893 b 644 974 733 967 724 974 l 128 972 b 58 944 81 972 58 969 b 142 782 58 893 142 938 l 142 190 b 58 28 142 35 58 79 b 128 0 58 3 81 0 l 660 0 b 772 49 750 0 764 15 b 793 197 783 88 789 131 b 774 244 794 222 793 242 z "},"È":{"ha":844,"x_min":0,"x_max":0,"o":"m 501 1060 b 522 1085 518 1064 525 1075 b 435 1185 519 1100 481 1139 b 319 1253 386 1231 356 1263 b 279 1179 292 1244 269 1215 b 501 1060 293 1118 438 1044 z m 774 244 b 718 190 754 249 739 238 b 535 64 681 103 656 64 l 429 63 b 269 131 289 63 269 82 l 269 482 b 374 550 269 549 310 550 l 411 550 b 622 425 565 549 572 411 b 635 494 643 431 646 442 l 607 613 b 571 657 600 644 589 657 b 411 613 532 657 554 613 l 374 613 b 269 681 310 613 269 614 l 269 846 b 428 910 269 890 289 910 l 504 910 b 708 778 603 910 661 865 b 764 732 728 742 740 726 b 781 783 785 738 785 756 b 746 931 772 846 758 893 b 644 974 733 967 724 974 l 128 972 b 58 944 81 972 58 969 b 142 782 58 893 142 938 l 142 190 b 58 28 142 35 58 79 b 128 0 58 3 81 0 l 660 0 b 772 49 750 0 764 15 b 793 197 783 88 789 131 b 774 244 794 222 793 242 z "},"Ē":{"ha":844,"x_min":0,"x_max":0,"o":"m 551 1076 b 597 1113 590 1076 594 1086 b 561 1146 600 1136 599 1146 l 246 1146 b 201 1111 208 1146 204 1136 b 236 1076 199 1086 199 1076 z m 774 244 b 718 190 754 249 739 238 b 535 64 681 103 656 64 l 429 63 b 269 131 289 63 269 82 l 269 482 b 374 550 269 549 310 550 l 411 550 b 622 425 565 549 572 411 b 635 494 643 431 646 442 l 607 613 b 571 657 600 644 589 657 b 411 613 532 657 554 613 l 374 613 b 269 681 310 613 269 614 l 269 846 b 428 910 269 890 289 910 l 504 910 b 708 778 603 910 661 865 b 764 732 728 742 740 726 b 781 783 785 738 785 756 b 746 931 772 846 758 893 b 644 974 733 967 724 974 l 128 972 b 58 944 81 972 58 969 b 142 782 58 893 142 938 l 142 190 b 58 28 142 35 58 79 b 128 0 58 3 81 0 l 660 0 b 772 49 750 0 764 15 b 793 197 783 88 789 131 b 774 244 794 222 793 242 z "},"Ę":{"ha":844,"x_min":0,"x_max":0,"o":"m 774 244 b 718 190 754 249 739 238 b 535 64 681 103 656 64 l 429 63 b 269 131 289 63 269 82 l 269 482 b 374 550 269 549 310 550 l 411 550 b 622 425 565 549 572 411 b 635 494 643 431 646 442 l 607 613 b 571 657 600 644 589 657 b 411 613 532 657 554 613 l 374 613 b 269 681 310 613 269 614 l 269 846 b 428 910 269 890 289 910 l 504 910 b 708 778 603 910 661 865 b 764 732 728 742 740 726 b 781 783 785 738 785 756 b 746 931 772 846 758 893 b 644 974 733 967 724 974 l 128 972 b 58 944 81 972 58 969 b 142 782 58 893 142 938 l 142 190 b 58 28 142 35 58 79 b 128 0 58 3 81 0 l 556 0 b 451 -144 493 -42 451 -89 b 586 -254 451 -215 514 -254 b 696 -215 621 -254 667 -243 b 676 -190 711 -201 704 -178 b 619 -203 660 -197 636 -203 b 539 -128 567 -203 539 -174 b 604 0 539 -92 557 -49 l 660 0 b 772 49 750 0 764 15 b 793 197 783 88 789 131 b 774 244 794 222 793 242 z "},"F":{"ha":785,"x_min":0,"x_max":0,"o":"m 769 783 b 735 931 761 846 747 893 b 633 974 722 967 711 974 l 128 972 b 58 944 81 972 58 969 b 142 782 58 893 142 938 l 142 201 b 58 28 142 43 58 79 b 128 0 58 7 81 0 l 281 0 b 349 28 329 0 349 7 b 269 201 349 79 269 43 l 269 468 b 374 536 269 535 310 536 l 414 536 b 625 411 568 536 575 397 b 638 482 646 417 649 428 l 610 599 b 574 643 603 631 592 643 b 414 599 535 643 557 599 l 374 599 b 269 667 310 599 269 600 l 269 840 b 428 910 269 890 289 910 l 493 910 b 696 778 592 910 650 865 b 753 732 717 742 729 726 b 769 783 774 738 774 756 z "},"G":{"ha":1044,"x_min":0,"x_max":0,"o":"m 539 -12 b 918 179 733 -10 918 92 l 918 307 b 968 464 918 447 968 415 b 919 492 968 485 946 492 l 713 492 b 644 463 664 492 644 485 b 790 307 644 407 790 438 l 790 174 b 571 67 790 107 672 67 b 188 536 335 67 186 269 b 513 910 188 726 307 910 b 808 731 683 910 749 814 b 869 682 832 699 847 679 b 892 731 892 685 896 703 b 854 910 878 813 865 869 b 803 983 842 968 828 983 b 739 967 779 983 771 967 b 563 986 700 967 658 986 b 54 464 267 986 54 757 b 539 -12 54 193 238 -17 z "},"Ğ":{"ha":1044,"x_min":0,"x_max":0,"o":"m 549 1051 b 721 1207 653 1051 717 1124 b 703 1238 722 1226 715 1238 b 683 1222 696 1238 692 1233 b 550 1149 650 1175 611 1149 b 417 1222 488 1149 449 1176 b 396 1238 410 1233 403 1238 b 378 1207 383 1238 376 1226 b 549 1051 382 1126 438 1051 z m 539 -12 b 918 179 733 -10 918 92 l 918 307 b 968 464 918 447 968 415 b 919 492 968 485 946 492 l 713 492 b 644 463 664 492 644 485 b 790 307 644 407 790 438 l 790 174 b 571 67 790 107 672 67 b 188 536 335 67 186 269 b 513 910 188 726 307 910 b 808 731 683 910 749 814 b 869 682 832 699 847 679 b 892 731 892 685 896 703 b 854 910 878 813 865 869 b 803 983 842 968 828 983 b 739 967 779 983 771 967 b 563 986 700 967 658 986 b 54 464 267 986 54 757 b 539 -12 54 193 238 -17 z "},"Ġ":{"ha":1044,"x_min":0,"x_max":0,"o":"m 524 1056 b 644 1154 578 1051 640 1106 b 582 1226 646 1189 619 1224 b 461 1125 526 1233 464 1175 b 524 1056 458 1086 486 1058 z m 539 -12 b 918 179 733 -10 918 92 l 918 307 b 968 464 918 447 968 415 b 919 492 968 485 946 492 l 713 492 b 644 463 664 492 644 485 b 790 307 644 407 790 438 l 790 174 b 571 67 790 107 672 67 b 188 536 335 67 186 269 b 513 910 188 726 307 910 b 808 731 683 910 749 814 b 869 682 832 699 847 679 b 892 731 892 685 896 703 b 854 910 878 813 865 869 b 803 983 842 968 828 983 b 739 967 779 983 771 967 b 563 986 700 967 658 986 b 54 464 267 986 54 757 b 539 -12 54 193 238 -17 z "},"H":{"ha":1074,"x_min":0,"x_max":0,"o":"m 932 771 b 1015 944 932 929 1015 893 b 946 972 1015 965 993 972 l 793 972 b 725 944 744 972 725 965 b 804 771 725 893 804 929 l 804 614 b 546 547 804 547 804 547 b 269 614 269 547 269 547 l 269 771 b 351 944 269 929 351 893 b 283 972 351 965 329 972 l 131 972 b 61 944 81 972 61 965 b 142 771 61 893 142 929 l 142 201 b 58 28 142 43 58 79 b 128 0 58 7 81 0 l 281 0 b 349 28 329 0 349 7 b 269 201 349 79 269 43 l 269 418 b 544 485 269 485 269 485 b 804 418 804 485 804 485 l 804 201 b 722 28 804 43 722 79 b 790 0 722 7 744 0 l 943 0 b 1013 28 993 0 1013 7 b 932 201 1013 79 932 43 z "},"Ħ":{"ha":1074,"x_min":0,"x_max":0,"o":"m 932 771 b 1015 944 932 929 1015 893 b 946 972 1015 965 993 972 l 793 972 b 725 944 744 972 725 965 b 804 771 725 893 804 929 l 804 751 l 269 751 l 269 771 b 351 944 269 929 351 893 b 283 972 351 965 329 972 l 131 972 b 61 944 81 972 61 965 b 142 771 61 893 142 929 l 142 751 l 79 751 b 53 725 60 751 53 743 l 53 718 b 79 690 53 700 60 690 l 142 690 l 142 201 b 58 28 142 43 58 79 b 128 0 58 7 81 0 l 281 0 b 349 28 329 0 349 7 b 269 201 349 79 269 43 l 269 418 b 544 485 269 485 269 485 b 804 418 804 485 804 485 l 804 201 b 722 28 804 43 722 79 b 790 0 722 7 744 0 l 943 0 b 1013 28 993 0 1013 7 b 932 201 1013 79 932 43 l 932 690 l 1013 690 b 1039 718 1032 690 1039 700 l 1039 725 b 1013 751 1039 743 1032 751 l 932 751 z m 804 614 b 546 547 804 547 804 547 b 269 614 269 547 269 547 l 269 690 l 804 690 z "},"I":{"ha":410,"x_min":0,"x_max":0,"o":"m 142 201 b 58 28 142 43 58 79 b 128 0 58 7 81 0 l 281 0 b 349 28 329 0 349 7 b 269 201 349 79 269 43 l 269 771 b 351 944 269 929 351 893 b 283 972 351 965 329 972 l 131 972 b 61 944 81 972 61 965 b 142 771 61 893 142 929 z "},"Í":{"ha":410,"x_min":0,"x_max":0,"o":"m 154 1060 b 376 1179 218 1044 363 1118 b 336 1253 386 1215 364 1244 b 221 1185 300 1263 269 1231 b 133 1085 175 1139 136 1100 b 154 1060 131 1075 138 1064 z m 142 201 b 58 28 142 43 58 79 b 128 0 58 7 81 0 l 281 0 b 349 28 329 0 349 7 b 269 201 349 79 269 43 l 269 771 b 351 944 269 929 351 893 b 283 972 351 965 329 972 l 131 972 b 61 944 81 972 61 965 b 142 771 61 893 142 929 z "},"Î":{"ha":410,"x_min":0,"x_max":0,"o":"m 46 1046 b 214 1110 82 1043 174 1081 b 382 1046 254 1081 346 1043 b 399 1064 397 1047 400 1056 b 324 1147 396 1078 361 1108 b 213 1225 256 1215 253 1225 b 103 1146 175 1225 165 1208 b 29 1064 65 1108 32 1078 b 46 1046 28 1056 31 1047 z m 142 201 b 58 28 142 43 58 79 b 128 0 58 7 81 0 l 281 0 b 349 28 329 0 349 7 b 269 201 349 79 269 43 l 269 771 b 351 944 269 929 351 893 b 283 972 351 965 329 972 l 131 972 b 61 944 81 972 61 965 b 142 771 61 893 142 929 z "},"Ï":{"ha":410,"x_min":0,"x_max":0,"o":"m 97 1078 b 185 1156 142 1078 185 1111 b 119 1219 185 1193 157 1219 b 38 1133 74 1219 38 1175 b 97 1078 38 1099 64 1078 z m 299 1078 b 386 1156 342 1078 386 1111 b 319 1219 386 1193 358 1219 b 238 1133 275 1219 238 1175 b 299 1078 238 1099 264 1078 z m 142 201 b 58 28 142 43 58 79 b 128 0 58 7 81 0 l 281 0 b 349 28 329 0 349 7 b 269 201 349 79 269 43 l 269 771 b 351 944 269 929 351 893 b 283 972 351 965 329 972 l 131 972 b 61 944 81 972 61 965 b 142 771 61 893 142 929 z "},"İ":{"ha":410,"x_min":0,"x_max":0,"o":"m 203 1056 b 324 1154 257 1051 319 1106 b 261 1226 325 1189 299 1224 b 140 1125 206 1233 143 1175 b 203 1056 138 1086 165 1058 z m 142 201 b 58 28 142 43 58 79 b 128 0 58 7 81 0 l 281 0 b 349 28 329 0 349 7 b 269 201 349 79 269 43 l 269 771 b 351 944 269 929 351 893 b 283 972 351 965 329 972 l 131 972 b 61 944 81 972 61 965 b 142 771 61 893 142 929 z "},"Ì":{"ha":410,"x_min":0,"x_max":0,"o":"m 279 1060 b 300 1085 296 1064 303 1075 b 213 1185 297 1100 258 1139 b 97 1253 164 1231 133 1263 b 57 1179 69 1244 47 1215 b 279 1060 71 1118 215 1044 z m 142 201 b 58 28 142 43 58 79 b 128 0 58 7 81 0 l 281 0 b 349 28 329 0 349 7 b 269 201 349 79 269 43 l 269 771 b 351 944 269 929 351 893 b 283 972 351 965 329 972 l 131 972 b 61 944 81 972 61 965 b 142 771 61 893 142 929 z "},"Ī":{"ha":410,"x_min":0,"x_max":0,"o":"m 353 1076 b 399 1113 392 1076 396 1086 b 363 1146 401 1136 400 1146 l 47 1146 b 3 1111 10 1146 6 1136 b 38 1076 0 1086 0 1076 z m 142 201 b 58 28 142 43 58 79 b 128 0 58 7 81 0 l 281 0 b 349 28 329 0 349 7 b 269 201 349 79 269 43 l 269 771 b 351 944 269 929 351 893 b 283 972 351 965 329 972 l 131 972 b 61 944 81 972 61 965 b 142 771 61 893 142 929 z "},"Į":{"ha":410,"x_min":0,"x_max":0,"o":"m 372 -190 b 315 -203 356 -197 332 -203 b 235 -128 263 -203 235 -174 b 300 0 235 -92 253 -49 b 349 28 335 3 349 10 b 269 201 349 79 269 43 l 269 771 b 351 944 269 929 351 893 b 283 972 351 965 329 972 l 131 972 b 61 944 81 972 61 965 b 142 771 61 893 142 929 l 142 201 b 58 28 142 43 58 79 b 128 0 58 7 81 0 l 251 0 b 147 -144 189 -42 147 -89 b 282 -254 147 -215 210 -254 b 392 -215 317 -254 363 -243 b 372 -190 407 -201 400 -178 z "},"J":{"ha":706,"x_min":0,"x_max":0,"o":"m 453 361 b 300 57 453 176 408 57 b 158 219 211 57 174 126 b 88 289 153 257 131 289 b 22 214 50 289 22 261 b 281 -11 22 106 107 -11 b 582 392 501 -11 582 132 l 582 771 b 664 944 582 929 664 893 b 596 972 664 965 642 972 l 442 972 b 374 944 393 972 374 965 b 453 771 374 893 453 929 z "},"K":{"ha":965,"x_min":0,"x_max":0,"o":"m 735 835 b 885 944 828 921 885 896 b 817 972 885 965 863 972 l 675 972 b 628 943 647 972 628 965 b 642 835 628 896 719 908 l 269 488 l 269 771 b 351 944 269 929 351 893 b 283 972 351 965 329 972 l 131 972 b 61 944 81 972 61 965 b 142 771 61 893 142 929 l 142 201 b 58 28 142 43 58 79 b 128 0 58 7 81 0 l 281 0 b 349 28 329 0 349 7 b 269 201 349 79 269 43 l 269 400 l 511 626 l 717 151 b 689 32 756 65 689 68 b 758 0 689 7 713 0 l 910 0 b 964 28 944 0 964 7 b 857 150 964 72 901 51 l 604 713 z "},"L":{"ha":767,"x_min":0,"x_max":0,"o":"m 715 244 b 661 190 697 249 682 238 b 478 64 622 103 599 64 l 390 63 b 269 131 289 63 269 82 l 269 771 b 351 944 269 929 351 893 b 283 972 351 965 329 972 l 131 972 b 61 944 81 972 61 965 b 142 771 61 893 142 929 l 142 190 b 58 28 142 35 58 79 b 128 0 58 3 81 0 l 603 0 b 715 49 692 0 706 15 b 736 197 726 88 732 131 b 715 244 738 222 736 242 z "},"Ĺ":{"ha":767,"x_min":0,"x_max":0,"o":"m 164 1060 b 386 1179 228 1044 372 1118 b 346 1253 396 1215 374 1244 b 231 1185 310 1263 279 1231 b 143 1085 185 1139 146 1100 b 164 1060 140 1075 147 1064 z m 715 244 b 661 190 697 249 682 238 b 478 64 622 103 599 64 l 390 63 b 269 131 289 63 269 82 l 269 771 b 351 944 269 929 351 893 b 283 972 351 965 329 972 l 131 972 b 61 944 81 972 61 965 b 142 771 61 893 142 929 l 142 190 b 58 28 142 35 58 79 b 128 0 58 3 81 0 l 603 0 b 715 49 692 0 706 15 b 736 197 726 88 732 131 b 715 244 738 222 736 242 z "},"Ľ":{"ha":767,"x_min":0,"x_max":0,"o":"m 550 674 b 661 913 589 674 661 861 b 608 974 661 956 636 974 b 550 907 578 974 553 953 l 532 697 b 550 674 529 683 538 674 z m 715 244 b 661 190 697 249 682 238 b 478 64 622 103 599 64 l 390 63 b 269 131 289 63 269 82 l 269 771 b 351 944 269 929 351 893 b 283 972 351 965 329 972 l 131 972 b 61 944 81 972 61 965 b 142 771 61 893 142 929 l 142 190 b 58 28 142 35 58 79 b 128 0 58 3 81 0 l 603 0 b 715 49 692 0 706 15 b 736 197 726 88 732 131 b 715 244 738 222 736 242 z "},"Ł":{"ha":767,"x_min":0,"x_max":0,"o":"m 715 244 b 661 190 697 249 682 238 b 478 64 622 103 599 64 l 390 63 b 269 131 289 63 269 82 l 269 476 l 399 551 b 408 590 418 563 417 575 b 371 601 399 608 388 613 l 269 543 l 269 771 b 351 944 269 929 351 893 b 283 972 351 965 329 972 l 131 972 b 61 944 81 972 61 965 b 142 771 61 893 142 929 l 142 469 l 61 424 b 53 386 43 413 42 401 b 89 372 61 368 72 363 l 142 403 l 142 190 b 58 28 142 35 58 79 b 128 0 58 3 81 0 l 603 0 b 715 49 692 0 706 15 b 736 197 726 88 732 131 b 715 244 738 222 736 242 z "},"M":{"ha":1226,"x_min":0,"x_max":0,"o":"m 1061 814 b 1128 946 1057 918 1128 904 b 1074 972 1128 965 1114 972 l 969 972 b 932 946 951 972 939 964 l 603 224 l 301 946 b 264 972 294 964 282 972 l 153 972 b 99 946 113 972 99 965 b 165 814 99 908 169 908 l 140 167 b 60 29 136 56 60 75 b 121 0 60 7 82 0 l 215 0 b 278 29 258 0 278 6 b 210 167 278 75 206 56 l 232 792 l 531 76 b 575 61 536 63 549 56 b 613 90 596 67 604 75 l 939 801 l 954 174 b 878 31 957 63 878 79 b 947 0 878 7 900 0 l 1099 0 b 1160 31 1140 0 1160 7 b 1082 174 1160 81 1085 61 z "},"N":{"ha":1046,"x_min":0,"x_max":0,"o":"m 840 972 b 778 943 797 972 778 967 b 853 806 778 897 851 917 l 854 265 l 228 950 b 185 972 214 965 203 972 l 122 972 b 53 944 75 972 53 969 b 136 782 53 893 136 938 l 136 167 b 63 29 136 56 63 75 b 122 0 63 7 83 0 l 217 0 b 279 29 260 0 279 6 b 204 167 279 75 204 56 l 201 789 l 819 119 b 856 33 844 90 856 63 b 886 0 856 15 867 0 b 921 43 908 0 921 11 l 921 806 b 994 943 921 917 994 897 b 933 972 994 967 974 972 z "},"Ń":{"ha":1046,"x_min":0,"x_max":0,"o":"m 471 1060 b 693 1179 535 1044 679 1118 b 653 1253 703 1215 681 1244 b 538 1185 617 1263 586 1231 b 450 1085 492 1139 453 1100 b 471 1060 447 1075 454 1064 z m 840 972 b 778 943 797 972 778 967 b 853 806 778 897 851 917 l 854 265 l 228 950 b 185 972 214 965 203 972 l 122 972 b 53 944 75 972 53 969 b 136 782 53 893 136 938 l 136 167 b 63 29 136 56 63 75 b 122 0 63 7 83 0 l 217 0 b 279 29 260 0 279 6 b 204 167 279 75 204 56 l 201 789 l 819 119 b 856 33 844 90 856 63 b 886 0 856 15 867 0 b 921 43 908 0 921 11 l 921 806 b 994 943 921 917 994 897 b 933 972 994 967 974 972 z "},"Ň":{"ha":1046,"x_min":0,"x_max":0,"o":"m 428 1107 b 538 1028 490 1046 500 1028 b 649 1107 578 1028 581 1039 b 724 1189 686 1144 721 1175 b 707 1208 725 1199 722 1207 b 539 1143 671 1211 579 1174 b 371 1208 499 1174 407 1211 b 354 1189 356 1207 353 1199 b 428 1107 357 1175 390 1146 z m 840 972 b 778 943 797 972 778 967 b 853 806 778 897 851 917 l 854 265 l 228 950 b 185 972 214 965 203 972 l 122 972 b 53 944 75 972 53 969 b 136 782 53 893 136 938 l 136 167 b 63 29 136 56 63 75 b 122 0 63 7 83 0 l 217 0 b 279 29 260 0 279 6 b 204 167 279 75 204 56 l 201 789 l 819 119 b 856 33 844 90 856 63 b 886 0 856 15 867 0 b 921 43 908 0 921 11 l 921 806 b 994 943 921 917 994 897 b 933 972 994 967 974 972 z "},"Ñ":{"ha":1046,"x_min":0,"x_max":0,"o":"m 350 1075 b 399 1115 350 1103 367 1115 b 624 1057 468 1115 558 1057 b 721 1142 685 1057 721 1093 b 681 1178 721 1193 681 1213 b 632 1138 681 1151 665 1138 b 406 1196 585 1138 494 1196 b 310 1113 344 1196 310 1161 b 350 1075 310 1061 350 1042 z m 840 972 b 778 943 797 972 778 967 b 853 806 778 897 851 917 l 854 265 l 228 950 b 185 972 214 965 203 972 l 122 972 b 53 944 75 972 53 969 b 136 782 53 893 136 938 l 136 167 b 63 29 136 56 63 75 b 122 0 63 7 83 0 l 217 0 b 279 29 260 0 279 6 b 204 167 279 75 204 56 l 201 789 l 819 119 b 856 33 844 90 856 63 b 886 0 856 15 867 0 b 921 43 908 0 921 11 l 921 806 b 994 943 921 917 994 897 b 933 972 994 967 974 972 z "},"O":{"ha":1072,"x_min":0,"x_max":0,"o":"m 507 -14 b 1017 521 811 -14 1017 215 b 565 986 1017 786 842 986 b 54 447 267 986 54 746 b 507 -14 54 181 233 -14 z m 567 67 b 182 550 331 67 182 278 b 513 913 182 725 297 913 b 888 442 744 913 888 693 b 567 67 888 247 779 67 z "},"Ó":{"ha":1072,"x_min":0,"x_max":0,"o":"m 486 1060 b 708 1179 550 1044 694 1118 b 668 1253 718 1215 696 1244 b 553 1185 632 1263 601 1231 b 465 1085 507 1139 468 1100 b 486 1060 463 1075 469 1064 z m 507 -14 b 1017 521 811 -14 1017 215 b 565 986 1017 786 842 986 b 54 447 267 986 54 746 b 507 -14 54 181 233 -14 z m 567 67 b 182 550 331 67 182 278 b 513 913 182 725 297 913 b 888 442 744 913 888 693 b 567 67 888 247 779 67 z "},"Ô":{"ha":1072,"x_min":0,"x_max":0,"o":"m 378 1046 b 546 1110 414 1043 506 1081 b 714 1046 586 1081 678 1043 b 731 1064 729 1047 732 1056 b 656 1147 728 1078 693 1108 b 544 1225 588 1215 585 1225 b 435 1146 507 1225 497 1208 b 361 1064 397 1108 364 1078 b 378 1046 360 1056 363 1047 z m 507 -14 b 1017 521 811 -14 1017 215 b 565 986 1017 786 842 986 b 54 447 267 986 54 746 b 507 -14 54 181 233 -14 z m 567 67 b 182 550 331 67 182 278 b 513 913 182 725 297 913 b 888 442 744 913 888 693 b 567 67 888 247 779 67 z "},"Ö":{"ha":1072,"x_min":0,"x_max":0,"o":"m 429 1078 b 517 1156 474 1078 517 1111 b 451 1219 517 1193 489 1219 b 369 1133 406 1219 369 1175 b 429 1078 369 1099 396 1078 z m 631 1078 b 718 1156 674 1078 718 1111 b 651 1219 718 1193 690 1219 b 569 1133 607 1219 569 1175 b 631 1078 569 1099 596 1078 z m 507 -14 b 1017 521 811 -14 1017 215 b 565 986 1017 786 842 986 b 54 447 267 986 54 746 b 507 -14 54 181 233 -14 z m 567 67 b 182 550 331 67 182 278 b 513 913 182 725 297 913 b 888 442 744 913 888 693 b 567 67 888 247 779 67 z "},"Ò":{"ha":1072,"x_min":0,"x_max":0,"o":"m 611 1060 b 632 1085 628 1064 635 1075 b 544 1185 629 1100 590 1139 b 429 1253 496 1231 465 1263 b 389 1179 401 1244 379 1215 b 611 1060 403 1118 547 1044 z m 507 -14 b 1017 521 811 -14 1017 215 b 565 986 1017 786 842 986 b 54 447 267 986 54 746 b 507 -14 54 181 233 -14 z m 567 67 b 182 550 331 67 182 278 b 513 913 182 725 297 913 b 888 442 744 913 888 693 b 567 67 888 247 779 67 z "},"Ő":{"ha":1072,"x_min":0,"x_max":0,"o":"m 351 1063 b 568 1185 421 1063 568 1125 b 507 1238 568 1211 538 1238 b 403 1178 478 1238 446 1211 b 306 1081 361 1144 306 1097 b 351 1063 306 1069 324 1063 z m 618 1060 b 839 1171 686 1057 836 1111 b 781 1226 840 1197 813 1225 b 675 1172 753 1228 719 1204 b 572 1081 632 1142 574 1097 b 618 1060 571 1069 589 1061 z m 507 -14 b 1017 521 811 -14 1017 215 b 565 986 1017 786 842 986 b 54 447 267 986 54 746 b 507 -14 54 181 233 -14 z m 567 67 b 182 550 331 67 182 278 b 513 913 182 725 297 913 b 888 442 744 913 888 693 b 567 67 888 247 779 67 z "},"Ō":{"ha":1072,"x_min":0,"x_max":0,"o":"m 685 1076 b 731 1113 724 1076 728 1086 b 694 1146 733 1136 732 1146 l 379 1146 b 335 1111 342 1146 338 1136 b 369 1076 332 1086 332 1076 z m 507 -14 b 1017 521 811 -14 1017 215 b 565 986 1017 786 842 986 b 54 447 267 986 54 746 b 507 -14 54 181 233 -14 z m 567 67 b 182 550 331 67 182 278 b 513 913 182 725 297 913 b 888 442 744 913 888 693 b 567 67 888 247 779 67 z "},"Ø":{"ha":1072,"x_min":0,"x_max":0,"o":"m 904 1053 b 897 1099 915 1074 917 1086 b 853 1088 876 1111 863 1106 l 769 943 b 565 986 710 971 642 986 b 54 447 267 986 54 746 b 256 54 54 275 129 133 l 186 -67 b 193 -112 175 -86 176 -99 b 238 -101 213 -125 225 -122 l 311 25 b 507 -14 368 0 435 -14 b 1017 521 811 -14 1017 215 b 824 913 1017 689 946 832 z m 182 550 b 513 913 182 725 297 913 b 714 846 590 913 657 888 l 321 167 b 182 550 232 254 182 392 z m 567 67 b 369 126 492 67 425 89 l 760 804 b 888 442 842 715 888 583 b 567 67 888 247 779 67 z "},"Õ":{"ha":1072,"x_min":0,"x_max":0,"o":"m 639 1057 b 736 1142 700 1057 736 1093 b 696 1178 736 1193 696 1213 b 647 1138 696 1151 681 1138 b 421 1196 600 1138 510 1196 b 325 1113 360 1196 325 1161 b 365 1075 325 1061 365 1042 b 414 1115 365 1103 382 1115 b 639 1057 483 1115 574 1057 z m 507 -14 b 1017 521 811 -14 1017 215 b 565 986 1017 786 842 986 b 54 447 267 986 54 746 b 507 -14 54 181 233 -14 z m 567 67 b 182 550 331 67 182 278 b 513 913 182 725 297 913 b 888 442 744 913 888 693 b 567 67 888 247 779 67 z "},"Œ":{"ha":1617,"x_min":0,"x_max":0,"o":"m 1547 242 b 1490 196 1522 247 1510 232 b 1288 64 1444 108 1386 64 l 1183 63 b 1036 115 1056 63 1036 81 l 1036 492 l 1271 492 b 1481 365 1424 490 1431 351 b 1493 436 1501 371 1506 382 l 1467 553 b 1431 597 1458 585 1447 597 b 1271 553 1390 597 1413 553 l 1036 553 l 1036 857 b 1183 910 1036 892 1056 910 l 1264 910 b 1467 778 1363 910 1421 865 b 1524 732 1486 742 1499 726 b 1539 783 1543 738 1544 756 b 1504 931 1531 846 1517 893 b 1404 974 1493 967 1482 974 l 942 972 b 900 931 915 972 900 957 l 900 847 b 565 986 822 933 707 986 b 54 447 267 986 54 746 b 507 -14 54 181 233 -14 b 900 167 674 -14 810 54 l 900 42 b 942 0 900 15 915 0 l 1428 0 b 1528 43 1506 0 1517 7 b 1563 190 1540 81 1554 128 b 1547 242 1568 218 1567 236 z m 567 67 b 182 550 331 67 182 278 b 513 913 182 725 297 913 b 888 442 744 913 888 693 b 567 67 888 247 779 67 z "},"P":{"ha":869,"x_min":0,"x_max":0,"o":"m 128 972 b 58 944 81 972 58 969 b 142 782 58 893 142 938 l 142 201 b 58 28 142 43 58 79 b 128 0 58 7 81 0 l 281 0 b 349 28 329 0 349 7 b 269 201 349 79 269 43 l 269 282 b 297 310 269 308 271 310 l 415 310 b 835 629 693 310 835 426 b 376 972 835 817 676 972 z m 411 371 b 269 411 283 371 269 385 l 269 874 b 374 911 269 903 281 911 b 696 603 567 911 696 781 b 411 371 696 426 576 371 z "},"Þ":{"ha":822,"x_min":0,"x_max":0,"o":"m 269 792 b 333 947 269 921 333 906 b 274 972 333 965 318 972 l 138 972 b 76 947 90 972 76 965 b 142 790 76 908 142 910 l 142 203 b 58 29 142 44 58 81 b 128 1 58 8 81 1 l 281 1 b 349 29 329 1 349 8 b 269 201 349 81 269 44 b 297 228 269 226 271 228 l 400 228 b 788 486 664 228 788 317 b 379 793 788 685 619 796 z m 382 289 b 269 328 281 289 269 301 l 269 694 b 332 732 269 724 281 733 b 646 486 513 729 646 658 b 382 289 646 347 542 289 z "},"Q":{"ha":1072,"x_min":0,"x_max":0,"o":"m 976 -42 b 875 -78 944 -42 949 -78 b 492 -14 753 -78 615 -46 l 507 -14 b 1017 521 811 -14 1017 215 b 565 986 1017 786 842 986 b 54 447 267 986 54 746 b 283 38 54 263 140 113 b 192 49 249 44 219 49 b 107 -18 138 49 107 21 b 129 -49 107 -33 114 -49 b 179 -25 144 -49 147 -25 b 401 -89 224 -25 285 -46 b 835 -212 553 -146 729 -212 b 999 -82 957 -212 999 -149 b 976 -42 999 -54 986 -42 z m 182 550 b 513 913 182 725 297 913 b 888 442 744 913 888 693 b 567 67 888 247 779 67 b 182 550 331 67 182 278 z "},"R":{"ha":910,"x_min":0,"x_max":0,"o":"m 631 400 b 826 665 756 443 826 531 b 382 972 826 826 689 972 l 128 972 b 58 944 81 972 58 969 b 142 782 58 893 142 938 l 142 201 b 58 28 142 43 58 79 b 128 0 58 7 81 0 l 281 0 b 349 28 329 0 349 7 b 269 201 349 79 269 43 l 269 356 b 397 388 269 404 307 400 b 533 322 485 376 507 369 l 626 151 b 603 32 672 69 603 68 b 671 0 603 7 626 0 l 821 0 b 875 28 856 0 875 7 b 768 146 875 72 818 54 z m 475 444 b 269 517 411 446 269 458 l 269 874 b 379 910 269 903 286 911 b 688 647 579 908 688 788 b 475 444 688 513 601 442 z "},"Ŕ":{"ha":910,"x_min":0,"x_max":0,"o":"m 339 1060 b 561 1179 403 1044 547 1118 b 521 1253 571 1215 549 1244 b 406 1185 485 1263 454 1231 b 318 1085 360 1139 321 1100 b 339 1060 315 1075 322 1064 z m 631 400 b 826 665 756 443 826 531 b 382 972 826 826 689 972 l 128 972 b 58 944 81 972 58 969 b 142 782 58 893 142 938 l 142 201 b 58 28 142 43 58 79 b 128 0 58 7 81 0 l 281 0 b 349 28 329 0 349 7 b 269 201 349 79 269 43 l 269 356 b 397 388 269 404 307 400 b 533 322 485 376 507 369 l 626 151 b 603 32 672 69 603 68 b 671 0 603 7 626 0 l 821 0 b 875 28 856 0 875 7 b 768 146 875 72 818 54 z m 475 444 b 269 517 411 446 269 458 l 269 874 b 379 910 269 903 286 911 b 688 647 579 908 688 788 b 475 444 688 513 601 442 z "},"Ř":{"ha":910,"x_min":0,"x_max":0,"o":"m 328 1125 b 438 1046 390 1064 400 1046 b 549 1125 478 1046 481 1057 b 624 1207 586 1163 621 1193 b 607 1226 625 1217 622 1225 b 439 1161 571 1229 479 1192 b 271 1226 399 1192 307 1229 b 254 1207 256 1225 253 1217 b 328 1125 257 1193 290 1164 z m 631 400 b 826 665 756 443 826 531 b 382 972 826 826 689 972 l 128 972 b 58 944 81 972 58 969 b 142 782 58 893 142 938 l 142 201 b 58 28 142 43 58 79 b 128 0 58 7 81 0 l 281 0 b 349 28 329 0 349 7 b 269 201 349 79 269 43 l 269 356 b 397 388 269 404 307 400 b 533 322 485 376 507 369 l 626 151 b 603 32 672 69 603 68 b 671 0 603 7 626 0 l 821 0 b 875 28 856 0 875 7 b 768 146 875 72 818 54 z m 475 444 b 269 517 411 446 269 458 l 269 874 b 379 910 269 903 286 911 b 688 647 579 908 688 788 b 475 444 688 513 601 442 z "},"S":{"ha":807,"x_min":0,"x_max":0,"o":"m 410 -14 b 756 272 593 -12 761 96 b 447 561 750 438 596 489 b 214 771 315 626 214 664 b 388 918 214 856 274 918 b 635 751 511 918 590 822 b 689 707 653 721 669 707 b 711 753 711 707 715 726 b 678 910 700 821 688 869 b 631 983 664 968 657 983 b 568 968 608 983 600 968 b 418 983 529 968 479 983 b 92 733 204 983 92 863 b 383 439 92 564 243 507 b 624 219 503 382 631 336 b 424 53 619 132 558 53 b 146 260 261 54 186 167 b 94 307 129 293 114 307 b 71 258 72 307 68 286 b 101 64 81 168 93 108 b 151 -12 111 6 125 -12 b 214 4 174 -12 182 4 b 410 -14 256 4 304 -14 z "},"":{"ha":807,"x_min":0,"x_max":0,"o":"m 410 -14 b 756 272 593 -12 761 96 b 447 561 750 438 596 489 b 214 771 315 626 214 664 b 388 918 214 856 274 918 b 635 751 511 918 590 822 b 689 707 653 721 669 707 b 711 753 711 707 715 726 b 678 910 700 821 688 869 b 631 983 664 968 657 983 b 568 968 608 983 600 968 b 418 983 529 968 479 983 b 92 733 204 983 92 863 b 383 439 92 564 243 507 b 624 219 503 382 631 336 b 424 53 619 132 558 53 b 146 260 261 54 186 167 b 94 307 129 293 114 307 b 71 258 72 307 68 286 b 101 64 81 168 93 108 b 151 -12 111 6 125 -12 b 214 4 174 -12 182 4 b 410 -14 256 4 304 -14 z "},"Ś":{"ha":807,"x_min":0,"x_max":0,"o":"m 336 1072 b 558 1192 400 1057 544 1131 b 518 1265 568 1228 546 1257 b 403 1197 482 1275 451 1243 b 315 1097 357 1151 318 1113 b 336 1072 313 1088 319 1076 z m 410 -14 b 756 272 593 -12 761 96 b 447 561 750 438 596 489 b 214 771 315 626 214 664 b 388 918 214 856 274 918 b 635 751 511 918 590 822 b 689 707 653 721 669 707 b 711 753 711 707 715 726 b 678 910 700 821 688 869 b 631 983 664 968 657 983 b 568 968 608 983 600 968 b 418 983 529 968 479 983 b 92 733 204 983 92 863 b 383 439 92 564 243 507 b 624 219 503 382 631 336 b 424 53 619 132 558 53 b 146 260 261 54 186 167 b 94 307 129 293 114 307 b 71 258 72 307 68 286 b 101 64 81 168 93 108 b 151 -12 111 6 125 -12 b 214 4 174 -12 182 4 b 410 -14 256 4 304 -14 z "},"Š":{"ha":807,"x_min":0,"x_max":0,"o":"m 226 1239 b 210 1219 211 1238 208 1229 b 283 1138 213 1206 246 1176 b 393 1058 346 1076 356 1058 b 504 1138 433 1058 436 1069 b 579 1219 542 1175 576 1206 b 563 1239 581 1229 578 1238 b 394 1174 526 1242 435 1204 b 226 1239 354 1204 263 1242 z m 410 -14 b 756 272 593 -12 761 96 b 447 561 750 438 596 489 b 214 771 315 626 214 664 b 388 918 214 856 274 918 b 635 751 511 918 590 822 b 689 707 653 721 669 707 b 711 753 711 707 715 726 b 678 910 700 821 688 869 b 631 983 664 968 657 983 b 568 968 608 983 600 968 b 418 983 529 968 479 983 b 92 733 204 983 92 863 b 383 439 92 564 243 507 b 624 219 503 382 631 336 b 424 53 619 132 558 53 b 146 260 261 54 186 167 b 94 307 129 293 114 307 b 71 258 72 307 68 286 b 101 64 81 168 93 108 b 151 -12 111 6 125 -12 b 214 4 174 -12 182 4 b 410 -14 256 4 304 -14 z "},"Ş":{"ha":807,"x_min":0,"x_max":0,"o":"m 756 272 b 447 561 750 438 596 489 b 214 771 315 626 214 664 b 388 918 214 856 274 918 b 635 751 511 918 590 822 b 689 707 653 721 669 707 b 711 753 711 707 715 726 b 678 910 700 821 688 869 b 631 983 664 968 657 983 b 568 968 608 983 600 968 b 418 983 529 968 479 983 b 92 733 204 983 92 863 b 383 439 92 564 243 507 b 624 219 503 382 631 336 b 424 53 619 132 558 53 b 146 260 261 54 186 167 b 94 307 129 293 114 307 b 71 258 72 307 68 286 b 101 64 81 168 93 108 b 151 -12 111 6 125 -12 b 214 4 174 -12 182 4 b 375 -14 250 4 293 -10 l 332 -93 b 349 -117 325 -106 335 -114 b 443 -192 394 -128 443 -146 b 379 -250 443 -222 422 -250 b 304 -226 344 -250 324 -237 b 282 -249 285 -214 269 -233 b 394 -293 300 -271 335 -293 b 522 -183 464 -293 522 -249 b 394 -74 522 -117 464 -86 l 425 -14 b 756 272 603 -7 761 101 z "},"ẞ":{"ha":1614,"x_min":0,"x_max":0,"o":"m 410 -14 b 756 272 593 -12 761 96 b 447 561 750 438 596 489 b 214 771 315 626 214 664 b 388 918 214 856 274 918 b 635 751 511 918 590 822 b 689 707 653 721 669 707 b 711 753 711 707 715 726 b 678 910 700 821 688 869 b 631 983 664 968 657 983 b 568 968 608 983 600 968 b 418 983 529 968 479 983 b 92 733 204 983 92 863 b 383 439 92 564 243 507 b 624 219 503 382 631 336 b 424 53 619 132 558 53 b 146 260 261 54 186 167 b 94 307 129 293 114 307 b 71 258 72 307 68 286 b 101 64 81 168 93 108 b 151 -12 111 6 125 -12 b 214 4 174 -12 182 4 b 410 -14 256 4 304 -14 z m 1217 -14 b 1563 272 1400 -12 1568 96 b 1254 561 1557 438 1403 489 b 1021 771 1122 626 1021 664 b 1194 918 1021 856 1081 918 b 1442 751 1318 918 1397 822 b 1496 707 1460 721 1476 707 b 1518 753 1518 707 1522 726 b 1485 910 1507 821 1494 869 b 1438 983 1471 968 1464 983 b 1375 968 1415 983 1407 968 b 1225 983 1336 968 1286 983 b 899 733 1011 983 899 863 b 1190 439 899 564 1050 507 b 1431 219 1310 382 1438 336 b 1231 53 1426 132 1365 53 b 953 260 1068 54 993 167 b 901 307 936 293 921 307 b 878 258 879 307 875 286 b 908 64 888 168 900 108 b 958 -12 918 6 932 -12 b 1021 4 981 -12 989 4 b 1217 -14 1063 4 1111 -14 z "},"T":{"ha":885,"x_min":0,"x_max":0,"o":"m 507 842 b 581 911 507 890 526 911 b 756 783 689 911 710 869 b 807 729 776 743 789 729 b 835 776 833 729 836 751 b 817 925 833 843 828 886 b 704 974 808 958 793 974 l 181 972 b 68 924 92 972 76 957 b 50 775 57 885 51 842 b 78 728 49 750 51 728 b 129 783 96 728 108 743 b 304 910 175 868 196 910 b 378 840 360 910 378 889 l 378 201 b 296 28 378 43 296 79 b 364 0 296 7 318 0 l 518 0 b 586 28 567 0 586 7 b 507 201 586 79 507 43 z "},"Ŧ":{"ha":885,"x_min":0,"x_max":0,"o":"m 835 776 b 817 925 833 843 828 886 b 704 974 808 958 793 974 l 181 972 b 68 924 92 972 76 957 b 50 775 57 885 51 842 b 78 728 49 750 51 728 b 129 783 96 728 108 743 b 304 910 175 868 196 910 b 378 840 360 910 378 889 l 378 515 l 294 515 b 258 485 265 515 258 504 b 294 453 258 464 264 453 l 378 453 l 378 201 b 296 28 378 43 296 79 b 364 0 296 7 318 0 l 518 0 b 586 28 567 0 586 7 b 507 201 586 79 507 43 l 507 453 l 594 453 b 631 485 625 453 631 464 b 594 515 631 504 624 515 l 507 515 l 507 842 b 581 911 507 890 526 911 b 756 783 689 911 710 869 b 807 729 776 743 789 729 b 835 776 833 729 836 751 z "},"Ť":{"ha":885,"x_min":0,"x_max":0,"o":"m 281 1226 b 264 1207 265 1225 263 1217 b 338 1125 267 1193 300 1164 b 447 1046 400 1064 410 1046 b 558 1125 488 1046 490 1057 b 633 1207 596 1163 631 1193 b 617 1226 635 1217 632 1225 b 449 1161 581 1229 489 1192 b 281 1226 408 1192 317 1229 z m 507 842 b 581 911 507 890 526 911 b 756 783 689 911 710 869 b 807 729 776 743 789 729 b 835 776 833 729 836 751 b 817 925 833 843 828 886 b 704 974 808 958 793 974 l 181 972 b 68 924 92 972 76 957 b 50 775 57 885 51 842 b 78 728 49 750 51 728 b 129 783 96 728 108 743 b 304 910 175 868 196 910 b 378 840 360 910 378 889 l 378 201 b 296 28 378 43 296 79 b 364 0 296 7 318 0 l 518 0 b 586 28 567 0 586 7 b 507 201 586 79 507 43 z "},"U":{"ha":996,"x_min":0,"x_max":0,"o":"m 511 -14 b 879 394 765 -14 879 151 l 879 806 b 954 943 881 917 954 897 b 893 972 954 967 933 972 l 800 972 b 738 943 757 972 738 967 b 811 806 738 897 811 917 l 814 375 b 539 60 814 196 719 60 b 265 363 368 60 265 165 l 265 769 b 349 942 265 926 349 890 b 279 969 349 964 326 969 l 126 969 b 57 942 76 969 57 964 b 138 769 57 890 138 926 l 138 385 b 511 -14 138 136 276 -14 z "},"Ú":{"ha":996,"x_min":0,"x_max":0,"o":"m 519 1060 b 742 1179 583 1044 728 1118 b 701 1253 751 1215 729 1244 b 586 1185 665 1263 635 1231 b 499 1085 540 1139 501 1100 b 519 1060 496 1075 503 1064 z m 511 -14 b 879 394 765 -14 879 151 l 879 806 b 954 943 881 917 954 897 b 893 972 954 967 933 972 l 800 972 b 738 943 757 972 738 967 b 811 806 738 897 811 917 l 814 375 b 539 60 814 196 719 60 b 265 363 368 60 265 165 l 265 769 b 349 942 265 926 349 890 b 279 969 349 964 326 969 l 126 969 b 57 942 76 969 57 964 b 138 769 57 890 138 926 l 138 385 b 511 -14 138 136 276 -14 z "},"Û":{"ha":996,"x_min":0,"x_max":0,"o":"m 411 1046 b 579 1110 447 1043 539 1081 b 747 1046 619 1081 711 1043 b 764 1064 763 1047 765 1056 b 689 1147 761 1078 726 1108 b 578 1225 621 1215 618 1225 b 468 1146 540 1225 531 1208 b 394 1064 431 1108 397 1078 b 411 1046 393 1056 396 1047 z m 511 -14 b 879 394 765 -14 879 151 l 879 806 b 954 943 881 917 954 897 b 893 972 954 967 933 972 l 800 972 b 738 943 757 972 738 967 b 811 806 738 897 811 917 l 814 375 b 539 60 814 196 719 60 b 265 363 368 60 265 165 l 265 769 b 349 942 265 926 349 890 b 279 969 349 964 326 969 l 126 969 b 57 942 76 969 57 964 b 138 769 57 890 138 926 l 138 385 b 511 -14 138 136 276 -14 z "},"Ü":{"ha":996,"x_min":0,"x_max":0,"o":"m 463 1078 b 550 1156 507 1078 550 1111 b 485 1219 550 1193 522 1219 b 403 1133 439 1219 403 1175 b 463 1078 403 1099 429 1078 z m 664 1078 b 751 1156 707 1078 751 1111 b 685 1219 751 1193 724 1219 b 603 1133 640 1219 603 1175 b 664 1078 603 1099 629 1078 z m 511 -14 b 879 394 765 -14 879 151 l 879 806 b 954 943 881 917 954 897 b 893 972 954 967 933 972 l 800 972 b 738 943 757 972 738 967 b 811 806 738 897 811 917 l 814 375 b 539 60 814 196 719 60 b 265 363 368 60 265 165 l 265 769 b 349 942 265 926 349 890 b 279 969 349 964 326 969 l 126 969 b 57 942 76 969 57 964 b 138 769 57 890 138 926 l 138 385 b 511 -14 138 136 276 -14 z "},"Ù":{"ha":996,"x_min":0,"x_max":0,"o":"m 644 1060 b 665 1085 661 1064 668 1075 b 578 1185 663 1100 624 1139 b 463 1253 529 1231 499 1263 b 422 1179 435 1244 413 1215 b 644 1060 436 1118 581 1044 z m 511 -14 b 879 394 765 -14 879 151 l 879 806 b 954 943 881 917 954 897 b 893 972 954 967 933 972 l 800 972 b 738 943 757 972 738 967 b 811 806 738 897 811 917 l 814 375 b 539 60 814 196 719 60 b 265 363 368 60 265 165 l 265 769 b 349 942 265 926 349 890 b 279 969 349 964 326 969 l 126 969 b 57 942 76 969 57 964 b 138 769 57 890 138 926 l 138 385 b 511 -14 138 136 276 -14 z "},"Ű":{"ha":996,"x_min":0,"x_max":0,"o":"m 385 1063 b 601 1185 454 1063 601 1125 b 540 1238 601 1211 571 1238 b 436 1178 511 1238 479 1211 b 339 1081 394 1144 339 1097 b 385 1063 339 1069 357 1063 z m 651 1060 b 872 1171 719 1057 869 1111 b 814 1226 874 1197 846 1225 b 708 1172 786 1228 753 1204 b 606 1081 665 1142 607 1097 b 651 1060 604 1069 622 1061 z m 511 -14 b 879 394 765 -14 879 151 l 879 806 b 954 943 881 917 954 897 b 893 972 954 967 933 972 l 800 972 b 738 943 757 972 738 967 b 811 806 738 897 811 917 l 814 375 b 539 60 814 196 719 60 b 265 363 368 60 265 165 l 265 769 b 349 942 265 926 349 890 b 279 969 349 964 326 969 l 126 969 b 57 942 76 969 57 964 b 138 769 57 890 138 926 l 138 385 b 511 -14 138 136 276 -14 z "},"Ū":{"ha":996,"x_min":0,"x_max":0,"o":"m 718 1076 b 764 1113 757 1076 761 1086 b 728 1146 767 1136 765 1146 l 413 1146 b 368 1111 375 1146 371 1136 b 403 1076 365 1086 365 1076 z m 511 -14 b 879 394 765 -14 879 151 l 879 806 b 954 943 881 917 954 897 b 893 972 954 967 933 972 l 800 972 b 738 943 757 972 738 967 b 811 806 738 897 811 917 l 814 375 b 539 60 814 196 719 60 b 265 363 368 60 265 165 l 265 769 b 349 942 265 926 349 890 b 279 969 349 964 326 969 l 126 969 b 57 942 76 969 57 964 b 138 769 57 890 138 926 l 138 385 b 511 -14 138 136 276 -14 z "},"Ų":{"ha":996,"x_min":0,"x_max":0,"o":"m 800 972 b 738 943 757 972 738 967 b 811 806 738 897 811 917 l 814 375 b 539 60 814 196 719 60 b 265 363 368 60 265 165 l 265 769 b 349 942 265 926 349 890 b 279 969 349 964 326 969 l 126 969 b 57 942 76 969 57 964 b 138 769 57 890 138 926 l 138 385 b 511 -14 138 136 276 -14 b 563 -11 529 -14 546 -12 b 475 -144 510 -50 475 -93 b 610 -254 475 -215 538 -254 b 719 -215 644 -254 690 -243 b 700 -190 735 -201 728 -178 b 643 -203 683 -197 660 -203 b 563 -128 590 -203 563 -174 b 628 0 563 -92 581 -49 b 879 394 800 44 879 192 l 879 806 b 954 943 881 917 954 897 b 893 972 954 967 933 972 z "},"Ů":{"ha":996,"x_min":0,"x_max":0,"o":"m 571 1044 b 708 1174 646 1044 708 1094 b 576 1299 708 1250 650 1299 b 439 1169 500 1299 439 1247 b 571 1044 439 1094 496 1044 z m 578 1099 b 503 1171 538 1099 508 1129 b 571 1247 500 1215 526 1247 b 643 1176 610 1247 638 1217 b 578 1099 646 1135 621 1099 z m 511 -14 b 879 394 765 -14 879 151 l 879 806 b 954 943 881 917 954 897 b 893 972 954 967 933 972 l 800 972 b 738 943 757 972 738 967 b 811 806 738 897 811 917 l 814 375 b 539 60 814 196 719 60 b 265 363 368 60 265 165 l 265 769 b 349 942 265 926 349 890 b 279 969 349 964 326 969 l 126 969 b 57 942 76 969 57 964 b 138 769 57 890 138 926 l 138 385 b 511 -14 138 136 276 -14 z "},"V":{"ha":954,"x_min":0,"x_max":0,"o":"m 790 972 b 740 943 761 972 740 967 b 775 808 740 901 818 921 l 514 124 l 246 807 b 290 946 204 915 290 900 b 233 972 290 965 268 972 l 71 972 b 4 942 24 972 4 965 b 106 807 4 900 61 921 l 424 15 b 492 -6 432 -8 446 -12 b 544 31 531 1 536 8 l 847 808 b 961 946 892 925 961 900 b 904 972 961 967 938 972 z "},"W":{"ha":1438,"x_min":0,"x_max":0,"o":"m 1274 972 b 1224 943 1244 972 1224 967 b 1261 807 1224 901 1299 922 l 1038 133 l 810 807 b 856 946 774 915 856 901 b 799 972 856 967 832 972 l 638 972 b 572 943 593 972 572 967 b 671 807 572 901 633 921 l 685 767 l 471 132 l 242 807 b 286 946 206 915 286 901 b 231 972 286 967 264 972 l 69 972 b 4 943 24 972 4 967 b 104 807 4 901 64 921 l 383 13 b 447 -4 389 -6 411 -11 b 503 32 483 3 497 14 l 719 669 l 949 13 b 1014 -4 956 -6 978 -11 b 1069 32 1050 3 1064 15 l 1333 807 b 1444 946 1374 926 1444 900 b 1388 972 1444 967 1421 972 z "},"Ẃ":{"ha":1438,"x_min":0,"x_max":0,"o":"m 643 1060 b 865 1179 707 1044 851 1118 b 825 1253 875 1215 853 1244 b 710 1185 789 1263 758 1231 b 622 1085 664 1139 625 1100 b 643 1060 619 1075 626 1064 z m 1274 972 b 1224 943 1244 972 1224 967 b 1261 807 1224 901 1299 922 l 1038 133 l 810 807 b 856 946 774 915 856 901 b 799 972 856 967 832 972 l 638 972 b 572 943 593 972 572 967 b 671 807 572 901 633 921 l 685 767 l 471 132 l 242 807 b 286 946 206 915 286 901 b 231 972 286 967 264 972 l 69 972 b 4 943 24 972 4 967 b 104 807 4 901 64 921 l 383 13 b 447 -4 389 -6 411 -11 b 503 32 483 3 497 14 l 719 669 l 949 13 b 1014 -4 956 -6 978 -11 b 1069 32 1050 3 1064 15 l 1333 807 b 1444 946 1374 926 1444 900 b 1388 972 1444 967 1421 972 z "},"Ŵ":{"ha":1438,"x_min":0,"x_max":0,"o":"m 535 1046 b 703 1110 571 1043 663 1081 b 871 1046 743 1081 835 1043 b 888 1064 886 1047 889 1056 b 813 1147 885 1078 850 1108 b 701 1225 744 1215 742 1225 b 592 1146 664 1225 654 1208 b 518 1064 554 1108 521 1078 b 535 1046 517 1056 519 1047 z m 1274 972 b 1224 943 1244 972 1224 967 b 1261 807 1224 901 1299 922 l 1038 133 l 810 807 b 856 946 774 915 856 901 b 799 972 856 967 832 972 l 638 972 b 572 943 593 972 572 967 b 671 807 572 901 633 921 l 685 767 l 471 132 l 242 807 b 286 946 206 915 286 901 b 231 972 286 967 264 972 l 69 972 b 4 943 24 972 4 967 b 104 807 4 901 64 921 l 383 13 b 447 -4 389 -6 411 -11 b 503 32 483 3 497 14 l 719 669 l 949 13 b 1014 -4 956 -6 978 -11 b 1069 32 1050 3 1064 15 l 1333 807 b 1444 946 1374 926 1444 900 b 1388 972 1444 967 1421 972 z "},"Ẅ":{"ha":1438,"x_min":0,"x_max":0,"o":"m 586 1078 b 674 1156 631 1078 674 1111 b 608 1219 674 1193 646 1219 b 526 1133 563 1219 526 1175 b 586 1078 526 1099 553 1078 z m 788 1078 b 875 1156 831 1078 875 1111 b 808 1219 875 1193 847 1219 b 726 1133 764 1219 726 1175 b 788 1078 726 1099 753 1078 z m 1274 972 b 1224 943 1244 972 1224 967 b 1261 807 1224 901 1299 922 l 1038 133 l 810 807 b 856 946 774 915 856 901 b 799 972 856 967 832 972 l 638 972 b 572 943 593 972 572 967 b 671 807 572 901 633 921 l 685 767 l 471 132 l 242 807 b 286 946 206 915 286 901 b 231 972 286 967 264 972 l 69 972 b 4 943 24 972 4 967 b 104 807 4 901 64 921 l 383 13 b 447 -4 389 -6 411 -11 b 503 32 483 3 497 14 l 719 669 l 949 13 b 1014 -4 956 -6 978 -11 b 1069 32 1050 3 1064 15 l 1333 807 b 1444 946 1374 926 1444 900 b 1388 972 1444 967 1421 972 z "},"Ẁ":{"ha":1438,"x_min":0,"x_max":0,"o":"m 768 1060 b 789 1085 785 1064 792 1075 b 701 1185 786 1100 747 1139 b 586 1253 653 1231 622 1263 b 546 1179 558 1244 536 1215 b 768 1060 560 1118 704 1044 z m 1274 972 b 1224 943 1244 972 1224 967 b 1261 807 1224 901 1299 922 l 1038 133 l 810 807 b 856 946 774 915 856 901 b 799 972 856 967 832 972 l 638 972 b 572 943 593 972 572 967 b 671 807 572 901 633 921 l 685 767 l 471 132 l 242 807 b 286 946 206 915 286 901 b 231 972 286 967 264 972 l 69 972 b 4 943 24 972 4 967 b 104 807 4 901 64 921 l 383 13 b 447 -4 389 -6 411 -11 b 503 32 483 3 497 14 l 719 669 l 949 13 b 1014 -4 956 -6 978 -11 b 1069 32 1050 3 1064 15 l 1333 807 b 1444 946 1374 926 1444 900 b 1388 972 1444 967 1421 972 z "},"X":{"ha":985,"x_min":0,"x_max":0,"o":"m 792 831 b 928 946 858 925 928 900 b 871 972 928 967 904 972 l 758 972 b 708 943 729 972 708 967 b 713 831 708 901 778 921 l 517 560 l 324 818 b 349 946 254 910 349 901 b 292 972 349 967 326 972 l 100 972 b 33 943 54 972 33 967 b 165 818 33 901 92 915 l 413 486 l 165 142 b 29 26 97 47 29 72 b 86 0 29 6 53 0 l 199 0 b 249 29 228 0 249 6 b 244 142 249 71 179 51 l 453 433 l 661 154 b 638 26 731 63 638 71 b 693 0 638 6 660 0 l 886 0 b 951 29 931 0 951 6 b 821 154 951 71 894 57 l 557 507 z "},"Y":{"ha":919,"x_min":0,"x_max":0,"o":"m 747 972 b 696 943 718 972 696 967 b 706 828 696 901 764 921 l 504 503 l 293 815 b 321 946 229 911 321 901 b 265 972 321 967 299 972 l 72 972 b 7 943 26 972 7 967 b 135 817 7 901 65 917 l 401 431 l 401 201 b 319 28 401 43 319 79 b 388 0 319 7 342 0 l 540 0 b 610 28 590 0 610 7 b 529 201 610 79 529 43 l 529 429 l 783 828 b 917 946 846 925 917 900 b 858 972 917 967 893 972 z "},"Ý":{"ha":919,"x_min":0,"x_max":0,"o":"m 443 1060 b 665 1179 507 1044 651 1118 b 625 1253 675 1215 653 1244 b 510 1185 589 1263 558 1231 b 422 1085 464 1139 425 1100 b 443 1060 419 1075 426 1064 z m 747 972 b 696 943 718 972 696 967 b 706 828 696 901 764 921 l 504 503 l 293 815 b 321 946 229 911 321 901 b 265 972 321 967 299 972 l 72 972 b 7 943 26 972 7 967 b 135 817 7 901 65 917 l 401 431 l 401 201 b 319 28 401 43 319 79 b 388 0 319 7 342 0 l 540 0 b 610 28 590 0 610 7 b 529 201 610 79 529 43 l 529 429 l 783 828 b 917 946 846 925 917 900 b 858 972 917 967 893 972 z "},"Ŷ":{"ha":919,"x_min":0,"x_max":0,"o":"m 335 1046 b 503 1110 371 1043 463 1081 b 671 1046 543 1081 635 1043 b 688 1064 686 1047 689 1056 b 613 1147 685 1078 650 1108 b 501 1225 544 1215 542 1225 b 392 1146 464 1225 454 1208 b 318 1064 354 1108 321 1078 b 335 1046 317 1056 319 1047 z m 747 972 b 696 943 718 972 696 967 b 706 828 696 901 764 921 l 504 503 l 293 815 b 321 946 229 911 321 901 b 265 972 321 967 299 972 l 72 972 b 7 943 26 972 7 967 b 135 817 7 901 65 917 l 401 431 l 401 201 b 319 28 401 43 319 79 b 388 0 319 7 342 0 l 540 0 b 610 28 590 0 610 7 b 529 201 610 79 529 43 l 529 429 l 783 828 b 917 946 846 925 917 900 b 858 972 917 967 893 972 z "},"Ÿ":{"ha":919,"x_min":0,"x_max":0,"o":"m 386 1078 b 474 1156 431 1078 474 1111 b 408 1219 474 1193 446 1219 b 326 1133 363 1219 326 1175 b 386 1078 326 1099 353 1078 z m 588 1078 b 675 1156 631 1078 675 1111 b 608 1219 675 1193 647 1219 b 526 1133 564 1219 526 1175 b 588 1078 526 1099 553 1078 z m 747 972 b 696 943 718 972 696 967 b 706 828 696 901 764 921 l 504 503 l 293 815 b 321 946 229 911 321 901 b 265 972 321 967 299 972 l 72 972 b 7 943 26 972 7 967 b 135 817 7 901 65 917 l 401 431 l 401 201 b 319 28 401 43 319 79 b 388 0 319 7 342 0 l 540 0 b 610 28 590 0 610 7 b 529 201 610 79 529 43 l 529 429 l 783 828 b 917 946 846 925 917 900 b 858 972 917 967 893 972 z "},"Ỳ":{"ha":919,"x_min":0,"x_max":0,"o":"m 568 1060 b 589 1085 585 1064 592 1075 b 501 1185 586 1100 547 1139 b 386 1253 453 1231 422 1263 b 346 1179 358 1244 336 1215 b 568 1060 360 1118 504 1044 z m 747 972 b 696 943 718 972 696 967 b 706 828 696 901 764 921 l 504 503 l 293 815 b 321 946 229 911 321 901 b 265 972 321 967 299 972 l 72 972 b 7 943 26 972 7 967 b 135 817 7 901 65 917 l 401 431 l 401 201 b 319 28 401 43 319 79 b 388 0 319 7 342 0 l 540 0 b 610 28 590 0 610 7 b 529 201 610 79 529 43 l 529 429 l 783 828 b 917 946 846 925 917 900 b 858 972 917 967 893 972 z "},"Z":{"ha":882,"x_min":0,"x_max":0,"o":"m 814 242 b 757 196 789 247 776 232 b 554 64 710 108 651 64 l 232 63 l 815 921 b 788 972 835 950 824 972 l 210 972 b 108 929 131 972 121 965 b 74 782 96 892 82 844 b 89 732 68 754 69 736 b 146 776 114 725 126 740 b 349 910 193 864 251 910 l 656 910 l 71 53 b 99 0 51 24 63 0 l 693 0 b 794 43 772 0 783 7 b 829 190 807 81 821 128 b 814 242 835 218 833 236 z "},"Ź":{"ha":882,"x_min":0,"x_max":0,"o":"m 383 1060 b 606 1179 447 1044 592 1118 b 565 1253 615 1215 593 1244 b 450 1185 529 1263 499 1231 b 363 1085 404 1139 365 1100 b 383 1060 360 1075 367 1064 z m 814 242 b 757 196 789 247 776 232 b 554 64 710 108 651 64 l 232 63 l 815 921 b 788 972 835 950 824 972 l 210 972 b 108 929 131 972 121 965 b 74 782 96 892 82 844 b 89 732 68 754 69 736 b 146 776 114 725 126 740 b 349 910 193 864 251 910 l 656 910 l 71 53 b 99 0 51 24 63 0 l 693 0 b 794 43 772 0 783 7 b 829 190 807 81 821 128 b 814 242 835 218 833 236 z "},"Ž":{"ha":882,"x_min":0,"x_max":0,"o":"m 332 1125 b 442 1046 394 1064 404 1046 b 553 1125 482 1046 485 1057 b 628 1207 590 1163 625 1193 b 611 1226 629 1217 626 1225 b 443 1161 575 1229 483 1192 b 275 1226 403 1192 311 1229 b 258 1207 260 1225 257 1217 b 332 1125 261 1193 294 1164 z m 814 242 b 757 196 789 247 776 232 b 554 64 710 108 651 64 l 232 63 l 815 921 b 788 972 835 950 824 972 l 210 972 b 108 929 131 972 121 965 b 74 782 96 892 82 844 b 89 732 68 754 69 736 b 146 776 114 725 126 740 b 349 910 193 864 251 910 l 656 910 l 71 53 b 99 0 51 24 63 0 l 693 0 b 794 43 772 0 783 7 b 829 190 807 81 821 128 b 814 242 835 218 833 236 z "},"Ż":{"ha":882,"x_min":0,"x_max":0,"o":"m 465 1056 b 586 1154 519 1051 582 1106 b 524 1226 588 1189 561 1224 b 403 1125 468 1233 406 1175 b 465 1056 400 1086 428 1058 z m 814 242 b 757 196 789 247 776 232 b 554 64 710 108 651 64 l 232 63 l 815 921 b 788 972 835 950 824 972 l 210 972 b 108 929 131 972 121 965 b 74 782 96 892 82 844 b 89 732 68 754 69 736 b 146 776 114 725 126 740 b 349 910 193 864 251 910 l 656 910 l 71 53 b 99 0 51 24 63 0 l 693 0 b 794 43 772 0 783 7 b 829 190 807 81 821 128 b 814 242 835 218 833 236 z "},"Ģ":{"ha":1044,"x_min":0,"x_max":0,"o":"m 539 -12 b 918 179 733 -10 918 92 l 918 307 b 968 464 918 447 968 415 b 919 492 968 485 946 492 l 713 492 b 644 463 664 492 644 485 b 790 307 644 407 790 438 l 790 174 b 571 67 790 107 672 67 b 188 536 335 67 186 269 b 513 910 188 726 307 910 b 808 731 683 910 749 814 b 869 682 832 699 847 679 b 892 731 892 685 896 703 b 854 910 878 813 865 869 b 803 983 842 968 828 983 b 739 967 779 983 771 967 b 563 986 700 967 658 986 b 54 464 267 986 54 757 b 539 -12 54 193 238 -17 z m 506 -362 b 632 -168 544 -362 632 -286 b 550 -75 632 -101 593 -75 b 479 -149 515 -75 479 -103 b 539 -257 479 -210 539 -218 b 489 -347 539 -300 489 -331 b 506 -362 489 -356 494 -362 z "},"Ķ":{"ha":965,"x_min":0,"x_max":0,"o":"m 735 835 b 885 944 828 921 885 896 b 817 972 885 965 863 972 l 675 972 b 628 943 647 972 628 965 b 642 835 628 896 719 908 l 269 488 l 269 771 b 351 944 269 929 351 893 b 283 972 351 965 329 972 l 131 972 b 61 944 81 972 61 965 b 142 771 61 893 142 929 l 142 201 b 58 28 142 43 58 79 b 128 0 58 7 81 0 l 281 0 b 349 28 329 0 349 7 b 269 201 349 79 269 43 l 269 400 l 511 626 l 717 151 b 689 32 756 65 689 68 b 758 0 689 7 713 0 l 910 0 b 964 28 944 0 964 7 b 857 150 964 72 901 51 l 604 713 z m 497 -75 b 426 -149 463 -75 426 -103 b 486 -257 426 -210 486 -218 b 436 -347 486 -300 436 -331 b 453 -362 436 -356 442 -362 b 579 -168 492 -362 579 -286 b 497 -75 579 -101 540 -75 z "},"Ļ":{"ha":767,"x_min":0,"x_max":0,"o":"m 715 244 b 661 190 697 249 682 238 b 478 64 622 103 599 64 l 390 63 b 269 131 289 63 269 82 l 269 771 b 351 944 269 929 351 893 b 283 972 351 965 329 972 l 131 972 b 61 944 81 972 61 965 b 142 771 61 893 142 929 l 142 190 b 58 28 142 35 58 79 b 128 0 58 3 81 0 l 603 0 b 715 49 692 0 706 15 b 736 197 726 88 732 131 b 715 244 738 222 736 242 z m 390 -75 b 319 -149 356 -75 319 -103 b 379 -257 319 -210 379 -218 b 329 -347 379 -300 329 -331 b 346 -362 329 -356 335 -362 b 472 -168 385 -362 472 -286 b 390 -75 472 -101 433 -75 z "},"Ņ":{"ha":1046,"x_min":0,"x_max":0,"o":"m 840 972 b 778 943 797 972 778 967 b 853 806 778 897 851 917 l 854 265 l 228 950 b 185 972 214 965 203 972 l 122 972 b 53 944 75 972 53 969 b 136 782 53 893 136 938 l 136 167 b 63 29 136 56 63 75 b 122 0 63 7 83 0 l 217 0 b 279 29 260 0 279 6 b 204 167 279 75 204 56 l 201 789 l 819 119 b 856 33 844 90 856 63 b 886 0 856 15 867 0 b 921 43 908 0 921 11 l 921 806 b 994 943 921 917 994 897 b 933 972 994 967 974 972 z m 519 -75 b 449 -149 485 -75 449 -103 b 508 -257 449 -210 508 -218 b 458 -347 508 -300 458 -331 b 475 -362 458 -356 464 -362 b 601 -168 514 -362 601 -286 b 519 -75 601 -101 563 -75 z "},"Ŗ":{"ha":910,"x_min":0,"x_max":0,"o":"m 631 400 b 826 665 756 443 826 531 b 382 972 826 826 689 972 l 128 972 b 58 944 81 972 58 969 b 142 782 58 893 142 938 l 142 201 b 58 28 142 43 58 79 b 128 0 58 7 81 0 l 281 0 b 349 28 329 0 349 7 b 269 201 349 79 269 43 l 269 356 b 397 388 269 404 307 400 b 533 322 485 376 507 369 l 626 151 b 603 32 672 69 603 68 b 671 0 603 7 626 0 l 821 0 b 875 28 856 0 875 7 b 768 146 875 72 818 54 z m 475 444 b 269 517 411 446 269 458 l 269 874 b 379 910 269 903 286 911 b 688 647 579 908 688 788 b 475 444 688 513 601 442 z m 443 -75 b 372 -149 408 -75 372 -103 b 432 -257 372 -210 432 -218 b 382 -347 432 -300 382 -331 b 399 -362 382 -356 388 -362 b 525 -168 438 -362 525 -286 b 443 -75 525 -101 486 -75 z "},"Ţ":{"ha":885,"x_min":0,"x_max":0,"o":"m 835 776 b 817 925 833 843 828 886 b 704 974 808 958 793 974 l 181 972 b 68 924 92 972 76 957 b 50 775 57 885 51 842 b 78 728 49 750 51 728 b 129 783 96 728 108 743 b 304 910 175 868 196 910 b 378 840 360 910 378 889 l 378 201 b 296 28 378 43 296 79 b 364 0 296 7 318 0 l 428 0 l 378 -93 b 394 -117 371 -106 381 -114 b 489 -192 440 -128 489 -146 b 425 -250 489 -222 468 -250 b 350 -226 390 -250 369 -237 b 328 -249 331 -214 315 -233 b 440 -293 346 -271 381 -293 b 568 -183 510 -293 568 -249 b 440 -74 568 -117 510 -86 l 478 0 l 518 0 b 586 28 567 0 586 7 b 507 201 586 79 507 43 l 507 842 b 581 911 507 890 526 911 b 756 783 689 911 710 869 b 807 729 776 743 789 729 b 835 776 833 729 836 751 z "},"Ș":{"ha":807,"x_min":0,"x_max":0,"o":"m 410 -14 b 756 272 593 -12 761 96 b 447 561 750 438 596 489 b 214 771 315 626 214 664 b 388 918 214 856 274 918 b 635 751 511 918 590 822 b 689 707 653 721 669 707 b 711 753 711 707 715 726 b 678 910 700 821 688 869 b 631 983 664 968 657 983 b 568 968 608 983 600 968 b 418 983 529 968 479 983 b 92 733 204 983 92 863 b 383 439 92 564 243 507 b 624 219 503 382 631 336 b 424 53 619 132 558 53 b 146 260 261 54 186 167 b 94 307 129 293 114 307 b 71 258 72 307 68 286 b 101 64 81 168 93 108 b 151 -12 111 6 125 -12 b 214 4 174 -12 182 4 b 410 -14 256 4 304 -14 z m 349 -362 b 475 -168 388 -362 475 -286 b 393 -75 475 -101 436 -75 b 322 -149 358 -75 322 -103 b 382 -257 322 -210 382 -218 b 332 -347 382 -300 332 -331 b 349 -362 332 -356 338 -362 z "},"Ț":{"ha":885,"x_min":0,"x_max":0,"o":"m 507 842 b 581 911 507 890 526 911 b 756 783 689 911 710 869 b 807 729 776 743 789 729 b 835 776 833 729 836 751 b 817 925 833 843 828 886 b 704 974 808 958 793 974 l 181 972 b 68 924 92 972 76 957 b 50 775 57 885 51 842 b 78 728 49 750 51 728 b 129 783 96 728 108 743 b 304 910 175 868 196 910 b 378 840 360 910 378 889 l 378 201 b 296 28 378 43 296 79 b 364 0 296 7 318 0 l 518 0 b 586 28 567 0 586 7 b 507 201 586 79 507 43 z m 394 -362 b 521 -168 433 -362 521 -286 b 439 -75 521 -101 482 -75 b 368 -149 404 -75 368 -103 b 428 -257 368 -210 428 -218 b 378 -347 428 -300 378 -331 b 394 -362 378 -356 383 -362 z "},"a":{"ha":763,"x_min":0,"x_max":0,"o":"m 721 86 b 650 161 694 86 665 90 l 586 463 b 347 679 560 583 500 679 b 88 569 221 679 121 618 b 118 538 69 542 92 521 b 307 596 176 571 228 596 b 474 406 428 596 446 517 b 324 424 421 418 382 424 b 35 199 154 424 35 332 b 301 -14 35 81 132 -14 b 536 97 382 -14 478 25 b 632 -10 549 31 567 -10 b 749 69 694 -10 749 35 b 721 86 749 85 736 86 z m 333 56 b 163 214 229 56 167 124 b 349 365 161 307 226 365 b 489 319 392 365 483 353 b 518 190 501 258 513 222 b 333 56 529 129 429 56 z "},"á":{"ha":763,"x_min":0,"x_max":0,"o":"m 281 758 b 513 861 340 736 492 803 b 481 939 526 897 508 928 b 360 881 443 951 410 922 b 265 783 310 835 272 799 b 281 758 263 775 264 764 z m 721 86 b 650 161 694 86 665 90 l 586 463 b 347 679 560 583 500 679 b 88 569 221 679 121 618 b 118 538 69 542 92 521 b 307 596 176 571 228 596 b 474 406 428 596 446 517 b 324 424 421 418 382 424 b 35 199 154 424 35 332 b 301 -14 35 81 132 -14 b 536 97 382 -14 478 25 b 632 -10 549 31 567 -10 b 749 69 694 -10 749 35 b 721 86 749 85 736 86 z m 333 56 b 163 214 229 56 167 124 b 349 365 161 307 226 365 b 489 319 392 365 483 353 b 518 190 501 258 513 222 b 333 56 529 129 429 56 z "},"ă":{"ha":763,"x_min":0,"x_max":0,"o":"m 360 746 b 532 901 464 746 528 818 b 514 932 533 921 526 932 b 494 917 507 932 503 928 b 361 843 461 869 422 843 b 228 917 299 843 260 871 b 207 932 221 928 214 932 b 189 901 194 932 188 921 b 360 746 193 821 249 746 z m 721 86 b 650 161 694 86 665 90 l 586 463 b 347 679 560 583 500 679 b 88 569 221 679 121 618 b 118 538 69 542 92 521 b 307 596 176 571 228 596 b 474 406 428 596 446 517 b 324 424 421 418 382 424 b 35 199 154 424 35 332 b 301 -14 35 81 132 -14 b 536 97 382 -14 478 25 b 632 -10 549 31 567 -10 b 749 69 694 -10 749 35 b 721 86 749 85 736 86 z m 333 56 b 163 214 229 56 167 124 b 349 365 161 307 226 365 b 489 319 392 365 483 353 b 518 190 501 258 513 222 b 333 56 529 129 429 56 z "},"â":{"ha":763,"x_min":0,"x_max":0,"o":"m 226 749 b 371 839 263 747 331 796 b 517 749 413 796 481 747 b 535 768 532 750 535 758 b 468 869 533 781 501 819 b 374 949 424 936 421 949 b 271 864 331 949 321 935 b 208 768 235 817 210 781 b 226 749 208 758 211 750 z m 721 86 b 650 161 694 86 665 90 l 586 463 b 347 679 560 583 500 679 b 88 569 221 679 121 618 b 118 538 69 542 92 521 b 307 596 176 571 228 596 b 474 406 428 596 446 517 b 324 424 421 418 382 424 b 35 199 154 424 35 332 b 301 -14 35 81 132 -14 b 536 97 382 -14 478 25 b 632 -10 549 31 567 -10 b 749 69 694 -10 749 35 b 721 86 749 85 736 86 z m 333 56 b 163 214 229 56 167 124 b 349 365 161 307 226 365 b 489 319 392 365 483 353 b 518 190 501 258 513 222 b 333 56 529 129 429 56 z "},"ä":{"ha":763,"x_min":0,"x_max":0,"o":"m 251 789 b 339 868 296 789 339 824 b 274 932 339 906 313 932 b 192 846 228 932 192 888 b 251 789 192 811 218 789 z m 453 789 b 540 868 497 789 540 824 b 475 932 540 906 513 932 b 393 846 429 932 393 888 b 453 789 393 811 419 789 z m 721 86 b 650 161 694 86 665 90 l 586 463 b 347 679 560 583 500 679 b 88 569 221 679 121 618 b 118 538 69 542 92 521 b 307 596 176 571 228 596 b 474 406 428 596 446 517 b 324 424 421 418 382 424 b 35 199 154 424 35 332 b 301 -14 35 81 132 -14 b 536 97 382 -14 478 25 b 632 -10 549 31 567 -10 b 749 69 694 -10 749 35 b 721 86 749 85 736 86 z m 333 56 b 163 214 229 56 167 124 b 349 365 161 307 226 365 b 489 319 392 365 483 353 b 518 190 501 258 513 222 b 333 56 529 129 429 56 z "},"à":{"ha":763,"x_min":0,"x_max":0,"o":"m 482 758 b 497 783 499 764 500 775 b 404 881 490 799 453 835 b 283 939 353 922 319 951 b 250 861 254 928 236 897 b 482 758 271 803 422 736 z m 721 86 b 650 161 694 86 665 90 l 586 463 b 347 679 560 583 500 679 b 88 569 221 679 121 618 b 118 538 69 542 92 521 b 307 596 176 571 228 596 b 474 406 428 596 446 517 b 324 424 421 418 382 424 b 35 199 154 424 35 332 b 301 -14 35 81 132 -14 b 536 97 382 -14 478 25 b 632 -10 549 31 567 -10 b 749 69 694 -10 749 35 b 721 86 749 85 736 86 z m 333 56 b 163 214 229 56 167 124 b 349 365 161 307 226 365 b 489 319 392 365 483 353 b 518 190 501 258 513 222 b 333 56 529 129 429 56 z "},"ā":{"ha":763,"x_min":0,"x_max":0,"o":"m 511 771 b 557 807 550 771 554 781 b 521 840 560 831 558 840 l 206 840 b 161 806 168 840 164 831 b 196 771 158 781 158 771 z m 721 86 b 650 161 694 86 665 90 l 586 463 b 347 679 560 583 500 679 b 88 569 221 679 121 618 b 118 538 69 542 92 521 b 307 596 176 571 228 596 b 474 406 428 596 446 517 b 324 424 421 418 382 424 b 35 199 154 424 35 332 b 301 -14 35 81 132 -14 b 536 97 382 -14 478 25 b 632 -10 549 31 567 -10 b 749 69 694 -10 749 35 b 721 86 749 85 736 86 z m 333 56 b 163 214 229 56 167 124 b 349 365 161 307 226 365 b 489 319 392 365 483 353 b 518 190 501 258 513 222 b 333 56 529 129 429 56 z "},"ą":{"ha":763,"x_min":0,"x_max":0,"o":"m 701 -190 b 644 -203 685 -197 661 -203 b 564 -128 592 -203 564 -174 b 621 -10 564 -94 581 -54 l 632 -10 b 749 69 694 -10 749 35 b 721 86 749 85 736 86 b 650 161 694 86 665 90 l 586 463 b 347 679 560 583 500 679 b 88 569 221 679 121 618 b 118 538 69 542 92 521 b 307 596 176 571 228 596 b 474 406 428 596 446 517 b 324 424 421 418 382 424 b 35 199 154 424 35 332 b 301 -14 35 81 132 -14 b 536 97 382 -14 478 25 b 583 1 544 51 556 18 b 476 -144 519 -40 476 -87 b 611 -254 476 -215 539 -254 b 721 -215 646 -254 692 -243 b 701 -190 736 -201 729 -178 z m 333 56 b 163 214 229 56 167 124 b 349 365 161 307 226 365 b 489 319 392 365 483 353 b 518 190 501 258 513 222 b 333 56 529 129 429 56 z "},"å":{"ha":763,"x_min":0,"x_max":0,"o":"m 364 739 b 501 868 439 739 501 789 b 369 993 501 944 443 993 b 232 864 293 993 232 942 b 364 739 232 789 289 739 z m 364 942 b 436 871 403 942 431 911 b 371 793 439 829 414 793 b 296 865 331 793 301 824 b 364 942 293 910 319 942 z m 721 86 b 650 161 694 86 665 90 l 586 463 b 347 679 560 583 500 679 b 88 569 221 679 121 618 b 118 538 69 542 92 521 b 307 596 176 571 228 596 b 474 406 428 596 446 517 b 324 424 421 418 382 424 b 35 199 154 424 35 332 b 301 -14 35 81 132 -14 b 536 97 382 -14 478 25 b 632 -10 549 31 567 -10 b 749 69 694 -10 749 35 b 721 86 749 85 736 86 z m 333 56 b 163 214 229 56 167 124 b 349 365 161 307 226 365 b 489 319 392 365 483 353 b 518 190 501 258 513 222 b 333 56 529 129 429 56 z "},"ã":{"ha":763,"x_min":0,"x_max":0,"o":"m 192 769 b 240 810 192 797 208 810 b 465 751 310 810 400 751 b 563 836 526 751 563 788 b 522 872 563 888 522 907 b 474 832 522 846 507 832 b 247 890 426 832 336 890 b 151 807 186 890 151 856 b 192 769 151 756 192 736 z m 721 86 b 650 161 694 86 665 90 l 586 463 b 347 679 560 583 500 679 b 88 569 221 679 121 618 b 118 538 69 542 92 521 b 307 596 176 571 228 596 b 474 406 428 596 446 517 b 324 424 421 418 382 424 b 35 199 154 424 35 332 b 301 -14 35 81 132 -14 b 536 97 382 -14 478 25 b 632 -10 549 31 567 -10 b 749 69 694 -10 749 35 b 721 86 749 85 736 86 z m 333 56 b 163 214 229 56 167 124 b 349 365 161 307 226 365 b 489 319 392 365 483 353 b 518 190 501 258 513 222 b 333 56 529 129 429 56 z "},"æ":{"ha":1206,"x_min":0,"x_max":0,"o":"m 1118 179 b 899 81 1068 126 992 81 b 665 256 769 81 692 175 b 1122 417 825 308 972 358 b 1156 474 1154 429 1161 449 b 876 681 1129 593 1029 681 b 614 564 768 681 676 636 b 386 679 576 633 503 679 b 128 569 263 679 161 618 b 158 538 108 540 132 521 b 340 593 217 571 267 593 b 524 389 460 593 522 538 b 328 425 449 421 368 425 b 35 199 154 425 35 332 b 286 -14 35 78 133 -14 b 563 149 400 -14 506 39 b 849 -14 615 50 717 -14 b 1158 154 1025 -14 1129 86 b 1118 179 1172 189 1142 204 z m 833 615 b 1004 474 910 618 992 560 b 978 426 1008 449 1000 435 b 654 314 878 388 768 351 b 646 399 649 338 646 364 b 833 615 646 500 710 614 z m 521 201 b 333 63 519 142 428 63 b 161 213 225 63 164 122 b 350 365 157 307 236 365 b 521 306 439 365 521 336 z "},"b":{"ha":838,"x_min":0,"x_max":0,"o":"m 481 681 b 247 558 376 681 293 625 l 247 764 l 249 956 b 221 986 249 981 239 988 b 92 940 201 985 153 969 b 51 904 58 925 51 918 b 121 764 51 861 121 886 l 121 144 b 113 32 121 106 119 68 b 136 -3 108 11 117 -3 b 247 40 176 -3 204 39 b 468 -14 294 40 331 -14 b 788 358 644 -14 788 150 b 481 681 788 551 657 681 z m 469 47 b 249 283 346 47 249 164 l 247 396 b 438 597 247 463 303 597 b 663 301 554 597 663 486 b 469 47 663 140 588 47 z "},"":{"ha":838,"x_min":0,"x_max":0,"o":"m 481 681 b 247 558 376 681 293 625 l 247 764 l 249 956 b 221 986 249 981 239 988 b 92 940 201 985 153 969 b 51 904 58 925 51 918 b 121 764 51 861 121 886 l 121 144 b 113 32 121 106 119 68 b 136 -3 108 11 117 -3 b 247 40 176 -3 204 39 b 468 -14 294 40 331 -14 b 788 358 644 -14 788 150 b 481 681 788 551 657 681 z m 469 47 b 249 283 346 47 249 164 l 247 396 b 438 597 247 463 303 597 b 663 301 554 597 663 486 b 469 47 663 140 588 47 z "},"c":{"ha":717,"x_min":0,"x_max":0,"o":"m 372 -14 b 671 153 550 -14 642 83 b 631 178 685 188 654 201 b 426 79 581 125 518 79 b 171 382 274 79 171 199 b 363 615 171 515 242 615 b 533 450 461 613 507 543 b 604 379 544 413 561 379 b 669 454 642 379 669 407 b 400 679 669 564 572 679 b 49 310 201 679 49 519 b 372 -14 49 131 176 -14 z "},"ć":{"ha":717,"x_min":0,"x_max":0,"o":"m 319 771 b 551 874 379 749 531 815 b 519 951 565 910 547 940 b 399 893 482 964 449 935 b 304 796 349 847 311 811 b 319 771 301 788 303 776 z m 372 -14 b 671 153 550 -14 642 83 b 631 178 685 188 654 201 b 426 79 581 125 518 79 b 171 382 274 79 171 199 b 363 615 171 515 242 615 b 533 450 461 613 507 543 b 604 379 544 413 561 379 b 669 454 642 379 669 407 b 400 679 669 564 572 679 b 49 310 201 679 49 519 b 372 -14 49 131 176 -14 z "},"č":{"ha":717,"x_min":0,"x_max":0,"o":"m 238 957 b 219 938 222 956 219 947 b 282 842 221 925 246 889 b 385 757 332 771 342 757 b 479 836 432 757 435 769 b 546 938 513 886 544 925 b 528 957 546 947 543 956 b 382 868 492 960 424 910 b 238 957 342 910 274 960 z m 372 -14 b 671 153 550 -14 642 83 b 631 178 685 188 654 201 b 426 79 581 125 518 79 b 171 382 274 79 171 199 b 363 615 171 515 242 615 b 533 450 461 613 507 543 b 604 379 544 413 561 379 b 669 454 642 379 669 407 b 400 679 669 564 572 679 b 49 310 201 679 49 519 b 372 -14 49 131 176 -14 z "},"ç":{"ha":717,"x_min":0,"x_max":0,"o":"m 631 178 b 426 79 581 125 518 79 b 171 382 274 79 171 199 b 363 615 171 515 242 615 b 533 450 461 613 507 543 b 604 379 544 413 561 379 b 669 454 642 379 669 407 b 400 679 669 564 572 679 b 49 310 201 679 49 519 b 346 -12 49 139 165 0 l 303 -93 b 319 -117 296 -106 306 -114 b 414 -192 365 -128 414 -146 b 350 -250 414 -222 393 -250 b 275 -226 315 -250 294 -237 b 253 -249 256 -214 240 -233 b 365 -293 271 -271 306 -293 b 493 -183 435 -293 493 -249 b 365 -74 493 -117 435 -86 l 396 -14 b 671 153 558 -6 643 86 b 631 178 685 188 654 201 z "},"ċ":{"ha":717,"x_min":0,"x_max":0,"o":"m 374 757 b 494 856 428 753 490 807 b 432 928 496 890 469 925 b 311 826 376 935 314 876 b 374 757 308 788 336 760 z m 372 -14 b 671 153 550 -14 642 83 b 631 178 685 188 654 201 b 426 79 581 125 518 79 b 171 382 274 79 171 199 b 363 615 171 515 242 615 b 533 450 461 613 507 543 b 604 379 544 413 561 379 b 669 454 642 379 669 407 b 400 679 669 564 572 679 b 49 310 201 679 49 519 b 372 -14 49 131 176 -14 z "},"d":{"ha":815,"x_min":0,"x_max":0,"o":"m 715 956 b 689 986 715 981 706 988 b 558 940 668 985 621 969 b 519 904 525 925 519 918 b 588 764 519 861 588 885 l 588 614 b 394 681 535 660 463 681 b 49 307 214 681 49 524 b 346 -14 49 129 164 -12 b 589 108 456 -15 540 39 l 590 58 b 638 -14 592 11 604 -14 b 760 28 671 -14 725 8 b 796 68 785 42 796 54 b 713 182 796 108 713 78 l 714 764 z m 393 75 b 172 372 290 75 172 171 b 364 613 172 511 244 613 b 543 501 443 613 503 574 b 586 319 575 449 583 376 l 586 250 b 393 75 576 168 508 75 z "},"ď":{"ha":815,"x_min":0,"x_max":0,"o":"m 346 -14 b 589 108 456 -15 540 39 l 590 58 b 638 -14 592 11 604 -14 b 760 28 671 -14 725 8 b 796 68 785 42 796 54 b 713 182 796 108 713 78 l 714 764 l 715 956 b 689 986 715 981 706 988 b 558 940 668 985 621 969 b 519 904 525 925 519 918 b 588 764 519 861 588 885 l 588 614 b 394 681 535 660 463 681 b 49 307 214 681 49 524 b 346 -14 49 129 164 -12 z m 838 674 b 949 913 876 674 949 861 b 896 974 949 956 924 974 b 838 907 865 974 840 953 l 819 697 b 838 674 817 683 825 674 z m 393 75 b 172 372 290 75 172 171 b 364 613 172 511 244 613 b 543 501 443 613 503 574 b 586 319 575 449 583 376 l 586 250 b 393 75 576 168 508 75 z "},"đ":{"ha":815,"x_min":0,"x_max":0,"o":"m 765 731 b 792 760 785 731 792 742 b 765 788 792 778 785 788 l 714 788 l 715 956 b 689 986 715 981 706 988 b 558 940 668 985 621 969 b 519 904 525 925 519 918 b 586 788 519 864 578 882 l 503 788 b 476 760 483 788 476 778 b 503 731 476 742 483 731 l 588 731 l 588 614 b 394 681 535 660 463 681 b 49 307 214 681 49 524 b 346 -14 49 129 164 -12 b 589 108 456 -15 540 39 l 590 58 b 638 -14 592 11 604 -14 b 760 28 671 -14 725 8 b 796 68 785 42 796 54 b 713 182 796 108 713 78 l 714 731 z m 393 75 b 172 372 290 75 172 171 b 364 613 172 511 244 613 b 543 501 443 613 503 574 b 586 319 575 449 583 376 l 586 250 b 393 75 576 168 508 75 z "},"ð":{"ha":786,"x_min":0,"x_max":0,"o":"m 735 382 b 451 886 733 582 608 776 l 496 911 b 508 953 513 919 515 933 b 479 967 504 969 494 975 l 397 919 b 197 975 332 956 263 975 b 150 950 164 975 150 965 b 181 928 150 935 163 933 b 308 867 226 913 269 892 l 250 833 b 236 794 233 825 231 813 b 268 779 242 776 251 769 l 358 832 b 532 624 439 769 499 693 b 368 672 479 660 431 674 b 49 333 183 672 49 517 b 376 -14 49 125 185 -14 b 735 382 589 -14 736 140 z m 424 57 b 171 378 274 57 171 219 b 367 614 171 503 244 614 b 618 288 514 614 618 446 b 424 57 618 164 544 57 z "},"e":{"ha":729,"x_min":0,"x_max":0,"o":"m 643 179 b 424 81 593 126 517 81 b 189 256 294 81 215 175 b 647 417 350 308 497 358 b 679 474 679 429 685 449 b 401 681 654 593 553 681 b 49 310 196 681 49 519 b 374 -14 49 126 179 -14 b 683 154 549 -14 654 86 b 643 179 697 189 667 204 z m 358 615 b 529 474 435 618 515 560 b 503 426 533 449 525 435 b 179 314 401 388 293 351 b 171 399 172 338 171 364 b 358 615 171 500 233 614 z "},"é":{"ha":729,"x_min":0,"x_max":0,"o":"m 282 758 b 514 861 342 736 493 803 b 482 939 528 897 510 928 b 361 881 444 951 411 922 b 267 783 311 835 274 799 b 282 758 264 775 265 764 z m 643 179 b 424 81 593 126 517 81 b 189 256 294 81 215 175 b 647 417 350 308 497 358 b 679 474 679 429 685 449 b 401 681 654 593 553 681 b 49 310 196 681 49 519 b 374 -14 49 126 179 -14 b 683 154 549 -14 654 86 b 643 179 697 189 667 204 z m 358 615 b 529 474 435 618 515 560 b 503 426 533 449 525 435 b 179 314 401 388 293 351 b 171 399 172 338 171 364 b 358 615 171 500 233 614 z "},"ě":{"ha":729,"x_min":0,"x_max":0,"o":"m 375 744 b 469 824 422 744 425 757 b 536 925 503 874 535 913 b 518 944 536 935 533 943 b 372 856 482 947 414 897 b 228 944 332 897 264 947 b 210 925 213 943 210 935 b 272 829 211 913 236 876 b 375 744 322 758 332 744 z m 643 179 b 424 81 593 126 517 81 b 189 256 294 81 215 175 b 647 417 350 308 497 358 b 679 474 679 429 685 449 b 401 681 654 593 553 681 b 49 310 196 681 49 519 b 374 -14 49 126 179 -14 b 683 154 549 -14 654 86 b 643 179 697 189 667 204 z m 358 615 b 529 474 435 618 515 560 b 503 426 533 449 525 435 b 179 314 401 388 293 351 b 171 399 172 338 171 364 b 358 615 171 500 233 614 z "},"ê":{"ha":729,"x_min":0,"x_max":0,"o":"m 228 749 b 372 839 264 747 332 796 b 518 749 414 796 482 747 b 536 768 533 750 536 758 b 469 869 535 781 503 819 b 375 949 425 936 422 949 b 272 864 332 949 322 935 b 210 768 236 817 211 781 b 228 749 210 758 213 750 z m 643 179 b 424 81 593 126 517 81 b 189 256 294 81 215 175 b 647 417 350 308 497 358 b 679 474 679 429 685 449 b 401 681 654 593 553 681 b 49 310 196 681 49 519 b 374 -14 49 126 179 -14 b 683 154 549 -14 654 86 b 643 179 697 189 667 204 z m 358 615 b 529 474 435 618 515 560 b 503 426 533 449 525 435 b 179 314 401 388 293 351 b 171 399 172 338 171 364 b 358 615 171 500 233 614 z "},"ë":{"ha":729,"x_min":0,"x_max":0,"o":"m 253 789 b 340 868 297 789 340 824 b 275 932 340 906 314 932 b 193 846 229 932 193 888 b 253 789 193 811 219 789 z m 454 789 b 542 868 499 789 542 824 b 476 932 542 906 514 932 b 394 846 431 932 394 888 b 454 789 394 811 421 789 z m 643 179 b 424 81 593 126 517 81 b 189 256 294 81 215 175 b 647 417 350 308 497 358 b 679 474 679 429 685 449 b 401 681 654 593 553 681 b 49 310 196 681 49 519 b 374 -14 49 126 179 -14 b 683 154 549 -14 654 86 b 643 179 697 189 667 204 z m 358 615 b 529 474 435 618 515 560 b 503 426 533 449 525 435 b 179 314 401 388 293 351 b 171 399 172 338 171 364 b 358 615 171 500 233 614 z "},"ė":{"ha":729,"x_min":0,"x_max":0,"o":"m 336 758 b 457 857 390 754 453 808 b 394 929 458 892 432 926 b 274 828 339 936 276 878 b 336 758 271 789 299 761 z m 643 179 b 424 81 593 126 517 81 b 189 256 294 81 215 175 b 647 417 350 308 497 358 b 679 474 679 429 685 449 b 401 681 654 593 553 681 b 49 310 196 681 49 519 b 374 -14 49 126 179 -14 b 683 154 549 -14 654 86 b 643 179 697 189 667 204 z m 358 615 b 529 474 435 618 515 560 b 503 426 533 449 525 435 b 179 314 401 388 293 351 b 171 399 172 338 171 364 b 358 615 171 500 233 614 z "},"è":{"ha":729,"x_min":0,"x_max":0,"o":"m 483 758 b 499 783 500 764 501 775 b 406 881 492 799 454 835 b 285 939 354 922 321 951 b 251 861 256 928 238 897 b 483 758 272 803 424 736 z m 643 179 b 424 81 593 126 517 81 b 189 256 294 81 215 175 b 647 417 350 308 497 358 b 679 474 679 429 685 449 b 401 681 654 593 553 681 b 49 310 196 681 49 519 b 374 -14 49 126 179 -14 b 683 154 549 -14 654 86 b 643 179 697 189 667 204 z m 358 615 b 529 474 435 618 515 560 b 503 426 533 449 525 435 b 179 314 401 388 293 351 b 171 399 172 338 171 364 b 358 615 171 500 233 614 z "},"ē":{"ha":729,"x_min":0,"x_max":0,"o":"m 513 771 b 558 807 551 771 556 781 b 522 840 561 831 560 840 l 207 840 b 163 806 169 840 165 831 b 197 771 160 781 160 771 z m 643 179 b 424 81 593 126 517 81 b 189 256 294 81 215 175 b 647 417 350 308 497 358 b 679 474 679 429 685 449 b 401 681 654 593 553 681 b 49 310 196 681 49 519 b 374 -14 49 126 179 -14 b 683 154 549 -14 654 86 b 643 179 697 189 667 204 z m 358 615 b 529 474 435 618 515 560 b 503 426 533 449 525 435 b 179 314 401 388 293 351 b 171 399 172 338 171 364 b 358 615 171 500 233 614 z "},"ę":{"ha":729,"x_min":0,"x_max":0,"o":"m 683 154 b 643 179 697 189 667 204 b 424 81 593 126 517 81 b 189 256 294 81 215 175 b 647 417 350 308 497 358 b 679 474 679 429 685 449 b 401 681 654 593 553 681 b 49 310 196 681 49 519 b 374 -14 49 126 179 -14 b 472 -3 410 -14 442 -10 b 428 -99 444 -32 428 -64 b 563 -208 428 -169 490 -208 b 672 -169 597 -208 643 -197 b 653 -144 688 -156 681 -132 b 596 -157 636 -151 613 -157 b 515 -82 543 -157 515 -128 b 574 39 515 -49 532 -7 b 683 154 631 74 668 118 z m 358 615 b 529 474 435 618 515 560 b 503 426 533 449 525 435 b 179 314 401 388 293 351 b 171 399 172 338 171 364 b 358 615 171 500 233 614 z "},"f":{"ha":501,"x_min":0,"x_max":0,"o":"m 328 915 b 413 824 376 915 397 883 b 469 775 421 796 439 775 b 531 843 504 775 531 804 b 371 986 531 915 478 986 b 149 667 236 986 149 899 l 113 667 b 65 638 89 667 71 664 b 108 606 61 608 85 607 l 149 604 l 149 182 b 82 28 149 47 82 69 b 136 0 82 6 104 0 l 311 0 b 365 26 344 0 365 6 b 272 182 365 76 272 38 l 272 600 l 422 596 b 475 632 446 594 468 597 b 431 667 482 665 454 667 l 272 667 b 239 785 247 667 239 742 b 328 915 239 876 281 915 z "},"g":{"ha":764,"x_min":0,"x_max":0,"o":"m 546 94 b 336 85 497 94 414 85 b 174 167 257 85 174 101 b 210 224 174 192 192 211 b 343 200 247 208 292 200 b 650 460 529 201 650 313 b 571 622 650 522 622 581 b 686 733 632 638 686 679 b 636 783 686 764 661 783 b 589 753 617 783 603 769 b 483 675 556 703 515 675 b 397 681 456 675 440 679 l 385 681 b 68 419 207 679 68 569 b 164 247 68 349 101 288 b 54 126 82 217 54 165 b 140 6 54 67 96 28 b 47 -119 76 -22 47 -76 b 358 -294 47 -243 203 -294 b 751 -61 613 -294 751 -197 b 546 94 751 25 682 94 z m 354 625 b 521 425 463 625 519 529 b 367 257 521 331 463 257 b 194 458 263 257 196 349 b 354 625 194 558 264 625 z m 392 -236 b 168 -114 258 -236 168 -193 b 283 -24 168 -54 228 -24 b 493 -17 372 -24 439 -19 b 628 -106 604 -10 628 -62 b 392 -236 628 -192 528 -236 z "},"ğ":{"ha":764,"x_min":0,"x_max":0,"o":"m 382 746 b 554 901 486 746 550 818 b 536 932 556 921 549 932 b 517 917 529 932 525 928 b 383 843 483 869 444 843 b 250 917 321 843 282 871 b 229 932 243 928 236 932 b 211 901 217 932 210 921 b 382 746 215 821 271 746 z m 546 94 b 336 85 497 94 414 85 b 174 167 257 85 174 101 b 210 224 174 192 192 211 b 343 200 247 208 292 200 b 650 460 529 201 650 313 b 571 622 650 522 622 581 b 686 733 632 638 686 679 b 636 783 686 764 661 783 b 589 753 617 783 603 769 b 483 675 556 703 515 675 b 397 681 456 675 440 679 l 385 681 b 68 419 207 679 68 569 b 164 247 68 349 101 288 b 54 126 82 217 54 165 b 140 6 54 67 96 28 b 47 -119 76 -22 47 -76 b 358 -294 47 -243 203 -294 b 751 -61 613 -294 751 -197 b 546 94 751 25 682 94 z m 354 625 b 521 425 463 625 519 529 b 367 257 521 331 463 257 b 194 458 263 257 196 349 b 354 625 194 558 264 625 z m 392 -236 b 168 -114 258 -236 168 -193 b 283 -24 168 -54 228 -24 b 493 -17 372 -24 439 -19 b 628 -106 604 -10 628 -62 b 392 -236 628 -192 528 -236 z "},"ġ":{"ha":764,"x_min":0,"x_max":0,"o":"m 361 757 b 482 856 415 753 478 807 b 419 928 483 890 457 925 b 299 826 364 935 301 876 b 361 757 296 788 324 760 z m 546 94 b 336 85 497 94 414 85 b 174 167 257 85 174 101 b 210 224 174 192 192 211 b 343 200 247 208 292 200 b 650 460 529 201 650 313 b 571 622 650 522 622 581 b 686 733 632 638 686 679 b 636 783 686 764 661 783 b 589 753 617 783 603 769 b 483 675 556 703 515 675 b 397 681 456 675 440 679 l 385 681 b 68 419 207 679 68 569 b 164 247 68 349 101 288 b 54 126 82 217 54 165 b 140 6 54 67 96 28 b 47 -119 76 -22 47 -76 b 358 -294 47 -243 203 -294 b 751 -61 613 -294 751 -197 b 546 94 751 25 682 94 z m 354 625 b 521 425 463 625 519 529 b 367 257 521 331 463 257 b 194 458 263 257 196 349 b 354 625 194 558 264 625 z m 392 -236 b 168 -114 258 -236 168 -193 b 283 -24 168 -54 228 -24 b 493 -17 372 -24 439 -19 b 628 -106 604 -10 628 -62 b 392 -236 628 -192 528 -236 z "},"h":{"ha":869,"x_min":0,"x_max":0,"o":"m 738 389 b 490 681 701 603 629 681 b 260 550 406 681 317 638 l 260 764 l 261 956 b 233 986 261 981 251 988 b 104 940 213 985 165 969 b 64 904 71 925 64 918 b 132 764 64 861 132 886 l 133 183 b 65 28 133 50 65 75 b 121 0 65 6 89 0 l 269 0 b 324 26 304 0 324 6 b 260 183 324 75 260 50 l 260 344 b 446 596 260 514 356 594 b 614 379 572 597 596 489 l 654 149 b 597 28 669 58 597 68 b 653 0 597 6 619 0 l 800 0 b 854 26 835 0 854 6 b 781 144 854 68 797 58 z "},"ħ":{"ha":869,"x_min":0,"x_max":0,"o":"m 738 389 b 490 681 701 603 629 681 b 260 550 406 681 317 638 l 260 728 l 344 728 b 371 757 364 728 371 739 b 344 785 371 775 364 785 l 260 785 l 261 956 b 233 986 261 981 251 988 b 104 940 213 985 165 969 b 64 904 71 925 64 918 b 131 785 64 864 124 883 l 82 785 b 56 757 63 785 56 775 b 82 728 56 739 63 728 l 132 728 l 133 183 b 65 28 133 50 65 75 b 121 0 65 6 89 0 l 269 0 b 324 26 304 0 324 6 b 260 183 324 75 260 50 l 260 344 b 446 596 260 514 356 594 b 614 379 572 597 596 489 l 654 149 b 597 28 669 58 597 68 b 653 0 597 6 619 0 l 800 0 b 854 26 835 0 854 6 b 781 144 854 68 797 58 z "},"i":{"ha":397,"x_min":0,"x_max":0,"o":"m 151 785 b 272 883 206 781 268 835 b 210 956 274 918 247 953 b 89 854 154 963 92 904 b 151 785 86 815 114 788 z m 139 183 b 72 28 139 50 72 75 b 128 0 72 6 94 0 l 276 0 b 331 26 310 0 331 6 b 265 183 331 75 265 50 l 265 458 l 267 650 b 239 681 267 675 257 682 b 110 635 219 679 172 664 b 71 599 76 619 71 613 b 139 458 71 556 139 579 z "},"ı":{"ha":397,"x_min":0,"x_max":0,"o":"m 139 183 b 72 28 139 50 72 75 b 128 0 72 6 94 0 l 276 0 b 331 26 310 0 331 6 b 265 183 331 75 265 50 l 265 458 l 267 650 b 239 681 267 675 257 682 b 110 635 219 679 172 664 b 71 599 76 619 71 613 b 139 458 71 556 139 579 z "},"í":{"ha":397,"x_min":0,"x_max":0,"o":"m 97 758 b 329 861 157 736 308 803 b 297 939 343 897 325 928 b 176 881 260 951 226 922 b 82 783 126 835 89 799 b 97 758 79 775 81 764 z m 139 183 b 72 28 139 50 72 75 b 128 0 72 6 94 0 l 276 0 b 331 26 310 0 331 6 b 265 183 331 75 265 50 l 265 458 l 267 650 b 239 681 267 675 257 682 b 110 635 219 679 172 664 b 71 599 76 619 71 613 b 139 458 71 556 139 579 z "},"î":{"ha":397,"x_min":0,"x_max":0,"o":"m 43 749 b 188 839 79 747 147 796 b 333 749 229 796 297 747 b 351 768 349 750 351 758 b 285 869 350 781 318 819 b 190 949 240 936 238 949 b 88 864 147 949 138 935 b 25 768 51 817 26 781 b 43 749 25 758 28 750 z m 139 183 b 72 28 139 50 72 75 b 128 0 72 6 94 0 l 276 0 b 331 26 310 0 331 6 b 265 183 331 75 265 50 l 265 458 l 267 650 b 239 681 267 675 257 682 b 110 635 219 679 172 664 b 71 599 76 619 71 613 b 139 458 71 556 139 579 z "},"ï":{"ha":397,"x_min":0,"x_max":0,"o":"m 68 789 b 156 868 113 789 156 824 b 90 932 156 906 129 932 b 8 846 44 932 8 888 b 68 789 8 811 35 789 z m 269 789 b 357 868 314 789 357 824 b 292 932 357 906 329 932 b 210 846 246 932 210 888 b 269 789 210 811 236 789 z m 139 183 b 72 28 139 50 72 75 b 128 0 72 6 94 0 l 276 0 b 331 26 310 0 331 6 b 265 183 331 75 265 50 l 265 458 l 267 650 b 239 681 267 675 257 682 b 110 635 219 679 172 664 b 71 599 76 619 71 613 b 139 458 71 556 139 579 z "},"ì":{"ha":397,"x_min":0,"x_max":0,"o":"m 299 758 b 314 783 315 764 317 775 b 221 881 307 799 269 835 b 100 939 169 922 136 951 b 67 861 71 928 53 897 b 299 758 88 803 239 736 z m 139 183 b 72 28 139 50 72 75 b 128 0 72 6 94 0 l 276 0 b 331 26 310 0 331 6 b 265 183 331 75 265 50 l 265 458 l 267 650 b 239 681 267 675 257 682 b 110 635 219 679 172 664 b 71 599 76 619 71 613 b 139 458 71 556 139 579 z "},"ī":{"ha":397,"x_min":0,"x_max":0,"o":"m 328 771 b 374 807 367 771 371 781 b 338 840 376 831 375 840 l 22 840 b -22 806 -15 840 -19 831 b 13 771 -25 781 -25 771 z m 139 183 b 72 28 139 50 72 75 b 128 0 72 6 94 0 l 276 0 b 331 26 310 0 331 6 b 265 183 331 75 265 50 l 265 458 l 267 650 b 239 681 267 675 257 682 b 110 635 219 679 172 664 b 71 599 76 619 71 613 b 139 458 71 556 139 579 z "},"į":{"ha":397,"x_min":0,"x_max":0,"o":"m 151 785 b 272 883 206 781 268 835 b 210 956 274 918 247 953 b 89 854 154 963 92 904 b 151 785 86 815 114 788 z m 276 0 b 331 26 310 0 331 6 b 265 183 331 75 265 50 l 265 458 l 267 650 b 239 681 267 675 257 682 b 110 635 219 679 172 664 b 71 599 76 619 71 613 b 139 458 71 556 139 579 l 139 183 b 72 28 139 50 72 75 b 128 0 72 6 94 0 l 186 0 b 61 -158 113 -46 61 -96 b 196 -268 61 -229 124 -268 b 306 -229 231 -268 276 -257 b 286 -204 321 -215 314 -192 b 229 -217 269 -211 246 -217 b 149 -142 176 -217 149 -187 b 228 0 149 -103 171 -54 z "},"j":{"ha":379,"x_min":0,"x_max":0,"o":"m 185 785 b 306 883 239 781 301 835 b 243 956 307 918 281 953 b 122 854 188 963 125 904 b 185 785 119 815 147 788 z m 156 -33 b 36 -226 156 -157 139 -226 b 117 -293 -18 -226 -1 -293 b 282 -92 218 -293 282 -225 l 282 -33 l 283 460 l 285 651 b 257 682 285 676 275 683 b 128 636 236 681 189 665 b 88 600 94 621 88 614 b 156 460 88 557 156 581 z "},"ȷ":{"ha":379,"x_min":0,"x_max":0,"o":"m 156 -33 b 36 -226 156 -157 139 -226 b 117 -293 -18 -226 -1 -293 b 282 -92 218 -293 282 -225 l 282 -33 l 283 460 l 285 651 b 257 682 285 676 275 683 b 128 636 236 681 189 665 b 88 600 94 621 88 614 b 156 460 88 557 156 581 z "},"k":{"ha":822,"x_min":0,"x_max":0,"o":"m 603 549 b 721 643 678 629 721 610 b 675 667 721 658 707 667 l 540 667 b 500 642 508 667 500 656 b 529 561 500 614 569 604 l 260 274 l 260 764 l 261 956 b 233 986 261 981 251 988 b 104 940 213 985 165 969 b 64 904 71 925 64 918 b 132 764 64 861 132 886 l 133 183 b 65 28 133 50 65 75 b 121 0 65 6 89 0 l 269 0 b 324 26 304 0 324 6 b 260 182 324 75 260 50 l 451 388 l 569 119 b 528 25 594 65 528 64 b 583 0 528 6 543 0 l 726 0 b 786 25 771 0 786 6 b 693 140 786 63 726 63 l 542 483 z "},"l":{"ha":386,"x_min":0,"x_max":0,"o":"m 133 183 b 65 28 133 50 65 75 b 121 0 65 6 89 0 l 269 0 b 324 26 304 0 324 6 b 260 183 324 75 260 50 l 260 764 l 261 956 b 233 986 261 981 251 988 b 104 940 213 985 165 969 b 64 904 71 925 64 918 b 132 764 64 861 132 886 z "},"ĺ":{"ha":386,"x_min":0,"x_max":0,"o":"m 106 1064 b 338 1167 165 1042 317 1108 b 306 1244 351 1203 333 1233 b 185 1186 268 1257 235 1228 b 90 1089 135 1140 97 1104 b 106 1064 88 1081 89 1069 z m 133 183 b 65 28 133 50 65 75 b 121 0 65 6 89 0 l 269 0 b 324 26 304 0 324 6 b 260 183 324 75 260 50 l 260 764 l 261 956 b 233 986 261 981 251 988 b 104 940 213 985 165 969 b 64 904 71 925 64 918 b 132 764 64 861 132 886 z "},"ľ":{"ha":386,"x_min":0,"x_max":0,"o":"m 133 183 b 65 28 133 50 65 75 b 121 0 65 6 89 0 l 269 0 b 324 26 304 0 324 6 b 260 183 324 75 260 50 l 260 764 l 261 956 b 233 986 261 981 251 988 b 104 940 213 985 165 969 b 64 904 71 925 64 918 b 132 764 64 861 132 886 z m 382 674 b 493 913 421 674 493 861 b 440 974 493 956 468 974 b 382 907 410 974 385 953 l 364 697 b 382 674 361 683 369 674 z "},"ł":{"ha":386,"x_min":0,"x_max":0,"o":"m 367 575 b 329 586 357 593 346 597 l 260 546 l 260 764 l 261 956 b 233 986 261 981 251 988 b 104 940 213 985 165 969 b 64 904 71 925 64 918 b 132 764 64 861 132 886 l 133 474 l 19 408 b 11 371 1 397 0 386 b 47 357 19 353 31 347 l 133 407 l 133 183 b 65 28 133 50 65 75 b 121 0 65 6 89 0 l 269 0 b 324 26 304 0 324 6 b 260 183 324 75 260 50 l 260 481 l 357 536 b 367 575 376 547 375 560 z "},"m":{"ha":1336,"x_min":0,"x_max":0,"o":"m 1206 389 b 965 681 1168 603 1104 681 b 718 522 865 681 772 628 b 496 681 686 628 608 681 b 250 528 397 681 306 631 l 251 646 b 224 676 251 669 242 676 b 110 638 204 675 157 660 b 69 599 76 622 69 614 b 94 567 69 585 79 576 b 138 463 132 544 138 510 l 138 183 b 69 28 138 50 69 75 b 125 0 69 6 93 0 l 274 0 b 328 26 308 0 328 6 b 264 183 328 75 264 50 l 264 344 b 457 599 264 514 360 597 b 610 376 578 601 610 501 l 610 183 b 543 28 610 50 543 75 b 599 0 543 6 565 0 l 747 0 b 801 26 781 0 801 6 b 736 183 801 75 736 50 l 735 358 b 921 596 740 519 835 594 b 1082 379 1046 597 1063 489 l 1122 149 b 1065 28 1138 58 1065 68 b 1119 0 1065 6 1088 0 l 1268 0 b 1322 26 1301 0 1322 6 b 1249 144 1322 68 1264 58 z "},"n":{"ha":874,"x_min":0,"x_max":0,"o":"m 742 389 b 494 681 706 603 633 681 b 250 528 403 681 306 631 l 251 646 b 224 676 251 669 242 676 b 110 638 204 675 157 660 b 69 599 76 622 69 614 b 94 567 69 585 79 576 b 138 463 132 544 138 510 l 138 183 b 69 28 138 50 69 75 b 125 0 69 6 93 0 l 274 0 b 328 26 308 0 328 6 b 264 183 328 75 264 50 l 264 344 b 450 596 264 514 360 594 b 618 379 576 597 600 489 l 658 149 b 601 28 674 58 601 68 b 657 0 601 6 624 0 l 804 0 b 858 26 839 0 858 6 b 785 144 858 68 801 58 z "},"ń":{"ha":874,"x_min":0,"x_max":0,"o":"m 349 758 b 581 861 408 736 560 803 b 549 939 594 897 576 928 b 428 881 511 951 478 922 b 333 783 378 835 340 799 b 349 758 331 775 332 764 z m 742 389 b 494 681 706 603 633 681 b 250 528 403 681 306 631 l 251 646 b 224 676 251 669 242 676 b 110 638 204 675 157 660 b 69 599 76 622 69 614 b 94 567 69 585 79 576 b 138 463 132 544 138 510 l 138 183 b 69 28 138 50 69 75 b 125 0 69 6 93 0 l 274 0 b 328 26 308 0 328 6 b 264 183 328 75 264 50 l 264 344 b 450 596 264 514 360 594 b 618 379 576 597 600 489 l 658 149 b 601 28 674 58 601 68 b 657 0 601 6 624 0 l 804 0 b 858 26 839 0 858 6 b 785 144 858 68 801 58 z "},"ň":{"ha":874,"x_min":0,"x_max":0,"o":"m 442 744 b 536 824 489 744 492 757 b 603 925 569 874 601 913 b 585 944 603 935 600 943 b 439 856 549 947 481 897 b 294 944 399 897 331 947 b 276 925 279 943 276 935 b 339 829 278 913 303 876 b 442 744 389 758 399 744 z m 742 389 b 494 681 706 603 633 681 b 250 528 403 681 306 631 l 251 646 b 224 676 251 669 242 676 b 110 638 204 675 157 660 b 69 599 76 622 69 614 b 94 567 69 585 79 576 b 138 463 132 544 138 510 l 138 183 b 69 28 138 50 69 75 b 125 0 69 6 93 0 l 274 0 b 328 26 308 0 328 6 b 264 183 328 75 264 50 l 264 344 b 450 596 264 514 360 594 b 618 379 576 597 600 489 l 658 149 b 601 28 674 58 601 68 b 657 0 601 6 624 0 l 804 0 b 858 26 839 0 858 6 b 785 144 858 68 801 58 z "},"ñ":{"ha":874,"x_min":0,"x_max":0,"o":"m 260 769 b 308 810 260 797 276 810 b 533 751 378 810 468 751 b 631 836 594 751 631 788 b 590 872 631 888 590 907 b 542 832 590 846 575 832 b 315 890 494 832 404 890 b 219 807 254 890 219 856 b 260 769 219 756 260 736 z m 742 389 b 494 681 706 603 633 681 b 250 528 403 681 306 631 l 251 646 b 224 676 251 669 242 676 b 110 638 204 675 157 660 b 69 599 76 622 69 614 b 94 567 69 585 79 576 b 138 463 132 544 138 510 l 138 183 b 69 28 138 50 69 75 b 125 0 69 6 93 0 l 274 0 b 328 26 308 0 328 6 b 264 183 328 75 264 50 l 264 344 b 450 596 264 514 360 594 b 618 379 576 597 600 489 l 658 149 b 601 28 674 58 601 68 b 657 0 601 6 624 0 l 804 0 b 858 26 839 0 858 6 b 785 144 858 68 801 58 z "},"o":{"ha":786,"x_min":0,"x_max":0,"o":"m 375 -14 b 735 350 588 -14 735 144 b 415 681 735 538 600 681 b 49 308 200 681 49 518 b 375 -14 49 111 188 -14 z m 418 53 b 175 375 276 53 175 193 b 367 610 175 507 243 610 b 610 281 506 610 610 454 b 418 53 610 147 536 53 z "},"ó":{"ha":786,"x_min":0,"x_max":0,"o":"m 311 758 b 543 861 371 736 522 803 b 511 939 557 897 539 928 b 390 881 474 951 440 922 b 296 783 340 835 303 799 b 311 758 293 775 294 764 z m 375 -14 b 735 350 588 -14 735 144 b 415 681 735 538 600 681 b 49 308 200 681 49 518 b 375 -14 49 111 188 -14 z m 418 53 b 175 375 276 53 175 193 b 367 610 175 507 243 610 b 610 281 506 610 610 454 b 418 53 610 147 536 53 z "},"ô":{"ha":786,"x_min":0,"x_max":0,"o":"m 257 749 b 401 839 293 747 361 796 b 547 749 443 796 511 747 b 565 768 563 750 565 758 b 499 869 564 781 532 819 b 404 949 454 936 451 949 b 301 864 361 949 351 935 b 239 768 265 817 240 781 b 257 749 239 758 242 750 z m 375 -14 b 735 350 588 -14 735 144 b 415 681 735 538 600 681 b 49 308 200 681 49 518 b 375 -14 49 111 188 -14 z m 418 53 b 175 375 276 53 175 193 b 367 610 175 507 243 610 b 610 281 506 610 610 454 b 418 53 610 147 536 53 z "},"ö":{"ha":786,"x_min":0,"x_max":0,"o":"m 282 789 b 369 868 326 789 369 824 b 304 932 369 906 343 932 b 222 846 258 932 222 888 b 282 789 222 811 249 789 z m 483 789 b 571 868 528 789 571 824 b 506 932 571 906 543 932 b 424 846 460 932 424 888 b 483 789 424 811 450 789 z m 375 -14 b 735 350 588 -14 735 144 b 415 681 735 538 600 681 b 49 308 200 681 49 518 b 375 -14 49 111 188 -14 z m 418 53 b 175 375 276 53 175 193 b 367 610 175 507 243 610 b 610 281 506 610 610 454 b 418 53 610 147 536 53 z "},"ò":{"ha":786,"x_min":0,"x_max":0,"o":"m 513 758 b 528 783 529 764 531 775 b 435 881 521 799 483 835 b 314 939 383 922 350 951 b 281 861 285 928 267 897 b 513 758 301 803 453 736 z m 375 -14 b 735 350 588 -14 735 144 b 415 681 735 538 600 681 b 49 308 200 681 49 518 b 375 -14 49 111 188 -14 z m 418 53 b 175 375 276 53 175 193 b 367 610 175 507 243 610 b 610 281 506 610 610 454 b 418 53 610 147 536 53 z "},"ő":{"ha":786,"x_min":0,"x_max":0,"o":"m 278 749 b 443 907 335 749 443 851 b 390 963 443 942 417 963 b 306 875 357 963 336 928 b 257 765 279 822 257 779 b 278 749 257 757 263 749 z m 479 747 b 650 900 538 747 650 846 b 599 956 650 935 625 956 b 511 872 565 956 544 922 b 457 765 481 821 457 779 b 479 747 456 757 461 747 z m 375 -14 b 735 350 588 -14 735 144 b 415 681 735 538 600 681 b 49 308 200 681 49 518 b 375 -14 49 111 188 -14 z m 418 53 b 175 375 276 53 175 193 b 367 610 175 507 243 610 b 610 281 506 610 610 454 b 418 53 610 147 536 53 z "},"ō":{"ha":786,"x_min":0,"x_max":0,"o":"m 542 771 b 588 807 581 771 585 781 b 551 840 590 831 589 840 l 236 840 b 192 806 199 840 194 831 b 226 771 189 781 189 771 z m 375 -14 b 735 350 588 -14 735 144 b 415 681 735 538 600 681 b 49 308 200 681 49 518 b 375 -14 49 111 188 -14 z m 418 53 b 175 375 276 53 175 193 b 367 610 175 507 243 610 b 610 281 506 610 610 454 b 418 53 610 147 536 53 z "},"ø":{"ha":786,"x_min":0,"x_max":0,"o":"m 690 781 b 697 803 694 789 697 796 b 672 822 697 817 683 822 b 639 801 657 822 649 818 l 553 651 b 415 681 511 669 465 681 b 49 308 200 681 49 518 b 196 32 49 182 106 85 l 108 -119 b 100 -139 104 -126 100 -132 b 125 -161 100 -153 111 -161 b 165 -132 142 -161 153 -154 l 246 8 b 375 -14 285 -6 329 -14 b 735 350 588 -14 735 144 b 600 624 735 467 683 565 z m 175 375 b 367 610 175 507 243 610 b 499 557 415 610 461 590 l 254 133 b 175 375 204 192 175 276 z m 418 53 b 294 93 372 53 331 68 l 538 514 b 610 281 582 454 610 369 b 418 53 610 147 536 53 z "},"õ":{"ha":786,"x_min":0,"x_max":0,"o":"m 496 751 b 593 836 557 751 593 788 b 553 872 593 888 553 907 b 504 832 553 846 538 832 b 278 890 457 832 367 890 b 182 807 217 890 182 856 b 222 769 182 756 222 736 b 271 810 222 797 239 810 b 496 751 340 810 431 751 z m 375 -14 b 735 350 588 -14 735 144 b 415 681 735 538 600 681 b 49 308 200 681 49 518 b 375 -14 49 111 188 -14 z m 418 53 b 175 375 276 53 175 193 b 367 610 175 507 243 610 b 610 281 506 610 610 454 b 418 53 610 147 536 53 z "},"œ":{"ha":1279,"x_min":0,"x_max":0,"o":"m 1193 179 b 974 81 1143 126 1065 81 b 739 257 844 81 765 176 b 1197 417 900 308 1047 358 b 1229 474 1228 429 1235 449 b 951 681 1203 593 1103 681 b 664 531 828 681 726 622 b 389 681 611 621 518 681 b 49 339 193 681 49 528 b 397 -14 49 142 183 -14 b 656 119 511 -14 600 38 b 924 -14 711 38 806 -14 b 1233 154 1099 -14 1204 86 b 1193 179 1247 189 1217 204 z m 421 46 b 182 386 274 46 182 206 b 379 624 182 564 288 624 b 599 332 501 622 585 488 l 599 310 b 601 267 599 296 600 281 b 421 46 596 156 547 46 z m 908 615 b 1079 474 985 618 1065 560 b 1053 426 1083 449 1075 435 b 729 314 951 388 843 351 b 721 399 722 338 721 364 b 908 615 721 500 783 614 z "},"p":{"ha":824,"x_min":0,"x_max":0,"o":"m 492 681 b 239 538 367 681 283 613 l 240 650 b 213 681 240 675 231 682 b 99 643 193 679 146 664 b 58 603 65 628 58 619 b 83 571 58 589 68 581 b 125 468 119 549 125 514 l 128 -94 b 61 -251 128 -228 61 -203 b 115 -278 61 -272 83 -278 l 264 -278 b 318 -251 299 -278 318 -272 b 254 -94 318 -203 254 -228 l 253 60 b 472 -14 306 15 390 -15 b 774 350 644 -12 774 140 b 492 681 774 540 665 681 z m 472 49 b 253 274 375 47 253 129 l 253 371 b 446 593 253 472 318 593 b 649 294 551 593 649 494 b 472 49 649 161 593 50 z "},"þ":{"ha":829,"x_min":0,"x_max":0,"o":"m 492 681 b 251 556 378 681 299 624 l 251 765 l 253 957 b 225 988 253 982 243 989 b 96 942 206 986 158 971 b 57 906 63 926 57 919 b 125 765 57 863 125 888 l 125 -94 b 58 -250 125 -228 58 -203 b 113 -278 58 -272 81 -278 l 263 -278 b 317 -251 296 -278 317 -272 b 251 -94 317 -203 251 -228 l 251 61 b 472 -14 304 15 389 -15 b 774 350 644 -12 774 140 b 492 681 774 540 665 681 z m 472 49 b 253 274 375 47 253 129 l 253 371 b 446 593 253 472 318 593 b 649 294 551 593 649 494 b 472 49 649 161 593 50 z "},"q":{"ha":804,"x_min":0,"x_max":0,"o":"m 707 646 b 678 681 707 667 699 681 b 581 640 640 681 632 640 b 383 681 540 640 485 681 b 49 306 213 681 49 524 b 349 -14 49 128 164 -14 b 583 115 456 -14 536 43 l 583 -96 b 490 -251 583 -240 490 -201 b 544 -278 490 -272 511 -278 l 719 -278 b 774 -251 751 -278 774 -272 b 707 -96 774 -210 707 -231 z m 396 74 b 174 372 292 74 174 172 b 365 613 174 511 246 613 b 546 501 444 613 504 574 b 582 318 578 444 582 367 b 396 74 582 203 525 74 z "},"r":{"ha":614,"x_min":0,"x_max":0,"o":"m 450 681 b 250 533 368 681 293 615 l 251 646 b 224 676 251 669 242 676 b 110 638 204 675 157 660 b 69 599 76 622 69 614 b 94 567 69 585 79 576 b 138 463 132 544 138 510 l 138 183 b 69 28 138 50 69 75 b 125 0 69 6 93 0 l 274 0 b 328 26 308 0 328 6 b 264 183 328 75 264 50 l 264 365 b 383 574 264 488 322 574 b 503 514 447 574 444 513 b 558 585 535 515 558 549 b 450 681 558 633 525 681 z "},"ŕ":{"ha":614,"x_min":0,"x_max":0,"o":"m 286 763 b 518 865 346 740 497 807 b 486 943 532 901 514 932 b 365 885 449 956 415 926 b 271 788 315 839 278 803 b 286 763 268 779 269 768 z m 450 681 b 250 533 368 681 293 615 l 251 646 b 224 676 251 669 242 676 b 110 638 204 675 157 660 b 69 599 76 622 69 614 b 94 567 69 585 79 576 b 138 463 132 544 138 510 l 138 183 b 69 28 138 50 69 75 b 125 0 69 6 93 0 l 274 0 b 328 26 308 0 328 6 b 264 183 328 75 264 50 l 264 365 b 383 574 264 488 322 574 b 503 514 447 574 444 513 b 558 585 535 515 558 549 b 450 681 558 633 525 681 z "},"ř":{"ha":614,"x_min":0,"x_max":0,"o":"m 324 776 b 418 856 371 776 374 789 b 485 957 451 906 483 944 b 467 976 485 967 482 975 b 321 888 431 979 363 929 b 176 976 281 929 213 979 b 158 957 161 975 158 967 b 221 861 160 944 185 908 b 324 776 271 790 281 776 z m 450 681 b 250 533 368 681 293 615 l 251 646 b 224 676 251 669 242 676 b 110 638 204 675 157 660 b 69 599 76 622 69 614 b 94 567 69 585 79 576 b 138 463 132 544 138 510 l 138 183 b 69 28 138 50 69 75 b 125 0 69 6 93 0 l 274 0 b 328 26 308 0 328 6 b 264 183 328 75 264 50 l 264 365 b 383 574 264 488 322 574 b 503 514 447 574 444 513 b 558 585 535 515 558 549 b 450 681 558 633 525 681 z "},"s":{"ha":660,"x_min":0,"x_max":0,"o":"m 147 -14 b 200 13 172 -14 178 13 b 361 -14 228 13 269 -14 b 614 181 514 -14 614 78 b 372 390 614 285 506 338 b 179 533 244 442 179 472 b 296 619 179 582 221 619 b 483 546 361 619 429 586 b 572 497 531 510 550 485 b 578 546 586 506 586 524 b 535 635 567 571 556 596 b 492 681 518 663 510 681 b 446 664 474 681 468 663 b 292 681 410 665 365 681 b 71 494 186 681 71 621 b 304 285 71 381 183 332 b 494 142 417 239 494 201 b 378 50 494 81 440 50 b 119 193 303 50 228 76 b 72 218 101 213 86 224 b 57 181 57 213 53 200 b 108 33 74 125 88 89 b 147 -14 125 -6 128 -14 z "},"":{"ha":660,"x_min":0,"x_max":0,"o":"m 147 -14 b 200 13 172 -14 178 13 b 361 -14 228 13 269 -14 b 614 181 514 -14 614 78 b 372 390 614 285 506 338 b 179 533 244 442 179 472 b 296 619 179 582 221 619 b 483 546 361 619 429 586 b 572 497 531 510 550 485 b 578 546 586 506 586 524 b 535 635 567 571 556 596 b 492 681 518 663 510 681 b 446 664 474 681 468 663 b 292 681 410 665 365 681 b 71 494 186 681 71 621 b 304 285 71 381 183 332 b 494 142 417 239 494 201 b 378 50 494 81 440 50 b 119 193 303 50 228 76 b 72 218 101 213 86 224 b 57 181 57 213 53 200 b 108 33 74 125 88 89 b 147 -14 125 -6 128 -14 z "},"ś":{"ha":660,"x_min":0,"x_max":0,"o":"m 231 758 b 463 861 290 736 442 803 b 431 939 476 897 458 928 b 310 881 393 951 360 922 b 215 783 260 835 222 799 b 231 758 213 775 214 764 z m 147 -14 b 200 13 172 -14 178 13 b 361 -14 228 13 269 -14 b 614 181 514 -14 614 78 b 372 390 614 285 506 338 b 179 533 244 442 179 472 b 296 619 179 582 221 619 b 483 546 361 619 429 586 b 572 497 531 510 550 485 b 578 546 586 506 586 524 b 535 635 567 571 556 596 b 492 681 518 663 510 681 b 446 664 474 681 468 663 b 292 681 410 665 365 681 b 71 494 186 681 71 621 b 304 285 71 381 183 332 b 494 142 417 239 494 201 b 378 50 494 81 440 50 b 119 193 303 50 228 76 b 72 218 101 213 86 224 b 57 181 57 213 53 200 b 108 33 74 125 88 89 b 147 -14 125 -6 128 -14 z "},"š":{"ha":660,"x_min":0,"x_max":0,"o":"m 176 944 b 158 925 161 943 158 935 b 221 829 160 913 185 876 b 324 744 271 758 281 744 b 418 824 371 744 374 757 b 485 925 451 874 483 913 b 467 944 485 935 482 943 b 321 856 431 947 363 897 b 176 944 281 897 213 947 z m 147 -14 b 200 13 172 -14 178 13 b 361 -14 228 13 269 -14 b 614 181 514 -14 614 78 b 372 390 614 285 506 338 b 179 533 244 442 179 472 b 296 619 179 582 221 619 b 483 546 361 619 429 586 b 572 497 531 510 550 485 b 578 546 586 506 586 524 b 535 635 567 571 556 596 b 492 681 518 663 510 681 b 446 664 474 681 468 663 b 292 681 410 665 365 681 b 71 494 186 681 71 621 b 304 285 71 381 183 332 b 494 142 417 239 494 201 b 378 50 494 81 440 50 b 119 193 303 50 228 76 b 72 218 101 213 86 224 b 57 181 57 213 53 200 b 108 33 74 125 88 89 b 147 -14 125 -6 128 -14 z "},"ş":{"ha":660,"x_min":0,"x_max":0,"o":"m 361 -14 b 614 181 514 -14 614 78 b 372 390 614 285 506 338 b 179 533 244 442 179 472 b 296 619 179 582 221 619 b 483 546 361 619 429 586 b 572 497 531 510 550 485 b 578 546 586 506 586 524 b 535 635 567 571 556 596 b 492 681 518 663 510 681 b 446 664 474 681 468 663 b 292 681 410 665 365 681 b 71 494 186 681 71 621 b 304 285 71 381 183 332 b 494 142 417 239 494 201 b 378 50 494 81 440 50 b 119 193 303 50 228 76 b 72 218 101 213 86 224 b 57 181 57 213 53 200 b 108 33 74 125 88 89 b 147 -14 125 -6 128 -14 b 200 13 172 -14 178 13 b 296 -8 219 13 247 -1 l 250 -93 b 267 -117 243 -106 253 -114 b 361 -192 313 -128 361 -146 b 297 -250 361 -222 340 -250 b 222 -226 263 -250 242 -237 b 200 -249 203 -214 188 -233 b 313 -293 218 -271 253 -293 b 440 -183 382 -293 440 -249 b 313 -74 440 -117 382 -86 l 343 -14 z "},"ß":{"ha":847,"x_min":0,"x_max":0,"o":"m 551 -14 b 797 213 697 -15 797 85 b 613 425 797 319 711 369 b 464 544 519 479 464 503 b 585 819 464 635 585 706 b 397 986 585 911 524 986 b 131 663 235 986 131 860 l 131 169 b 65 25 131 64 65 63 b 126 0 65 6 81 0 l 238 0 b 297 25 283 0 297 6 b 254 167 297 64 254 63 l 256 667 b 371 925 256 774 253 925 b 467 800 444 925 467 854 b 385 488 467 668 385 588 b 543 314 385 392 465 358 b 685 144 628 267 685 225 b 578 46 685 89 644 46 b 382 182 478 46 417 125 b 347 221 368 203 363 221 b 322 165 332 221 322 203 b 349 63 322 140 329 93 b 551 -14 388 1 503 -14 z "},"t":{"ha":492,"x_min":0,"x_max":0,"o":"m 428 126 b 322 81 403 104 360 81 b 232 225 246 81 229 132 l 238 600 l 361 596 b 414 632 385 594 407 597 b 378 667 421 665 401 667 l 239 667 b 244 776 240 722 242 749 b 222 810 246 797 240 810 b 185 796 213 810 206 810 b 36 660 139 761 88 718 b 24 631 25 647 24 640 b 63 603 24 611 35 603 l 115 603 b 110 225 111 517 110 388 l 110 183 b 276 -14 110 57 163 -14 b 463 103 381 -14 443 56 b 428 126 472 128 449 146 z "},"ŧ":{"ha":492,"x_min":0,"x_max":0,"o":"m 428 126 b 322 81 403 104 360 81 b 232 225 246 81 229 132 b 235 403 233 293 233 351 l 314 403 b 340 432 333 403 340 414 b 314 460 340 450 333 460 l 236 460 b 238 600 236 517 238 563 l 361 596 b 414 632 385 594 407 597 b 378 667 421 665 401 667 l 239 667 b 244 776 240 722 242 749 b 222 810 246 797 240 810 b 185 796 213 810 206 810 b 36 660 139 761 88 718 b 24 631 25 647 24 640 b 63 603 24 611 35 603 l 115 603 l 111 460 l 51 460 b 25 432 32 460 25 450 b 51 403 25 414 32 403 l 111 403 b 110 225 110 349 110 290 l 110 183 b 276 -14 110 57 163 -14 b 463 103 381 -14 443 56 b 428 126 472 128 449 146 z "},"ť":{"ha":492,"x_min":0,"x_max":0,"o":"m 388 713 b 499 951 426 713 499 900 b 446 1013 499 994 474 1013 b 388 946 415 1013 390 992 l 369 736 b 388 713 367 722 375 713 z m 428 126 b 322 81 403 104 360 81 b 232 225 246 81 229 132 l 238 600 l 361 596 b 414 632 385 594 407 597 b 378 667 421 665 401 667 l 239 667 b 244 776 240 722 242 749 b 222 810 246 797 240 810 b 185 796 213 810 206 810 b 36 660 139 761 88 718 b 24 631 25 647 24 640 b 63 603 24 611 35 603 l 115 603 b 110 225 111 517 110 388 l 110 183 b 276 -14 110 57 163 -14 b 463 103 381 -14 443 56 b 428 126 472 128 449 146 z "},"u":{"ha":826,"x_min":0,"x_max":0,"o":"m 735 650 b 707 681 735 675 725 682 b 578 635 686 679 639 664 b 538 599 544 619 538 613 b 607 458 538 556 607 581 l 607 290 b 413 69 607 154 501 71 b 265 276 307 67 265 151 l 265 458 l 267 650 b 239 681 267 675 257 682 b 110 635 219 679 171 664 b 69 599 76 619 69 613 b 139 458 69 556 139 581 l 139 263 b 374 -14 139 69 236 -14 b 608 115 450 -14 547 29 l 610 58 b 657 -14 611 11 624 -14 b 781 28 690 -14 744 7 b 815 68 804 40 815 54 b 733 182 815 108 733 76 l 733 458 z "},"ú":{"ha":826,"x_min":0,"x_max":0,"o":"m 383 758 b 615 861 443 736 594 803 b 583 939 629 897 611 928 b 463 881 546 951 513 922 b 368 783 413 835 375 799 b 383 758 365 775 367 764 z m 735 650 b 707 681 735 675 725 682 b 578 635 686 679 639 664 b 538 599 544 619 538 613 b 607 458 538 556 607 581 l 607 290 b 413 69 607 154 501 71 b 265 276 307 67 265 151 l 265 458 l 267 650 b 239 681 267 675 257 682 b 110 635 219 679 171 664 b 69 599 76 619 69 613 b 139 458 69 556 139 581 l 139 263 b 374 -14 139 69 236 -14 b 608 115 450 -14 547 29 l 610 58 b 657 -14 611 11 624 -14 b 781 28 690 -14 744 7 b 815 68 804 40 815 54 b 733 182 815 108 733 76 l 733 458 z "},"û":{"ha":826,"x_min":0,"x_max":0,"o":"m 329 749 b 474 839 365 747 433 796 b 619 749 515 796 583 747 b 638 768 635 750 638 758 b 571 869 636 781 604 819 b 476 949 526 936 524 949 b 374 864 433 949 424 935 b 311 768 338 817 313 781 b 329 749 311 758 314 750 z m 735 650 b 707 681 735 675 725 682 b 578 635 686 679 639 664 b 538 599 544 619 538 613 b 607 458 538 556 607 581 l 607 290 b 413 69 607 154 501 71 b 265 276 307 67 265 151 l 265 458 l 267 650 b 239 681 267 675 257 682 b 110 635 219 679 171 664 b 69 599 76 619 69 613 b 139 458 69 556 139 581 l 139 263 b 374 -14 139 69 236 -14 b 608 115 450 -14 547 29 l 610 58 b 657 -14 611 11 624 -14 b 781 28 690 -14 744 7 b 815 68 804 40 815 54 b 733 182 815 108 733 76 l 733 458 z "},"ü":{"ha":826,"x_min":0,"x_max":0,"o":"m 354 789 b 442 868 399 789 442 824 b 376 932 442 906 415 932 b 294 846 331 932 294 888 b 354 789 294 811 321 789 z m 556 789 b 643 868 600 789 643 824 b 578 932 643 906 615 932 b 496 846 532 932 496 888 b 556 789 496 811 522 789 z m 735 650 b 707 681 735 675 725 682 b 578 635 686 679 639 664 b 538 599 544 619 538 613 b 607 458 538 556 607 581 l 607 290 b 413 69 607 154 501 71 b 265 276 307 67 265 151 l 265 458 l 267 650 b 239 681 267 675 257 682 b 110 635 219 679 171 664 b 69 599 76 619 69 613 b 139 458 69 556 139 581 l 139 263 b 374 -14 139 69 236 -14 b 608 115 450 -14 547 29 l 610 58 b 657 -14 611 11 624 -14 b 781 28 690 -14 744 7 b 815 68 804 40 815 54 b 733 182 815 108 733 76 l 733 458 z "},"ù":{"ha":826,"x_min":0,"x_max":0,"o":"m 585 758 b 600 783 601 764 603 775 b 507 881 593 799 556 835 b 386 939 456 922 422 951 b 353 861 357 928 339 897 b 585 758 374 803 525 736 z m 735 650 b 707 681 735 675 725 682 b 578 635 686 679 639 664 b 538 599 544 619 538 613 b 607 458 538 556 607 581 l 607 290 b 413 69 607 154 501 71 b 265 276 307 67 265 151 l 265 458 l 267 650 b 239 681 267 675 257 682 b 110 635 219 679 171 664 b 69 599 76 619 69 613 b 139 458 69 556 139 581 l 139 263 b 374 -14 139 69 236 -14 b 608 115 450 -14 547 29 l 610 58 b 657 -14 611 11 624 -14 b 781 28 690 -14 744 7 b 815 68 804 40 815 54 b 733 182 815 108 733 76 l 733 458 z "},"ű":{"ha":826,"x_min":0,"x_max":0,"o":"m 350 749 b 515 907 407 749 515 851 b 463 963 515 942 489 963 b 378 875 429 963 408 928 b 329 765 351 822 329 779 b 350 749 329 757 335 749 z m 551 747 b 722 900 610 747 722 846 b 671 956 722 935 697 956 b 583 872 638 956 617 922 b 529 765 553 821 529 779 b 551 747 528 757 533 747 z m 735 650 b 707 681 735 675 725 682 b 578 635 686 679 639 664 b 538 599 544 619 538 613 b 607 458 538 556 607 581 l 607 290 b 413 69 607 154 501 71 b 265 276 307 67 265 151 l 265 458 l 267 650 b 239 681 267 675 257 682 b 110 635 219 679 171 664 b 69 599 76 619 69 613 b 139 458 69 556 139 581 l 139 263 b 374 -14 139 69 236 -14 b 608 115 450 -14 547 29 l 610 58 b 657 -14 611 11 624 -14 b 781 28 690 -14 744 7 b 815 68 804 40 815 54 b 733 182 815 108 733 76 l 733 458 z "},"ū":{"ha":826,"x_min":0,"x_max":0,"o":"m 614 771 b 660 807 653 771 657 781 b 624 840 663 831 661 840 l 308 840 b 264 806 271 840 267 831 b 299 771 261 781 261 771 z m 735 650 b 707 681 735 675 725 682 b 578 635 686 679 639 664 b 538 599 544 619 538 613 b 607 458 538 556 607 581 l 607 290 b 413 69 607 154 501 71 b 265 276 307 67 265 151 l 265 458 l 267 650 b 239 681 267 675 257 682 b 110 635 219 679 171 664 b 69 599 76 619 69 613 b 139 458 69 556 139 581 l 139 263 b 374 -14 139 69 236 -14 b 608 115 450 -14 547 29 l 610 58 b 657 -14 611 11 624 -14 b 781 28 690 -14 744 7 b 815 68 804 40 815 54 b 733 182 815 108 733 76 l 733 458 z "},"ģ":{"ha":764,"x_min":0,"x_max":0,"o":"m 390 754 b 461 828 425 754 461 782 b 401 936 461 889 401 897 b 451 1026 401 979 451 1010 b 435 1042 451 1035 446 1042 b 308 847 396 1042 308 965 b 390 754 308 781 347 754 z m 546 94 b 336 85 497 94 414 85 b 174 167 257 85 174 101 b 210 224 174 192 192 211 b 343 200 247 208 292 200 b 650 460 529 201 650 313 b 571 622 650 522 622 581 b 686 733 632 638 686 679 b 636 783 686 764 661 783 b 589 753 617 783 603 769 b 483 675 556 703 515 675 b 397 681 456 675 440 679 l 385 681 b 68 419 207 679 68 569 b 164 247 68 349 101 288 b 54 126 82 217 54 165 b 140 6 54 67 96 28 b 47 -119 76 -22 47 -76 b 358 -294 47 -243 203 -294 b 751 -61 613 -294 751 -197 b 546 94 751 25 682 94 z m 354 625 b 521 425 463 625 519 529 b 367 257 521 331 463 257 b 194 458 263 257 196 349 b 354 625 194 558 264 625 z m 392 -236 b 168 -114 258 -236 168 -193 b 283 -24 168 -54 228 -24 b 493 -17 372 -24 439 -19 b 628 -106 604 -10 628 -62 b 392 -236 628 -192 528 -236 z "},"ķ":{"ha":822,"x_min":0,"x_max":0,"o":"m 603 549 b 721 643 678 629 721 610 b 675 667 721 658 707 667 l 540 667 b 500 642 508 667 500 656 b 529 561 500 614 569 604 l 260 274 l 260 764 l 261 956 b 233 986 261 981 251 988 b 104 940 213 985 165 969 b 64 904 71 925 64 918 b 132 764 64 861 132 886 l 133 183 b 65 28 133 50 65 75 b 121 0 65 6 89 0 l 269 0 b 324 26 304 0 324 6 b 260 182 324 75 260 50 l 451 388 l 569 119 b 528 25 594 65 528 64 b 583 0 528 6 543 0 l 726 0 b 786 25 771 0 786 6 b 693 140 786 63 726 63 l 542 483 z m 414 -75 b 343 -149 379 -75 343 -103 b 403 -257 343 -210 403 -218 b 353 -347 403 -300 353 -331 b 369 -362 353 -356 358 -362 b 496 -168 408 -362 496 -286 b 414 -75 496 -101 457 -75 z "},"ļ":{"ha":386,"x_min":0,"x_max":0,"o":"m 133 183 b 65 28 133 50 65 75 b 121 0 65 6 89 0 l 269 0 b 324 26 304 0 324 6 b 260 183 324 75 260 50 l 260 764 l 261 956 b 233 986 261 981 251 988 b 104 940 213 985 165 969 b 64 904 71 925 64 918 b 132 764 64 861 132 886 z m 140 -362 b 267 -168 179 -362 267 -286 b 185 -75 267 -101 228 -75 b 114 -149 150 -75 114 -103 b 174 -257 114 -210 174 -218 b 124 -347 174 -300 124 -331 b 140 -362 124 -356 129 -362 z "},"ņ":{"ha":874,"x_min":0,"x_max":0,"o":"m 742 389 b 494 681 706 603 633 681 b 250 528 403 681 306 631 l 251 646 b 224 676 251 669 242 676 b 110 638 204 675 157 660 b 69 599 76 622 69 614 b 94 567 69 585 79 576 b 138 463 132 544 138 510 l 138 183 b 69 28 138 50 69 75 b 125 0 69 6 93 0 l 274 0 b 328 26 308 0 328 6 b 264 183 328 75 264 50 l 264 344 b 450 596 264 514 360 594 b 618 379 576 597 600 489 l 658 149 b 601 28 674 58 601 68 b 657 0 601 6 624 0 l 804 0 b 858 26 839 0 858 6 b 785 144 858 68 801 58 z m 429 -75 b 358 -149 394 -75 358 -103 b 418 -257 358 -210 418 -218 b 368 -347 418 -300 368 -331 b 385 -362 368 -356 374 -362 b 511 -168 424 -362 511 -286 b 429 -75 511 -101 472 -75 z "},"ŗ":{"ha":614,"x_min":0,"x_max":0,"o":"m 450 681 b 250 533 368 681 293 615 l 251 646 b 224 676 251 669 242 676 b 110 638 204 675 157 660 b 69 599 76 622 69 614 b 94 567 69 585 79 576 b 138 463 132 544 138 510 l 138 183 b 69 28 138 50 69 75 b 125 0 69 6 93 0 l 274 0 b 328 26 308 0 328 6 b 264 183 328 75 264 50 l 264 365 b 383 574 264 488 322 574 b 503 514 447 574 444 513 b 558 585 535 515 558 549 b 450 681 558 633 525 681 z m 225 -75 b 154 -149 190 -75 154 -103 b 214 -257 154 -210 214 -218 b 164 -347 214 -300 164 -331 b 181 -362 164 -356 169 -362 b 307 -168 219 -362 307 -286 b 225 -75 307 -101 268 -75 z "},"ţ":{"ha":492,"x_min":0,"x_max":0,"o":"m 428 126 b 322 81 403 104 360 81 b 232 225 246 81 229 132 l 238 600 l 361 596 b 414 632 385 594 407 597 b 378 667 421 665 401 667 l 239 667 b 244 776 240 722 242 749 b 222 810 246 797 240 810 b 185 796 213 810 206 810 b 36 660 139 761 88 718 b 24 631 25 647 24 640 b 63 603 24 611 35 603 l 115 603 b 110 225 111 517 110 388 l 110 183 b 200 0 110 89 139 26 l 197 0 l 147 -93 b 164 -117 140 -106 150 -114 b 258 -192 210 -128 258 -146 b 194 -250 258 -222 238 -250 b 119 -226 160 -250 139 -237 b 97 -249 100 -214 85 -233 b 210 -293 115 -271 150 -293 b 338 -183 279 -293 338 -249 b 210 -74 338 -117 279 -86 l 242 -11 b 276 -14 253 -12 264 -14 b 463 103 381 -14 443 56 b 428 126 472 128 449 146 z "},"ș":{"ha":660,"x_min":0,"x_max":0,"o":"m 147 -14 b 200 13 172 -14 178 13 b 361 -14 228 13 269 -14 b 614 181 514 -14 614 78 b 372 390 614 285 506 338 b 179 533 244 442 179 472 b 296 619 179 582 221 619 b 483 546 361 619 429 586 b 572 497 531 510 550 485 b 578 546 586 506 586 524 b 535 635 567 571 556 596 b 492 681 518 663 510 681 b 446 664 474 681 468 663 b 292 681 410 665 365 681 b 71 494 186 681 71 621 b 304 285 71 381 183 332 b 494 142 417 239 494 201 b 378 50 494 81 440 50 b 119 193 303 50 228 76 b 72 218 101 213 86 224 b 57 181 57 213 53 200 b 108 33 74 125 88 89 b 147 -14 125 -6 128 -14 z m 267 -362 b 393 -168 306 -362 393 -286 b 311 -75 393 -101 354 -75 b 240 -149 276 -75 240 -103 b 300 -257 240 -210 300 -218 b 250 -347 300 -300 250 -331 b 267 -362 250 -356 256 -362 z "},"ț":{"ha":492,"x_min":0,"x_max":0,"o":"m 428 126 b 322 81 403 104 360 81 b 232 225 246 81 229 132 l 238 600 l 361 596 b 414 632 385 594 407 597 b 378 667 421 665 401 667 l 239 667 b 244 776 240 722 242 749 b 222 810 246 797 240 810 b 185 796 213 810 206 810 b 36 660 139 761 88 718 b 24 631 25 647 24 640 b 63 603 24 611 35 603 l 115 603 b 110 225 111 517 110 388 l 110 183 b 276 -14 110 57 163 -14 b 463 103 381 -14 443 56 b 428 126 472 128 449 146 z m 208 -75 b 138 -149 174 -75 138 -103 b 197 -257 138 -210 197 -218 b 147 -347 197 -300 147 -331 b 164 -362 147 -356 153 -362 b 290 -168 203 -362 290 -286 b 208 -75 290 -101 251 -75 z "},"ų":{"ha":826,"x_min":0,"x_max":0,"o":"m 819 -185 b 763 -197 803 -192 779 -197 b 682 -122 710 -197 682 -168 b 757 15 682 -85 703 -37 b 781 28 765 19 774 24 b 815 68 804 40 815 54 b 733 182 815 108 733 76 l 733 458 l 735 650 b 707 681 735 675 725 682 b 578 635 686 679 639 664 b 538 599 544 619 538 613 b 607 458 538 556 607 581 l 607 290 b 413 69 607 154 501 71 b 265 276 307 67 265 151 l 265 458 l 267 650 b 239 681 267 675 257 682 b 110 635 219 679 171 664 b 69 599 76 619 69 613 b 139 458 69 556 139 581 l 139 263 b 374 -14 139 69 236 -14 b 608 115 450 -14 547 29 l 610 58 b 657 -14 611 11 624 -14 b 674 -12 663 -14 667 -14 b 594 -139 625 -50 594 -90 b 729 -249 594 -210 657 -249 b 839 -210 764 -249 810 -237 b 819 -185 854 -196 847 -172 z "},"ů":{"ha":826,"x_min":0,"x_max":0,"o":"m 465 739 b 603 868 540 739 603 789 b 471 993 603 944 544 993 b 333 864 394 993 333 942 b 465 739 333 789 390 739 z m 465 942 b 538 871 504 942 532 911 b 472 793 540 829 515 793 b 397 865 432 793 403 824 b 465 942 394 910 421 942 z m 735 650 b 707 681 735 675 725 682 b 578 635 686 679 639 664 b 538 599 544 619 538 613 b 607 458 538 556 607 581 l 607 290 b 413 69 607 154 501 71 b 265 276 307 67 265 151 l 265 458 l 267 650 b 239 681 267 675 257 682 b 110 635 219 679 171 664 b 69 599 76 619 69 613 b 139 458 69 556 139 581 l 139 263 b 374 -14 139 69 236 -14 b 608 115 450 -14 547 29 l 610 58 b 657 -14 611 11 624 -14 b 781 28 690 -14 744 7 b 815 68 804 40 815 54 b 733 182 815 108 733 76 l 733 458 z "},"v":{"ha":728,"x_min":0,"x_max":0,"o":"m 582 667 b 526 640 547 667 526 661 b 556 501 526 604 599 611 l 400 96 l 243 501 b 282 640 200 611 282 604 b 228 667 282 661 260 667 l 72 667 b 18 640 38 667 18 661 b 110 501 18 604 67 611 l 301 15 b 378 -6 311 -10 325 -18 b 440 38 426 6 432 15 l 618 501 b 713 640 661 611 713 604 b 657 667 713 661 690 667 z "},"w":{"ha":1153,"x_min":0,"x_max":0,"o":"m 1004 665 b 950 639 971 665 950 660 b 978 501 950 603 1022 610 l 829 146 l 642 660 b 600 675 636 674 625 681 b 565 647 579 669 571 661 l 382 150 l 243 499 b 283 638 200 608 283 601 b 228 665 283 658 260 665 l 72 665 b 18 638 38 665 18 658 b 110 499 18 601 67 608 l 301 8 b 354 -4 307 -7 324 -11 b 401 28 383 1 396 11 l 574 490 l 744 8 b 796 -4 749 -7 765 -11 b 843 28 828 1 836 11 l 1042 501 b 1138 639 1088 610 1138 603 b 1083 665 1138 660 1115 665 z "},"":{"ha":1153,"x_min":0,"x_max":0,"o":"m 1004 665 b 950 639 971 665 950 660 b 978 501 950 603 1022 610 l 829 146 l 642 660 b 600 675 636 674 625 681 b 565 647 579 669 571 661 l 382 150 l 243 499 b 283 638 200 608 283 601 b 228 665 283 658 260 665 l 72 665 b 18 638 38 665 18 658 b 110 499 18 601 67 608 l 301 8 b 354 -4 307 -7 324 -11 b 401 28 383 1 396 11 l 574 490 l 744 8 b 796 -4 749 -7 765 -11 b 843 28 828 1 836 11 l 1042 501 b 1138 639 1088 610 1138 603 b 1083 665 1138 660 1115 665 z "},"ẃ":{"ha":1153,"x_min":0,"x_max":0,"o":"m 529 758 b 761 861 589 736 740 803 b 729 939 775 897 757 928 b 608 881 692 951 658 922 b 514 783 558 835 521 799 b 529 758 511 775 513 764 z m 1004 665 b 950 639 971 665 950 660 b 978 501 950 603 1022 610 l 829 146 l 642 660 b 600 675 636 674 625 681 b 565 647 579 669 571 661 l 382 150 l 243 499 b 283 638 200 608 283 601 b 228 665 283 658 260 665 l 72 665 b 18 638 38 665 18 658 b 110 499 18 601 67 608 l 301 8 b 354 -4 307 -7 324 -11 b 401 28 383 1 396 11 l 574 490 l 744 8 b 796 -4 749 -7 765 -11 b 843 28 828 1 836 11 l 1042 501 b 1138 639 1088 610 1138 603 b 1083 665 1138 660 1115 665 z "},"ŵ":{"ha":1153,"x_min":0,"x_max":0,"o":"m 475 749 b 619 839 511 747 579 796 b 765 749 661 796 729 747 b 783 768 781 750 783 758 b 717 869 782 781 750 819 b 622 949 672 936 669 949 b 519 864 579 949 569 935 b 457 768 483 817 458 781 b 475 749 457 758 460 750 z m 1004 665 b 950 639 971 665 950 660 b 978 501 950 603 1022 610 l 829 146 l 642 660 b 600 675 636 674 625 681 b 565 647 579 669 571 661 l 382 150 l 243 499 b 283 638 200 608 283 601 b 228 665 283 658 260 665 l 72 665 b 18 638 38 665 18 658 b 110 499 18 601 67 608 l 301 8 b 354 -4 307 -7 324 -11 b 401 28 383 1 396 11 l 574 490 l 744 8 b 796 -4 749 -7 765 -11 b 843 28 828 1 836 11 l 1042 501 b 1138 639 1088 610 1138 603 b 1083 665 1138 660 1115 665 z "},"ẅ":{"ha":1153,"x_min":0,"x_max":0,"o":"m 500 789 b 588 868 544 789 588 824 b 522 932 588 906 561 932 b 440 846 476 932 440 888 b 500 789 440 811 467 789 z m 701 789 b 789 868 746 789 789 824 b 724 932 789 906 761 932 b 642 846 678 932 642 888 b 701 789 642 811 668 789 z m 1004 665 b 950 639 971 665 950 660 b 978 501 950 603 1022 610 l 829 146 l 642 660 b 600 675 636 674 625 681 b 565 647 579 669 571 661 l 382 150 l 243 499 b 283 638 200 608 283 601 b 228 665 283 658 260 665 l 72 665 b 18 638 38 665 18 658 b 110 499 18 601 67 608 l 301 8 b 354 -4 307 -7 324 -11 b 401 28 383 1 396 11 l 574 490 l 744 8 b 796 -4 749 -7 765 -11 b 843 28 828 1 836 11 l 1042 501 b 1138 639 1088 610 1138 603 b 1083 665 1138 660 1115 665 z "},"ẁ":{"ha":1153,"x_min":0,"x_max":0,"o":"m 731 758 b 746 783 747 764 749 775 b 653 881 739 799 701 835 b 532 939 601 922 568 951 b 499 861 503 928 485 897 b 731 758 519 803 671 736 z m 1004 665 b 950 639 971 665 950 660 b 978 501 950 603 1022 610 l 829 146 l 642 660 b 600 675 636 674 625 681 b 565 647 579 669 571 661 l 382 150 l 243 499 b 283 638 200 608 283 601 b 228 665 283 658 260 665 l 72 665 b 18 638 38 665 18 658 b 110 499 18 601 67 608 l 301 8 b 354 -4 307 -7 324 -11 b 401 28 383 1 396 11 l 574 490 l 744 8 b 796 -4 749 -7 765 -11 b 843 28 828 1 836 11 l 1042 501 b 1138 639 1088 610 1138 603 b 1083 665 1138 660 1115 665 z "},"x":{"ha":732,"x_min":0,"x_max":0,"o":"m 547 511 b 674 640 618 606 674 604 b 619 667 674 661 651 667 l 521 667 b 467 640 486 667 467 661 b 475 511 467 604 546 606 l 396 407 l 324 510 b 336 640 256 606 336 604 b 282 667 336 661 314 667 l 97 667 b 43 640 63 667 43 661 b 169 510 43 604 101 606 l 299 326 l 164 156 b 36 28 92 63 36 63 b 92 0 36 6 58 0 l 189 0 b 243 26 224 0 243 6 b 236 156 243 63 164 63 l 332 279 l 418 157 b 406 28 486 61 406 63 b 461 0 406 6 428 0 l 644 0 b 699 26 679 0 699 6 b 572 157 699 63 640 61 l 431 357 z "},"y":{"ha":740,"x_min":0,"x_max":0,"o":"m 594 667 b 540 640 561 667 540 661 b 569 501 540 604 611 611 l 413 99 l 256 501 b 294 640 213 611 294 604 b 240 667 294 661 272 667 l 85 667 b 31 640 50 667 31 661 b 122 501 31 604 79 611 l 299 56 b 325 -53 313 22 325 -11 b 242 -204 325 -125 290 -204 b 108 -121 179 -204 165 -119 b 44 -194 69 -122 44 -157 b 175 -292 44 -243 92 -292 b 449 29 331 -292 375 -162 l 632 501 b 725 640 674 611 725 604 b 671 667 725 661 703 667 z "},"":{"ha":740,"x_min":0,"x_max":0,"o":"m 594 667 b 540 640 561 667 540 661 b 569 501 540 604 611 611 l 413 99 l 256 501 b 294 640 213 611 294 604 b 240 667 294 661 272 667 l 85 667 b 31 640 50 667 31 661 b 122 501 31 604 79 611 l 299 56 b 325 -53 313 22 325 -11 b 242 -204 325 -125 290 -204 b 108 -121 179 -204 165 -119 b 44 -194 69 -122 44 -157 b 175 -292 44 -243 92 -292 b 449 29 331 -292 375 -162 l 632 501 b 725 640 674 611 725 604 b 671 667 725 661 703 667 z "},"ý":{"ha":740,"x_min":0,"x_max":0,"o":"m 283 758 b 515 861 343 736 494 803 b 483 939 529 897 511 928 b 363 881 446 951 413 922 b 268 783 313 835 275 799 b 283 758 265 775 267 764 z m 594 667 b 540 640 561 667 540 661 b 569 501 540 604 611 611 l 413 99 l 256 501 b 294 640 213 611 294 604 b 240 667 294 661 272 667 l 85 667 b 31 640 50 667 31 661 b 122 501 31 604 79 611 l 299 56 b 325 -53 313 22 325 -11 b 242 -204 325 -125 290 -204 b 108 -121 179 -204 165 -119 b 44 -194 69 -122 44 -157 b 175 -292 44 -243 92 -292 b 449 29 331 -292 375 -162 l 632 501 b 725 640 674 611 725 604 b 671 667 725 661 703 667 z "},"ŷ":{"ha":740,"x_min":0,"x_max":0,"o":"m 229 749 b 374 839 265 747 333 796 b 519 749 415 796 483 747 b 538 768 535 750 538 758 b 471 869 536 781 504 819 b 376 949 426 936 424 949 b 274 864 333 949 324 935 b 211 768 238 817 213 781 b 229 749 211 758 214 750 z m 594 667 b 540 640 561 667 540 661 b 569 501 540 604 611 611 l 413 99 l 256 501 b 294 640 213 611 294 604 b 240 667 294 661 272 667 l 85 667 b 31 640 50 667 31 661 b 122 501 31 604 79 611 l 299 56 b 325 -53 313 22 325 -11 b 242 -204 325 -125 290 -204 b 108 -121 179 -204 165 -119 b 44 -194 69 -122 44 -157 b 175 -292 44 -243 92 -292 b 449 29 331 -292 375 -162 l 632 501 b 725 640 674 611 725 604 b 671 667 725 661 703 667 z "},"ÿ":{"ha":740,"x_min":0,"x_max":0,"o":"m 254 789 b 342 868 299 789 342 824 b 276 932 342 906 315 932 b 194 846 231 932 194 888 b 254 789 194 811 221 789 z m 456 789 b 543 868 500 789 543 824 b 478 932 543 906 515 932 b 396 846 432 932 396 888 b 456 789 396 811 422 789 z m 594 667 b 540 640 561 667 540 661 b 569 501 540 604 611 611 l 413 99 l 256 501 b 294 640 213 611 294 604 b 240 667 294 661 272 667 l 85 667 b 31 640 50 667 31 661 b 122 501 31 604 79 611 l 299 56 b 325 -53 313 22 325 -11 b 242 -204 325 -125 290 -204 b 108 -121 179 -204 165 -119 b 44 -194 69 -122 44 -157 b 175 -292 44 -243 92 -292 b 449 29 331 -292 375 -162 l 632 501 b 725 640 674 611 725 604 b 671 667 725 661 703 667 z "},"ỳ":{"ha":740,"x_min":0,"x_max":0,"o":"m 485 758 b 500 783 501 764 503 775 b 407 881 493 799 456 835 b 286 939 356 922 322 951 b 253 861 257 928 239 897 b 485 758 274 803 425 736 z m 594 667 b 540 640 561 667 540 661 b 569 501 540 604 611 611 l 413 99 l 256 501 b 294 640 213 611 294 604 b 240 667 294 661 272 667 l 85 667 b 31 640 50 667 31 661 b 122 501 31 604 79 611 l 299 56 b 325 -53 313 22 325 -11 b 242 -204 325 -125 290 -204 b 108 -121 179 -204 165 -119 b 44 -194 69 -122 44 -157 b 175 -292 44 -243 92 -292 b 449 29 331 -292 375 -162 l 632 501 b 725 640 674 611 725 604 b 671 667 725 661 703 667 z "},"z":{"ha":704,"x_min":0,"x_max":0,"o":"m 642 200 b 594 168 622 206 610 190 b 393 58 547 94 481 58 l 228 58 l 638 622 b 614 667 656 647 643 667 l 161 667 b 83 603 118 667 96 644 b 61 524 75 576 67 551 b 74 476 56 500 60 482 b 121 507 93 471 106 485 b 325 608 171 572 238 608 l 476 608 l 67 44 b 90 0 49 19 60 0 l 557 0 b 631 65 600 0 619 24 b 650 153 639 93 646 118 b 642 200 654 176 656 194 z "},"ź":{"ha":704,"x_min":0,"x_max":0,"o":"m 283 758 b 515 861 343 736 494 803 b 483 939 529 897 511 928 b 363 881 446 951 413 922 b 268 783 313 835 275 799 b 283 758 265 775 267 764 z m 642 200 b 594 168 622 206 610 190 b 393 58 547 94 481 58 l 228 58 l 638 622 b 614 667 656 647 643 667 l 161 667 b 83 603 118 667 96 644 b 61 524 75 576 67 551 b 74 476 56 500 60 482 b 121 507 93 471 106 485 b 325 608 171 572 238 608 l 476 608 l 67 44 b 90 0 49 19 60 0 l 557 0 b 631 65 600 0 619 24 b 650 153 639 93 646 118 b 642 200 654 176 656 194 z "},"ž":{"ha":704,"x_min":0,"x_max":0,"o":"m 376 744 b 471 824 424 744 426 757 b 538 925 504 874 536 913 b 519 944 538 935 535 943 b 374 856 483 947 415 897 b 229 944 333 897 265 947 b 211 925 214 943 211 935 b 274 829 213 913 238 876 b 376 744 324 758 333 744 z m 642 200 b 594 168 622 206 610 190 b 393 58 547 94 481 58 l 228 58 l 638 622 b 614 667 656 647 643 667 l 161 667 b 83 603 118 667 96 644 b 61 524 75 576 67 551 b 74 476 56 500 60 482 b 121 507 93 471 106 485 b 325 608 171 572 238 608 l 476 608 l 67 44 b 90 0 49 19 60 0 l 557 0 b 631 65 600 0 619 24 b 650 153 639 93 646 118 b 642 200 654 176 656 194 z "},"ż":{"ha":704,"x_min":0,"x_max":0,"o":"m 361 758 b 482 857 415 754 478 808 b 419 929 483 892 457 926 b 299 828 364 936 301 878 b 361 758 296 789 324 761 z m 642 200 b 594 168 622 206 610 190 b 393 58 547 94 481 58 l 228 58 l 638 622 b 614 667 656 647 643 667 l 161 667 b 83 603 118 667 96 644 b 61 524 75 576 67 551 b 74 476 56 500 60 482 b 121 507 93 471 106 485 b 325 608 171 572 238 608 l 476 608 l 67 44 b 90 0 49 19 60 0 l 557 0 b 631 65 600 0 619 24 b 650 153 639 93 646 118 b 642 200 654 176 656 194 z "},"ª":{"ha":504,"x_min":0,"x_max":0,"o":"m 472 615 b 428 661 456 614 438 618 l 388 850 b 239 986 371 925 335 986 b 76 917 160 986 97 947 b 96 897 64 900 79 888 b 214 933 132 918 164 933 b 318 814 289 933 300 885 b 224 825 285 822 260 825 b 43 685 118 825 43 768 b 210 553 43 611 104 553 b 356 624 260 553 319 576 b 417 556 364 581 375 556 b 489 604 456 556 489 583 b 472 615 489 614 482 615 z m 231 596 b 124 694 165 596 125 638 b 239 789 122 753 163 789 b 328 761 267 789 324 782 b 346 681 335 722 342 700 b 231 596 353 642 290 596 z "},"º":{"ha":528,"x_min":0,"x_max":0,"o":"m 251 553 b 478 779 385 553 478 651 b 278 986 478 897 393 986 b 49 754 143 986 49 885 b 251 553 49 631 135 553 z m 279 594 b 128 796 190 594 128 682 b 247 943 128 878 169 943 b 399 736 333 943 399 844 b 279 594 399 653 353 594 z "},"А":{"ha":953,"x_min":0,"x_max":0,"o":"m 221 251 b 447 293 236 293 236 293 b 663 253 647 293 647 293 l 697 165 b 654 26 740 57 654 72 b 710 0 654 7 676 0 l 872 0 b 940 31 921 0 940 7 b 838 165 940 72 883 51 l 529 947 b 493 972 524 964 511 972 l 367 972 b 328 943 336 972 328 961 b 376 832 328 899 407 908 l 114 164 b -1 26 68 47 -1 72 b 57 0 -1 6 22 0 l 169 0 b 221 29 199 0 221 6 b 186 164 221 71 143 51 z m 449 353 b 272 385 260 353 260 353 l 440 819 l 610 389 b 449 353 624 353 624 353 z "},"Б":{"ha":863,"x_min":0,"x_max":0,"o":"m 339 660 b 299 658 324 660 310 660 b 269 686 279 657 269 668 l 269 846 b 428 910 269 890 289 910 l 497 910 b 700 778 596 910 654 865 b 757 732 719 742 732 726 b 772 783 776 738 778 756 b 738 931 764 846 750 893 b 638 974 726 967 715 974 l 128 972 b 58 944 81 972 58 969 b 142 782 58 893 142 938 l 142 190 b 58 28 142 35 58 79 b 128 0 58 3 81 0 l 400 0 b 822 311 679 0 822 118 b 339 660 822 515 650 660 z m 397 63 b 269 103 285 63 269 76 l 269 563 b 333 600 269 592 281 601 b 682 286 526 597 682 469 b 397 63 682 118 561 63 z "},"В":{"ha":849,"x_min":0,"x_max":0,"o":"m 519 578 b 688 758 638 601 688 674 b 353 972 688 897 568 972 l 128 972 b 58 944 81 972 58 969 b 142 782 58 893 142 938 l 142 190 b 58 28 142 35 58 79 b 128 0 58 3 81 0 l 381 0 b 808 307 646 0 808 89 b 519 578 808 451 693 554 z m 269 854 b 353 910 269 903 296 910 b 554 743 472 910 554 843 b 350 608 554 653 500 608 b 269 636 307 608 269 607 z m 378 63 b 269 160 286 63 269 92 l 269 489 b 349 543 269 525 275 543 b 665 285 551 543 665 442 b 378 63 665 126 569 63 z "},"Г":{"ha":760,"x_min":0,"x_max":0,"o":"m 782 783 b 747 931 774 846 760 893 b 646 974 735 967 725 974 l 128 972 b 58 944 81 972 58 969 b 142 782 58 893 142 938 l 142 201 b 58 28 142 43 58 79 b 128 0 58 7 81 0 l 281 0 b 349 28 329 0 349 7 b 269 201 349 79 269 43 l 269 846 b 428 910 269 890 289 910 l 507 910 b 710 778 604 910 663 865 b 765 732 729 742 742 726 b 782 783 786 738 788 756 z "},"Ґ":{"ha":776,"x_min":0,"x_max":0,"o":"m 765 1151 b 710 1107 742 1157 729 1143 b 507 974 663 1019 604 974 l 128 972 b 58 944 81 972 58 969 b 142 782 58 893 142 938 l 142 201 b 58 28 142 43 58 79 b 128 0 58 7 81 0 l 281 0 b 349 28 329 0 349 7 b 269 201 349 79 269 43 l 269 846 b 428 910 269 890 289 910 l 646 910 b 747 953 725 910 735 918 b 782 1101 760 990 774 1038 b 765 1151 788 1128 786 1146 z "},"Д":{"ha":1026,"x_min":0,"x_max":0,"o":"m 1003 -122 b 985 15 1001 -67 996 -24 b 875 64 976 47 963 64 b 832 119 838 64 832 69 l 832 782 b 915 944 832 938 915 893 b 846 972 915 969 893 972 l 307 972 b 229 939 240 972 229 964 b 310 803 229 894 310 907 b 178 103 310 614 283 328 b 117 63 161 67 154 63 b 32 14 56 63 42 46 b 14 -124 21 -25 15 -68 b 42 -171 13 -149 15 -171 b 96 -117 63 -171 76 -156 b 269 -1 136 -42 186 -1 l 747 0 b 921 -115 832 0 882 -40 b 975 -169 942 -154 956 -169 b 1003 -122 1001 -169 1004 -147 z m 249 63 b 393 839 343 339 361 499 b 553 910 399 900 454 910 b 704 846 682 910 704 890 l 704 64 z "},"Е":{"ha":844,"x_min":0,"x_max":0,"o":"m 774 244 b 718 190 754 249 739 238 b 535 64 681 103 656 64 l 429 63 b 269 131 289 63 269 82 l 269 482 b 374 550 269 549 310 550 l 411 550 b 622 425 565 549 572 411 b 635 494 643 431 646 442 l 607 613 b 571 657 600 644 589 657 b 411 613 532 657 554 613 l 374 613 b 269 681 310 613 269 614 l 269 846 b 428 910 269 890 289 910 l 504 910 b 708 778 603 910 661 865 b 764 732 728 742 740 726 b 781 783 785 738 785 756 b 746 931 772 846 758 893 b 644 974 733 967 724 974 l 128 972 b 58 944 81 972 58 969 b 142 782 58 893 142 938 l 142 190 b 58 28 142 35 58 79 b 128 0 58 3 81 0 l 660 0 b 772 49 750 0 764 15 b 793 197 783 88 789 131 b 774 244 794 222 793 242 z "},"Ё":{"ha":844,"x_min":0,"x_max":0,"o":"m 314 1078 b 401 1156 358 1078 401 1111 b 336 1219 401 1193 374 1219 b 254 1133 290 1219 254 1175 b 314 1078 254 1099 281 1078 z m 515 1078 b 603 1156 558 1078 603 1111 b 536 1219 603 1193 575 1219 b 454 1133 492 1219 454 1175 b 515 1078 454 1099 481 1078 z m 774 244 b 718 190 754 249 739 238 b 535 64 681 103 656 64 l 429 63 b 269 131 289 63 269 82 l 269 482 b 374 550 269 549 310 550 l 411 550 b 622 425 565 549 572 411 b 635 494 643 431 646 442 l 607 613 b 571 657 600 644 589 657 b 411 613 532 657 554 613 l 374 613 b 269 681 310 613 269 614 l 269 846 b 428 910 269 890 289 910 l 504 910 b 708 778 603 910 661 865 b 764 732 728 742 740 726 b 781 783 785 738 785 756 b 746 931 772 846 758 893 b 644 974 733 967 724 974 l 128 972 b 58 944 81 972 58 969 b 142 782 58 893 142 938 l 142 190 b 58 28 142 35 58 79 b 128 0 58 3 81 0 l 660 0 b 772 49 750 0 764 15 b 793 197 783 88 789 131 b 774 244 794 222 793 242 z "},"Ж":{"ha":1447,"x_min":0,"x_max":0,"o":"m 1217 835 b 1367 944 1310 921 1367 896 b 1297 972 1367 965 1344 972 l 1154 972 b 1107 943 1126 972 1107 965 b 1119 835 1107 896 1199 908 l 783 529 l 783 771 b 864 944 783 929 864 893 b 796 972 864 965 842 972 l 646 972 b 576 944 596 972 576 965 b 656 771 576 893 656 929 l 656 540 l 331 835 b 343 943 250 908 343 896 b 294 972 343 965 324 972 l 151 972 b 83 944 106 972 83 965 b 233 835 83 896 140 921 l 365 714 l 111 150 b 4 28 67 53 4 72 b 58 0 4 7 24 0 l 210 0 b 279 32 256 0 279 7 b 251 153 279 68 213 65 l 458 631 l 656 450 l 656 201 b 574 28 656 43 574 79 b 643 0 574 7 596 0 l 793 0 b 861 28 842 0 861 7 b 783 201 861 79 783 43 l 783 440 l 990 629 l 1199 153 b 1171 32 1236 65 1171 68 b 1240 0 1171 7 1193 0 l 1392 0 b 1446 28 1426 0 1446 7 b 1339 150 1446 72 1383 53 l 1085 714 z "},"З":{"ha":785,"x_min":0,"x_max":0,"o":"m 468 538 b 669 774 583 563 672 654 b 401 983 667 929 522 983 b 228 968 308 983 268 968 b 165 983 196 968 188 983 b 114 910 139 983 128 969 b 92 758 104 869 94 813 b 115 711 90 731 93 711 b 167 757 135 711 147 724 b 382 919 211 828 261 919 b 532 768 465 919 532 869 b 289 567 532 650 463 583 b 290 501 244 563 244 503 b 586 258 511 494 586 393 b 372 54 586 129 493 54 b 133 224 247 54 175 133 b 89 274 118 257 108 271 b 61 232 68 275 60 257 b 83 100 65 163 75 138 b 192 7 96 43 135 21 b 343 -11 232 -4 283 -10 b 728 279 554 -15 728 81 b 468 538 728 406 644 511 z "},"И":{"ha":1097,"x_min":0,"x_max":0,"o":"m 281 0 b 349 28 329 0 349 7 b 271 150 349 75 281 57 b 285 189 269 167 272 176 l 828 726 l 828 176 b 824 133 828 163 826 147 b 746 28 813 57 746 71 b 814 0 746 7 768 0 l 968 0 b 1036 28 1017 0 1036 7 b 961 133 1036 71 975 56 b 957 176 958 147 957 163 l 957 796 b 961 839 957 810 958 825 b 1039 944 972 917 1039 901 b 971 972 1039 965 1017 972 l 817 972 b 749 944 768 972 749 965 b 826 838 749 906 814 913 b 813 801 829 824 825 813 l 269 264 l 269 796 b 274 839 269 810 271 825 b 351 944 285 917 351 901 b 283 972 351 965 329 972 l 131 972 b 61 944 81 972 61 965 b 138 839 61 901 124 917 b 142 796 140 825 142 810 l 142 176 b 138 133 142 163 140 147 b 58 28 125 57 58 71 b 128 0 58 7 81 0 z "},"Й":{"ha":1097,"x_min":0,"x_max":0,"o":"m 546 1047 b 753 1193 658 1047 753 1108 b 706 1240 753 1218 733 1240 b 547 1101 629 1240 642 1101 b 386 1240 451 1101 463 1240 b 340 1193 360 1240 340 1218 b 546 1047 340 1110 429 1047 z m 281 0 b 349 28 329 0 349 7 b 271 150 349 75 281 57 b 285 189 269 167 272 176 l 828 726 l 828 176 b 824 133 828 163 826 147 b 746 28 813 57 746 71 b 814 0 746 7 768 0 l 968 0 b 1036 28 1017 0 1036 7 b 961 133 1036 71 975 56 b 957 176 958 147 957 163 l 957 796 b 961 839 957 810 958 825 b 1039 944 972 917 1039 901 b 971 972 1039 965 1017 972 l 817 972 b 749 944 768 972 749 965 b 826 838 749 906 814 913 b 813 801 829 824 825 813 l 269 264 l 269 796 b 274 839 269 810 271 825 b 351 944 285 917 351 901 b 283 972 351 965 329 972 l 131 972 b 61 944 81 972 61 965 b 138 839 61 901 124 917 b 142 796 140 825 142 810 l 142 176 b 138 133 142 163 140 147 b 58 28 125 57 58 71 b 128 0 58 7 81 0 z "},"К":{"ha":965,"x_min":0,"x_max":0,"o":"m 735 835 b 885 944 828 921 885 896 b 817 972 885 965 863 972 l 675 972 b 628 943 647 972 628 965 b 642 835 628 896 719 908 l 269 488 l 269 771 b 351 944 269 929 351 893 b 283 972 351 965 329 972 l 131 972 b 61 944 81 972 61 965 b 142 771 61 893 142 929 l 142 201 b 58 28 142 43 58 79 b 128 0 58 7 81 0 l 281 0 b 349 28 329 0 349 7 b 269 201 349 79 269 43 l 269 400 l 511 626 l 717 151 b 689 32 756 65 689 68 b 758 0 689 7 713 0 l 910 0 b 964 28 944 0 964 7 b 857 150 964 72 901 51 l 604 713 z "},"Л":{"ha":988,"x_min":0,"x_max":0,"o":"m 142 -14 b 279 51 188 -14 238 -3 b 411 839 385 183 393 518 b 576 910 415 900 465 910 b 721 846 694 910 721 890 l 721 203 b 639 29 721 44 639 81 b 707 1 639 8 661 1 l 860 1 b 929 29 910 1 929 8 b 849 203 929 81 849 44 l 849 806 b 926 947 849 908 926 908 b 849 972 926 964 913 972 l 336 972 b 258 947 272 972 258 964 b 338 803 258 908 338 907 b 190 101 338 414 283 101 b 82 185 138 101 144 185 b 11 103 49 185 11 161 b 142 -14 11 24 81 -14 z "},"М":{"ha":1226,"x_min":0,"x_max":0,"o":"m 1061 814 b 1128 946 1057 918 1128 904 b 1074 972 1128 965 1114 972 l 969 972 b 932 946 951 972 939 964 l 603 224 l 301 946 b 264 972 294 964 282 972 l 153 972 b 99 946 113 972 99 965 b 165 814 99 908 169 908 l 140 167 b 60 29 136 56 60 75 b 121 0 60 7 82 0 l 215 0 b 278 29 258 0 278 6 b 210 167 278 75 206 56 l 232 792 l 531 76 b 575 61 536 63 549 56 b 613 90 596 67 604 75 l 939 801 l 954 174 b 878 31 957 63 878 79 b 947 0 878 7 900 0 l 1099 0 b 1160 31 1140 0 1160 7 b 1082 174 1160 81 1085 61 z "},"Н":{"ha":1074,"x_min":0,"x_max":0,"o":"m 932 771 b 1015 944 932 929 1015 893 b 946 972 1015 965 993 972 l 793 972 b 725 944 744 972 725 965 b 804 771 725 893 804 929 l 804 614 b 546 547 804 547 804 547 b 269 614 269 547 269 547 l 269 771 b 351 944 269 929 351 893 b 283 972 351 965 329 972 l 131 972 b 61 944 81 972 61 965 b 142 771 61 893 142 929 l 142 201 b 58 28 142 43 58 79 b 128 0 58 7 81 0 l 281 0 b 349 28 329 0 349 7 b 269 201 349 79 269 43 l 269 418 b 544 485 269 485 269 485 b 804 418 804 485 804 485 l 804 201 b 722 28 804 43 722 79 b 790 0 722 7 744 0 l 943 0 b 1013 28 993 0 1013 7 b 932 201 1013 79 932 43 z "},"О":{"ha":1072,"x_min":0,"x_max":0,"o":"m 507 -14 b 1017 521 811 -14 1017 215 b 565 986 1017 786 842 986 b 54 447 267 986 54 746 b 507 -14 54 181 233 -14 z m 567 67 b 182 550 331 67 182 278 b 513 913 182 725 297 913 b 888 442 744 913 888 693 b 567 67 888 247 779 67 z "},"П":{"ha":1031,"x_min":0,"x_max":0,"o":"m 889 782 b 972 944 889 938 972 893 b 903 972 972 969 950 972 l 128 972 b 58 944 81 972 58 969 b 142 782 58 893 142 938 l 142 203 b 58 29 142 44 58 81 b 128 1 58 8 81 1 l 281 1 b 349 29 329 1 349 8 b 269 203 349 81 269 44 l 269 846 b 521 908 269 890 288 908 b 761 846 742 908 761 890 l 761 203 b 678 29 761 44 678 81 b 747 1 678 8 700 1 l 900 1 b 969 29 950 1 969 8 b 889 203 969 81 889 44 z "},"Р":{"ha":869,"x_min":0,"x_max":0,"o":"m 128 972 b 58 944 81 972 58 969 b 142 782 58 893 142 938 l 142 201 b 58 28 142 43 58 79 b 128 0 58 7 81 0 l 281 0 b 349 28 329 0 349 7 b 269 201 349 79 269 43 l 269 282 b 297 310 269 308 271 310 l 415 310 b 835 629 693 310 835 426 b 376 972 835 817 676 972 z m 411 371 b 269 411 283 371 269 385 l 269 874 b 374 911 269 903 281 911 b 696 603 567 911 696 781 b 411 371 696 426 576 371 z "},"С":{"ha":950,"x_min":0,"x_max":0,"o":"m 522 -14 b 893 161 731 -14 854 100 b 860 206 919 203 888 236 b 567 72 793 132 708 72 b 188 524 340 72 188 267 b 515 910 188 726 310 910 b 800 738 661 910 740 831 b 857 688 821 706 833 685 b 878 735 878 690 883 708 b 839 910 864 818 850 869 b 786 983 822 968 813 983 b 718 965 763 983 749 965 b 549 986 678 965 629 986 b 54 463 268 986 54 757 b 522 -14 54 179 233 -14 z "},"Т":{"ha":885,"x_min":0,"x_max":0,"o":"m 507 842 b 581 911 507 890 526 911 b 756 783 689 911 710 869 b 807 729 776 743 789 729 b 835 776 833 729 836 751 b 817 925 833 843 828 886 b 704 974 808 958 793 974 l 181 972 b 68 924 92 972 76 957 b 50 775 57 885 51 842 b 78 728 49 750 51 728 b 129 783 96 728 108 743 b 304 910 175 868 196 910 b 378 840 360 910 378 889 l 378 201 b 296 28 378 43 296 79 b 364 0 296 7 318 0 l 518 0 b 586 28 567 0 586 7 b 507 201 586 79 507 43 z "},"У":{"ha":893,"x_min":0,"x_max":0,"o":"m 721 971 b 671 942 692 971 671 965 b 700 808 671 900 750 919 l 508 382 l 275 814 b 307 947 226 906 307 908 b 246 972 307 965 293 972 l 78 972 b 29 947 44 972 29 965 b 126 814 29 911 76 907 l 435 247 b 436 228 438 242 439 235 b 326 97 403 146 372 97 b 226 161 276 97 286 161 b 158 81 192 161 158 128 b 271 -14 158 8 229 -14 b 515 240 360 -14 422 33 l 772 808 b 892 944 825 924 892 899 b 833 971 892 965 868 971 z "},"Ф":{"ha":1099,"x_min":0,"x_max":0,"o":"m 624 0 b 693 28 674 0 693 7 b 613 172 693 81 618 33 b 628 188 613 183 618 189 b 729 182 660 185 688 182 b 1044 492 901 182 1044 308 b 735 799 1044 667 917 799 b 625 794 693 799 663 797 b 613 810 617 793 613 799 b 696 944 619 931 696 894 b 626 972 696 965 674 972 l 474 972 b 406 944 425 972 406 965 b 485 810 406 892 479 936 b 471 794 486 799 481 793 b 364 799 433 797 400 799 b 54 492 194 799 54 671 b 369 182 54 313 189 182 b 471 186 406 182 439 185 b 485 171 479 188 485 182 b 403 28 481 39 403 79 b 471 0 403 7 425 0 z m 436 243 b 190 492 289 243 190 353 b 436 736 190 643 267 736 b 485 733 451 736 468 735 l 485 249 b 436 243 469 246 451 243 z m 669 243 b 613 249 651 243 632 244 l 613 733 b 663 736 631 735 647 736 b 908 492 831 736 908 644 b 669 243 908 349 821 243 z "},"Х":{"ha":985,"x_min":0,"x_max":0,"o":"m 792 831 b 928 946 858 925 928 900 b 871 972 928 967 904 972 l 758 972 b 708 943 729 972 708 967 b 713 831 708 901 778 921 l 517 560 l 324 818 b 349 946 254 910 349 901 b 292 972 349 967 326 972 l 100 972 b 33 943 54 972 33 967 b 165 818 33 901 92 915 l 413 486 l 165 142 b 29 26 97 47 29 72 b 86 0 29 6 53 0 l 199 0 b 249 29 228 0 249 6 b 244 142 249 71 179 51 l 453 433 l 661 154 b 638 26 731 63 638 71 b 693 0 638 6 660 0 l 886 0 b 951 29 931 0 951 6 b 821 154 951 71 894 57 l 557 507 z "},"Ч":{"ha":974,"x_min":0,"x_max":0,"o":"m 832 771 b 915 944 832 929 915 893 b 846 972 915 965 893 972 l 693 972 b 625 944 644 972 625 965 b 704 771 625 893 704 929 l 704 438 b 450 410 608 419 514 410 b 232 713 247 410 231 544 l 233 768 b 317 942 236 926 317 890 b 247 969 317 963 294 969 l 94 969 b 26 942 46 969 26 963 b 106 768 26 890 106 926 l 106 683 b 418 346 106 497 156 346 b 704 374 492 346 596 356 l 704 201 b 622 28 704 43 622 79 b 690 0 622 7 644 0 l 843 0 b 913 28 893 0 913 7 b 832 201 913 79 832 43 z "},"Ц":{"ha":1069,"x_min":0,"x_max":0,"o":"m 1046 -122 b 1028 15 1044 -67 1039 -24 b 942 64 1018 47 1004 64 b 889 119 907 64 889 83 l 889 771 b 972 943 889 928 972 892 b 903 971 972 965 950 971 l 750 971 b 681 943 700 971 681 965 b 761 771 681 892 761 928 l 761 126 b 519 64 761 82 743 64 b 269 126 289 64 269 82 l 269 771 b 351 943 269 928 351 892 b 283 971 351 965 329 971 l 131 971 b 61 943 81 971 61 965 b 142 771 61 892 142 928 l 142 190 b 58 28 142 35 58 79 b 128 0 58 3 81 0 l 790 0 b 964 -115 874 0 924 -40 b 1018 -169 983 -154 997 -169 b 1046 -122 1043 -169 1047 -147 z "},"Ш":{"ha":1483,"x_min":0,"x_max":0,"o":"m 1342 771 b 1425 943 1342 928 1425 892 b 1356 971 1425 965 1403 971 l 1203 971 b 1135 943 1154 971 1135 965 b 1214 771 1135 892 1214 928 l 1214 126 b 1014 64 1214 82 1196 64 b 806 126 825 64 806 82 l 806 771 b 886 943 806 928 886 892 b 818 971 886 965 864 971 l 668 971 b 600 943 619 971 600 965 b 678 771 600 892 678 928 l 678 126 b 478 64 678 82 660 64 b 269 126 289 64 269 82 l 269 771 b 351 943 269 928 351 892 b 283 971 351 965 329 971 l 131 971 b 61 943 81 971 61 965 b 142 771 61 892 142 928 l 142 190 b 58 28 142 35 58 79 b 128 0 58 3 81 0 l 1356 0 b 1425 28 1403 0 1425 3 b 1342 190 1425 79 1342 35 z "},"Щ":{"ha":1522,"x_min":0,"x_max":0,"o":"m 1499 -122 b 1481 15 1497 -67 1492 -24 b 1394 64 1471 47 1457 64 b 1342 119 1360 64 1342 83 l 1342 771 b 1425 943 1342 928 1425 892 b 1356 971 1425 965 1403 971 l 1203 971 b 1135 943 1154 971 1135 965 b 1214 771 1135 892 1214 928 l 1214 126 b 1014 64 1214 82 1196 64 b 806 126 825 64 806 82 l 806 771 b 886 943 806 928 886 892 b 818 971 886 965 864 971 l 668 971 b 600 943 619 971 600 965 b 678 771 600 892 678 928 l 678 126 b 478 64 678 82 660 64 b 269 126 289 64 269 82 l 269 771 b 351 943 269 928 351 892 b 283 971 351 965 329 971 l 131 971 b 61 943 81 971 61 965 b 142 771 61 892 142 928 l 142 190 b 58 28 142 35 58 79 b 128 0 58 3 81 0 l 1243 0 b 1417 -115 1326 0 1376 -40 b 1471 -169 1436 -154 1450 -169 b 1499 -122 1497 -169 1500 -147 z "},"Ь":{"ha":874,"x_min":0,"x_max":0,"o":"m 339 660 b 299 658 324 660 310 660 b 269 686 279 657 269 668 l 269 771 b 351 943 269 928 351 892 b 283 971 351 965 329 971 l 131 971 b 61 943 81 971 61 965 b 142 771 61 892 142 928 l 142 190 b 58 28 142 35 58 79 b 128 0 58 3 81 0 l 400 0 b 822 311 679 0 822 118 b 339 660 822 515 650 660 z m 397 60 b 269 100 285 60 269 74 l 269 563 b 333 600 269 592 281 601 b 682 286 526 597 682 469 b 397 60 682 118 561 60 z "},"Ы":{"ha":1271,"x_min":0,"x_max":0,"o":"m 1129 771 b 1213 944 1129 929 1213 893 b 1143 972 1213 965 1190 972 l 990 972 b 921 944 940 972 921 965 b 1001 771 921 893 1001 929 l 1001 201 b 918 28 1001 43 918 79 b 988 0 918 7 940 0 l 1140 0 b 1210 28 1190 0 1210 7 b 1129 201 1210 79 1129 43 z m 339 660 b 299 658 324 660 310 660 b 269 686 279 657 269 668 l 269 771 b 351 943 269 928 351 892 b 283 971 351 965 329 971 l 131 971 b 61 943 81 971 61 965 b 142 771 61 892 142 928 l 142 190 b 58 28 142 35 58 79 b 128 0 58 3 81 0 l 400 0 b 822 311 679 0 822 118 b 339 660 822 515 650 660 z m 397 60 b 269 100 285 60 269 74 l 269 563 b 333 600 269 592 281 601 b 682 286 526 597 682 469 b 397 60 682 118 561 60 z "},"Ъ":{"ha":1082,"x_min":0,"x_max":0,"o":"m 517 660 b 475 658 500 660 488 660 b 446 686 456 657 446 668 l 446 782 b 529 944 446 938 529 893 b 460 972 529 969 507 972 l 136 972 b 28 924 49 972 36 960 b 6 743 17 885 8 813 b 29 696 4 715 7 696 b 76 750 47 696 58 708 b 243 910 114 840 149 910 b 318 828 275 910 318 910 l 318 193 b 236 31 318 38 236 82 b 304 3 236 6 258 3 l 318 3 l 318 0 l 576 0 b 999 311 856 0 999 118 b 517 660 999 515 828 660 z m 574 63 b 446 103 461 63 446 76 l 446 563 b 510 600 446 592 458 601 b 860 286 704 597 860 469 b 574 63 860 118 739 63 z "},"Є":{"ha":921,"x_min":0,"x_max":0,"o":"m 831 192 b 561 89 764 133 679 89 b 190 472 357 89 208 243 b 365 418 254 436 313 418 b 569 488 450 418 500 488 b 721 431 626 488 689 431 b 751 457 742 431 751 442 b 533 582 751 494 617 582 b 303 506 460 582 389 506 b 188 540 268 506 229 515 b 504 914 193 736 297 914 b 797 731 671 914 738 814 b 847 682 819 699 828 682 b 869 731 869 682 874 703 b 833 910 857 813 843 869 b 781 983 819 968 807 983 b 719 967 758 983 750 967 b 546 986 679 967 638 986 b 54 463 254 986 54 757 b 508 -14 54 179 233 -14 b 863 144 703 -14 825 85 b 831 192 890 188 863 217 z "},"Э":{"ha":915,"x_min":0,"x_max":0,"o":"m 415 986 b 193 967 292 986 233 967 b 131 983 161 967 153 983 b 78 910 104 983 92 968 b 56 731 68 869 58 813 b 79 682 54 703 57 682 b 128 732 99 682 108 699 b 407 926 176 814 238 926 b 724 540 613 926 715 746 b 610 506 683 515 646 506 b 381 582 524 506 453 582 b 161 457 296 582 161 494 b 192 431 161 442 171 431 b 343 488 224 431 286 488 b 547 418 414 488 463 418 b 724 472 600 418 658 436 b 415 57 713 244 594 57 b 136 224 275 57 183 136 b 90 275 117 258 108 272 b 61 233 68 276 60 258 b 83 101 65 164 75 139 b 192 8 96 44 136 22 b 363 -11 232 -3 289 -10 b 860 518 679 -14 860 233 b 415 986 860 800 675 986 z "},"І":{"ha":410,"x_min":0,"x_max":0,"o":"m 142 201 b 58 28 142 43 58 79 b 128 0 58 7 81 0 l 281 0 b 349 28 329 0 349 7 b 269 201 349 79 269 43 l 269 771 b 351 944 269 929 351 893 b 283 972 351 965 329 972 l 131 972 b 61 944 81 972 61 965 b 142 771 61 893 142 929 z "},"Ї":{"ha":410,"x_min":0,"x_max":0,"o":"m 97 1078 b 185 1156 142 1078 185 1111 b 119 1219 185 1193 157 1219 b 38 1133 74 1219 38 1175 b 97 1078 38 1099 64 1078 z m 299 1078 b 386 1156 342 1078 386 1111 b 319 1219 386 1193 358 1219 b 238 1133 275 1219 238 1175 b 299 1078 238 1099 264 1078 z m 142 201 b 58 28 142 43 58 79 b 128 0 58 7 81 0 l 281 0 b 349 28 329 0 349 7 b 269 201 349 79 269 43 l 269 771 b 351 944 269 929 351 893 b 283 972 351 965 329 972 l 131 972 b 61 944 81 972 61 965 b 142 771 61 893 142 929 z "},"Ю":{"ha":1494,"x_min":0,"x_max":0,"o":"m 988 986 b 481 521 714 986 513 785 l 269 521 l 269 771 b 351 944 269 929 351 893 b 283 972 351 965 329 972 l 131 972 b 61 944 81 972 61 965 b 142 771 61 893 142 929 l 142 201 b 58 28 142 43 58 79 b 128 0 58 7 81 0 l 281 0 b 349 28 329 0 349 7 b 269 201 349 79 269 43 l 269 458 l 476 458 l 476 447 b 929 -14 476 181 656 -14 b 1439 521 1232 -14 1439 215 b 988 986 1439 786 1263 986 z m 988 67 b 603 550 753 67 603 278 b 935 913 603 725 718 913 b 1310 442 1167 913 1310 693 b 988 67 1310 247 1201 67 z "},"Я":{"ha":894,"x_min":0,"x_max":0,"o":"m 753 782 b 836 944 753 938 836 893 b 767 972 836 969 814 972 l 546 972 b 92 626 251 972 92 826 b 271 369 92 514 153 421 l 153 146 b 47 28 106 53 47 72 b 101 0 47 7 67 0 l 251 0 b 319 32 296 0 319 7 b 293 151 319 68 250 67 l 388 338 b 494 329 421 332 457 329 l 597 329 b 625 301 624 329 625 329 l 625 203 b 544 29 625 44 544 81 b 614 1 544 8 564 1 l 767 1 b 836 29 814 1 836 8 b 753 203 836 81 753 44 z m 625 431 b 497 392 625 404 610 392 b 231 653 351 392 231 482 b 519 913 231 818 344 913 b 578 908 539 913 558 911 b 625 872 613 904 625 901 z "},"а":{"ha":763,"x_min":0,"x_max":0,"o":"m 721 86 b 650 161 694 86 665 90 l 586 463 b 347 679 560 583 500 679 b 88 569 221 679 121 618 b 118 538 69 542 92 521 b 307 596 176 571 228 596 b 474 406 428 596 446 517 b 324 424 421 418 382 424 b 35 199 154 424 35 332 b 301 -14 35 81 132 -14 b 536 97 382 -14 478 25 b 632 -10 549 31 567 -10 b 749 69 694 -10 749 35 b 721 86 749 85 736 86 z m 333 56 b 163 214 229 56 167 124 b 349 365 161 307 226 365 b 489 319 392 365 483 353 b 518 190 501 258 513 222 b 333 56 529 129 429 56 z "},"б":{"ha":783,"x_min":0,"x_max":0,"o":"m 429 686 b 149 467 311 686 196 618 b 293 792 158 649 215 758 b 594 858 406 847 503 813 b 683 981 653 886 683 928 b 642 997 683 1011 663 1014 b 590 971 626 988 613 979 b 482 953 563 958 525 956 b 276 910 394 947 321 933 b 58 417 118 831 58 638 b 401 -14 60 118 225 -14 b 732 356 604 -14 732 147 b 429 686 732 535 614 686 z m 432 54 b 196 360 271 54 196 211 b 389 603 196 497 276 603 b 607 318 519 603 600 490 b 432 54 613 167 538 54 z "},"в":{"ha":708,"x_min":0,"x_max":0,"o":"m 474 371 b 601 514 549 389 603 440 b 329 667 600 624 493 667 l 129 667 b 63 636 86 667 63 661 b 125 540 63 599 114 613 b 129 496 128 525 129 511 l 129 171 b 125 128 129 156 128 142 b 63 31 114 54 63 68 b 129 0 63 6 86 0 l 339 0 b 661 193 538 0 661 58 b 474 371 661 274 608 347 z m 254 564 b 324 606 254 601 261 606 b 482 499 417 606 482 572 b 315 389 482 425 440 389 b 254 411 281 389 254 389 z m 333 60 b 254 126 263 60 254 67 l 254 315 b 271 331 254 325 260 331 l 317 331 b 538 186 464 331 538 271 b 333 60 538 93 476 60 z "},"г":{"ha":608,"x_min":0,"x_max":0,"o":"m 589 515 b 564 622 583 556 576 585 b 456 667 553 657 543 667 l 129 667 b 63 636 86 667 63 661 b 125 540 63 599 114 613 b 129 496 128 525 129 511 l 129 183 b 63 28 129 50 63 75 b 118 0 63 6 85 0 l 267 0 b 321 26 300 0 321 6 b 256 183 321 75 256 50 l 256 554 b 333 606 256 600 265 606 b 514 515 443 606 471 574 b 568 467 540 478 549 463 b 589 515 590 469 592 488 z "},"ґ":{"ha":608,"x_min":0,"x_max":0,"o":"m 568 806 b 514 757 549 810 540 794 b 332 667 471 699 443 667 l 129 667 b 63 636 86 667 63 661 b 125 540 63 599 114 613 b 129 496 128 525 129 511 l 129 183 b 63 28 129 50 63 75 b 118 0 63 6 85 0 l 267 0 b 321 26 300 0 321 6 b 256 183 321 75 256 50 l 254 540 b 332 606 254 585 271 606 l 456 606 b 564 650 543 606 553 615 b 589 757 576 688 583 717 b 568 806 592 785 590 803 z "},"д":{"ha":760,"x_min":0,"x_max":0,"o":"m 36 -157 b 89 -104 54 -157 71 -144 b 254 0 119 -32 140 0 l 493 0 b 660 -104 608 0 629 -32 b 711 -157 678 -144 693 -157 b 740 -103 733 -157 742 -137 b 725 14 738 -56 735 -25 b 654 60 718 44 708 56 b 632 82 639 61 632 69 l 632 500 b 708 639 632 603 708 599 b 632 667 708 658 696 667 l 213 667 b 136 639 149 667 136 658 b 214 497 136 597 214 601 b 119 75 214 419 183 193 b 94 61 114 65 106 61 b 22 14 42 57 31 44 b 8 -103 13 -25 11 -56 b 36 -157 7 -137 15 -157 z m 190 61 b 288 558 225 156 264 288 b 406 606 290 600 307 606 b 506 556 496 606 506 600 l 506 61 z "},"е":{"ha":729,"x_min":0,"x_max":0,"o":"m 643 179 b 424 81 593 126 517 81 b 189 256 294 81 215 175 b 647 417 350 308 497 358 b 679 474 679 429 685 449 b 401 681 654 593 553 681 b 49 310 196 681 49 519 b 374 -14 49 126 179 -14 b 683 154 549 -14 654 86 b 643 179 697 189 667 204 z m 358 615 b 529 474 435 618 515 560 b 503 426 533 449 525 435 b 179 314 401 388 293 351 b 171 399 172 338 171 364 b 358 615 171 500 233 614 z "},"ё":{"ha":729,"x_min":0,"x_max":0,"o":"m 276 789 b 364 868 321 789 364 824 b 299 932 364 906 338 932 b 217 846 253 932 217 888 b 276 789 217 811 243 789 z m 478 789 b 565 868 522 789 565 824 b 500 932 565 906 538 932 b 418 846 454 932 418 888 b 478 789 418 811 444 789 z m 643 179 b 424 81 593 126 517 81 b 189 256 294 81 215 175 b 647 417 350 308 497 358 b 679 474 679 429 685 449 b 401 681 654 593 553 681 b 49 310 196 681 49 519 b 374 -14 49 126 179 -14 b 683 154 549 -14 654 86 b 643 179 697 189 667 204 z m 358 615 b 529 474 435 618 515 560 b 503 426 533 449 525 435 b 179 314 401 388 293 351 b 171 399 172 338 171 364 b 358 615 171 500 233 614 z "},"ж":{"ha":1219,"x_min":0,"x_max":0,"o":"m 1000 549 b 1117 643 1075 629 1117 610 b 1072 667 1117 658 1103 667 l 936 667 b 897 642 904 667 897 656 b 926 561 897 614 967 604 l 672 290 l 672 483 b 739 640 672 617 739 592 b 683 667 739 661 717 667 l 535 667 b 481 640 501 667 481 661 b 546 483 481 592 546 617 l 546 293 l 294 561 b 324 642 253 604 324 614 b 283 667 324 656 315 667 l 147 667 b 103 643 117 667 103 658 b 221 549 103 610 146 629 l 282 483 l 131 140 b 36 25 96 63 36 63 b 97 0 36 6 51 0 l 240 0 b 294 25 281 0 294 6 b 254 119 294 64 229 65 l 372 388 l 546 201 l 546 183 b 478 28 546 50 478 75 b 533 0 478 6 501 0 l 682 0 b 736 26 717 0 736 6 b 672 183 736 75 672 50 l 672 199 l 849 388 l 967 119 b 925 25 990 65 925 64 b 981 0 925 6 939 0 l 1124 0 b 1183 25 1168 0 1183 6 b 1090 140 1183 63 1124 63 l 939 483 z "},"з":{"ha":614,"x_min":0,"x_max":0,"o":"m 386 371 b 521 529 467 389 522 449 b 311 681 519 636 414 681 b 178 668 232 681 208 668 b 133 681 156 668 150 681 b 90 632 115 681 100 669 b 67 524 82 599 72 561 b 85 489 65 503 68 489 b 125 521 99 489 108 499 b 288 619 164 572 210 619 b 390 526 364 619 390 572 b 200 388 390 472 354 400 b 199 333 168 383 165 335 b 428 186 382 328 428 261 b 278 61 428 89 356 61 b 86 132 194 61 128 93 b 49 104 61 154 28 138 b 307 -14 88 38 185 -14 b 561 197 438 -14 561 54 b 386 371 561 267 514 349 z "},"и":{"ha":849,"x_min":0,"x_max":0,"o":"m 267 0 b 321 26 300 0 321 6 b 260 126 321 68 275 50 b 274 163 257 144 258 149 l 596 433 l 597 171 b 593 128 597 156 596 142 b 531 28 582 54 531 68 b 586 0 531 6 553 0 l 735 0 b 789 26 768 0 789 6 b 726 128 789 68 740 54 b 722 171 724 142 722 156 l 722 496 b 726 540 722 511 724 525 b 789 640 738 613 789 599 b 733 667 789 661 767 667 l 585 667 b 531 640 551 667 531 661 b 592 538 531 599 578 611 b 578 499 594 518 596 514 l 254 225 l 254 496 b 258 540 254 511 256 525 b 321 640 269 613 321 599 b 265 667 321 661 299 667 l 117 667 b 63 640 83 667 63 661 b 124 540 63 599 110 613 b 128 496 126 525 128 511 l 129 171 b 125 128 129 156 128 142 b 63 28 114 54 63 68 b 118 0 63 6 85 0 z "},"й":{"ha":849,"x_min":0,"x_max":0,"o":"m 431 742 b 638 888 543 742 638 803 b 590 935 638 913 618 935 b 432 796 514 935 526 796 b 271 935 336 796 347 935 b 225 888 244 935 225 913 b 431 742 225 804 314 742 z m 267 0 b 321 26 300 0 321 6 b 260 126 321 68 275 50 b 274 163 257 144 258 149 l 596 433 l 597 171 b 593 128 597 156 596 142 b 531 28 582 54 531 68 b 586 0 531 6 553 0 l 735 0 b 789 26 768 0 789 6 b 726 128 789 68 740 54 b 722 171 724 142 722 156 l 722 496 b 726 540 722 511 724 525 b 789 640 738 613 789 599 b 733 667 789 661 767 667 l 585 667 b 531 640 551 667 531 661 b 592 538 531 599 578 611 b 578 499 594 518 596 514 l 254 225 l 254 496 b 258 540 254 511 256 525 b 321 640 269 613 321 599 b 265 667 321 661 299 667 l 117 667 b 63 640 83 667 63 661 b 124 540 63 599 110 613 b 128 496 126 525 128 511 l 129 171 b 125 128 129 156 128 142 b 63 28 114 54 63 68 b 118 0 63 6 85 0 z "},"к":{"ha":808,"x_min":0,"x_max":0,"o":"m 613 549 b 731 643 688 629 731 610 b 685 667 731 658 717 667 l 550 667 b 510 642 518 667 510 656 b 539 561 510 614 579 604 l 256 258 l 256 483 b 324 640 256 617 324 592 b 268 667 324 661 300 667 l 119 667 b 65 640 85 667 65 661 b 129 483 65 592 129 617 l 129 183 b 63 28 129 50 63 75 b 118 0 63 6 85 0 l 267 0 b 321 26 300 0 321 6 b 256 168 321 74 261 51 l 446 369 l 556 119 b 514 25 579 65 514 64 b 569 0 514 6 528 0 l 713 0 b 772 25 757 0 772 6 b 679 140 772 63 713 63 l 536 467 z "},"л":{"ha":771,"x_min":0,"x_max":0,"o":"m 89 -14 b 207 56 139 -14 178 10 b 301 560 282 161 290 389 b 411 604 304 600 315 604 b 508 556 499 604 508 600 l 508 183 b 442 28 508 50 442 75 b 496 0 442 6 464 0 l 644 0 b 699 26 679 0 699 6 b 635 183 699 75 635 50 l 635 533 b 711 642 635 603 711 603 b 635 667 711 658 699 667 l 218 667 b 154 642 168 667 154 658 b 238 526 154 603 238 608 b 126 78 238 375 206 78 b 51 132 92 78 101 132 b -4 65 22 132 -4 104 b 89 -14 -4 3 56 -14 z "},"м":{"ha":933,"x_min":0,"x_max":0,"o":"m 824 547 b 875 649 822 621 875 618 b 833 669 875 663 865 669 l 739 669 b 711 650 726 669 717 664 l 471 172 l 235 650 b 206 669 226 663 219 669 l 114 669 b 72 649 83 669 72 663 b 125 547 72 618 128 621 l 108 154 b 38 25 104 49 38 64 b 90 0 38 7 51 0 l 181 0 b 229 25 214 0 229 7 b 169 154 229 63 167 47 l 182 482 l 389 68 b 450 47 403 40 425 42 b 494 86 472 54 483 63 l 701 496 l 704 183 b 638 28 706 50 638 75 b 693 0 638 6 661 0 l 842 0 b 896 26 876 0 896 6 b 831 183 896 75 833 50 z "},"н":{"ha":842,"x_min":0,"x_max":0,"o":"m 714 483 b 782 640 714 617 782 592 b 726 667 782 661 758 667 l 578 667 b 524 640 543 667 524 661 b 588 483 524 592 588 617 l 588 417 b 425 364 588 364 588 364 b 256 417 256 364 256 364 l 256 483 b 324 640 256 617 324 592 b 268 667 324 661 300 667 l 119 667 b 65 640 85 667 65 661 b 129 483 65 592 129 617 l 129 183 b 63 28 129 50 63 75 b 118 0 63 6 85 0 l 267 0 b 321 26 300 0 321 6 b 256 183 321 75 256 50 l 256 254 b 424 306 256 306 256 306 b 588 254 588 306 588 306 l 588 183 b 521 28 588 50 521 75 b 576 0 521 6 543 0 l 725 0 b 779 26 758 0 779 6 b 714 183 779 75 714 50 z "},"о":{"ha":786,"x_min":0,"x_max":0,"o":"m 375 -14 b 735 350 588 -14 735 144 b 415 681 735 538 600 681 b 49 308 200 681 49 518 b 375 -14 49 111 188 -14 z m 418 53 b 175 375 276 53 175 193 b 367 610 175 507 243 610 b 610 281 506 610 610 454 b 418 53 610 147 536 53 z "},"п":{"ha":839,"x_min":0,"x_max":0,"o":"m 711 496 b 715 540 711 511 713 525 b 779 636 726 613 779 599 b 711 667 779 661 754 667 l 129 667 b 63 636 86 667 63 661 b 125 540 63 599 114 613 b 129 496 128 525 129 511 l 129 183 b 63 28 129 50 63 75 b 118 0 63 6 85 0 l 267 0 b 321 26 300 0 321 6 b 256 183 321 75 256 50 l 256 554 b 431 604 256 599 274 604 b 585 554 569 604 585 599 l 585 183 b 518 28 585 50 518 75 b 574 0 518 6 540 0 l 722 0 b 776 26 756 0 776 6 b 711 183 776 75 711 50 z "},"р":{"ha":824,"x_min":0,"x_max":0,"o":"m 492 681 b 239 538 367 681 283 613 l 240 650 b 213 681 240 675 231 682 b 99 643 193 679 146 664 b 58 603 65 628 58 619 b 83 571 58 589 68 581 b 125 468 119 549 125 514 l 128 -94 b 61 -251 128 -228 61 -203 b 115 -278 61 -272 83 -278 l 264 -278 b 318 -251 299 -278 318 -272 b 254 -94 318 -203 254 -228 l 253 60 b 472 -14 306 15 390 -15 b 774 350 644 -12 774 140 b 492 681 774 540 665 681 z m 472 49 b 253 274 375 47 253 129 l 253 371 b 446 593 253 472 318 593 b 649 294 551 593 649 494 b 472 49 649 161 593 50 z "},"с":{"ha":717,"x_min":0,"x_max":0,"o":"m 372 -14 b 671 153 550 -14 642 83 b 631 178 685 188 654 201 b 426 79 581 125 518 79 b 171 382 274 79 171 199 b 363 615 171 515 242 615 b 533 450 461 613 507 543 b 604 379 544 413 561 379 b 669 454 642 379 669 407 b 400 679 669 564 572 679 b 49 310 201 679 49 519 b 372 -14 49 131 176 -14 z "},"т":{"ha":665,"x_min":0,"x_max":0,"o":"m 407 0 b 461 26 442 0 461 6 b 401 128 461 68 415 54 b 397 171 399 142 397 156 l 397 578 b 453 604 397 596 407 606 b 572 521 515 603 540 585 b 622 463 594 475 604 463 b 647 510 644 463 647 483 b 632 619 646 551 643 581 b 524 667 624 656 611 667 l 144 667 b 36 618 57 667 44 654 b 21 508 25 579 22 550 b 46 461 21 482 24 461 b 96 519 64 461 74 474 b 215 603 126 582 151 603 b 271 576 261 604 271 594 l 271 171 b 267 128 271 156 269 142 b 204 28 256 54 204 68 b 258 0 204 6 226 0 z "},"у":{"ha":740,"x_min":0,"x_max":0,"o":"m 594 667 b 540 640 561 667 540 661 b 569 501 540 604 611 611 l 413 99 l 256 501 b 294 640 213 611 294 604 b 240 667 294 661 272 667 l 85 667 b 31 640 50 667 31 661 b 122 501 31 604 79 611 l 299 56 b 325 -53 313 22 325 -11 b 242 -204 325 -125 290 -204 b 108 -121 179 -204 165 -119 b 44 -194 69 -122 44 -157 b 175 -292 44 -243 92 -292 b 449 29 331 -292 375 -162 l 632 501 b 725 640 674 611 725 604 b 671 667 725 661 703 667 z "},"ф":{"ha":1072,"x_min":0,"x_max":0,"o":"m 769 681 b 600 604 703 681 639 654 l 600 767 l 601 958 b 575 989 601 983 592 990 b 444 943 554 988 507 972 b 406 907 411 928 406 921 b 474 767 406 864 474 888 l 474 608 b 322 681 436 656 379 681 b 49 322 146 681 49 507 b 324 -14 49 106 175 -14 b 474 33 379 -14 429 3 l 474 -94 b 407 -250 474 -228 407 -203 b 463 -278 407 -272 429 -278 l 611 -278 b 665 -251 644 -278 665 -272 b 600 -94 665 -203 600 -228 l 600 35 b 753 -14 646 4 696 -14 b 1022 331 908 -14 1015 124 b 769 681 1028 547 931 681 z m 894 301 b 740 53 889 138 840 53 b 601 142 658 53 601 99 l 601 447 b 728 603 601 536 649 603 b 894 301 847 603 901 475 z m 357 53 b 176 350 268 53 176 138 b 340 601 176 474 229 601 b 474 447 426 601 474 538 l 474 142 b 357 53 474 99 432 53 z "},"х":{"ha":732,"x_min":0,"x_max":0,"o":"m 547 511 b 674 640 618 606 674 604 b 619 667 674 661 651 667 l 521 667 b 467 640 486 667 467 661 b 475 511 467 604 546 606 l 396 407 l 324 510 b 336 640 256 606 336 604 b 282 667 336 661 314 667 l 97 667 b 43 640 63 667 43 661 b 169 510 43 604 101 606 l 299 326 l 164 156 b 36 28 92 63 36 63 b 92 0 36 6 58 0 l 189 0 b 243 26 224 0 243 6 b 236 156 243 63 164 63 l 332 279 l 418 157 b 406 28 486 61 406 63 b 461 0 406 6 428 0 l 644 0 b 699 26 679 0 699 6 b 572 157 699 63 640 61 l 431 357 z "},"ч":{"ha":761,"x_min":0,"x_max":0,"o":"m 633 483 b 701 640 633 617 701 592 b 646 667 701 661 678 667 l 497 667 b 443 640 463 667 443 661 b 507 483 443 592 507 617 l 507 311 b 343 285 454 293 406 285 b 218 451 229 285 215 368 l 218 482 b 286 638 222 614 286 590 b 231 665 286 660 264 665 l 82 665 b 28 639 49 665 28 660 b 93 482 28 590 93 615 l 94 421 b 307 222 94 308 151 222 b 507 247 382 222 444 231 l 507 183 b 440 28 507 50 440 75 b 496 0 440 6 463 0 l 644 0 b 699 26 678 0 699 6 b 633 183 699 75 633 50 z "},"ц":{"ha":833,"x_min":0,"x_max":0,"o":"m 796 -157 b 824 -103 818 -157 825 -137 b 810 14 821 -56 819 -25 b 742 60 803 43 793 56 b 711 89 714 63 711 65 l 711 483 b 779 640 711 617 779 592 b 724 667 779 661 756 667 l 575 667 b 521 640 540 667 521 661 b 585 483 521 592 585 617 l 585 101 b 411 64 585 71 568 64 b 256 101 274 64 256 71 l 256 483 b 324 640 256 617 324 592 b 268 667 324 661 300 667 l 119 667 b 65 640 85 667 65 661 b 129 483 65 592 129 617 l 129 171 b 63 31 129 69 63 72 b 129 0 63 6 86 0 l 578 0 b 744 -104 692 0 713 -32 b 796 -157 761 -144 778 -157 z "},"ш":{"ha":1193,"x_min":0,"x_max":0,"o":"m 1071 128 b 1067 171 1068 142 1067 156 l 1067 483 b 1133 640 1067 617 1133 592 b 1079 667 1133 661 1111 667 l 929 667 b 875 640 896 667 875 661 b 940 483 875 592 940 617 l 940 125 b 793 64 940 81 922 64 b 661 125 679 64 661 81 l 661 483 b 726 640 661 617 726 592 b 672 667 726 661 704 667 l 526 667 b 472 640 492 667 472 661 b 535 483 472 592 535 617 l 535 125 b 388 64 535 81 518 64 b 256 125 274 64 256 81 l 256 483 b 324 640 256 617 324 592 b 268 667 324 661 300 667 l 119 667 b 65 640 85 667 65 661 b 129 483 65 592 129 617 l 129 171 b 125 128 129 156 128 142 b 63 31 114 54 63 68 b 129 0 63 6 86 0 l 1067 0 b 1133 31 1110 0 1133 6 b 1071 128 1133 68 1082 54 z "},"щ":{"ha":1214,"x_min":0,"x_max":0,"o":"m 1176 -157 b 1204 -103 1199 -157 1206 -137 b 1190 14 1201 -56 1200 -25 b 1099 61 1181 50 1167 60 b 1067 90 1069 61 1067 64 l 1067 483 b 1133 640 1067 617 1133 592 b 1079 667 1133 661 1111 667 l 929 667 b 875 640 896 667 875 661 b 940 483 875 592 940 617 l 940 99 b 793 64 940 68 922 64 b 661 99 679 64 661 68 l 661 483 b 726 640 661 617 726 592 b 672 667 726 661 704 667 l 526 667 b 472 640 492 667 472 661 b 535 483 472 592 535 617 l 535 99 b 386 64 535 68 518 64 b 256 99 272 64 256 68 l 256 483 b 324 640 256 617 324 592 b 268 667 324 661 300 667 l 119 667 b 65 640 85 667 65 661 b 129 483 65 592 129 617 l 129 171 b 63 31 129 49 63 72 b 129 0 63 6 86 0 l 958 0 b 1125 -104 1072 0 1093 -32 b 1176 -157 1142 -144 1158 -157 z "},"ь":{"ha":694,"x_min":0,"x_max":0,"o":"m 346 426 b 279 424 325 426 301 425 b 256 450 264 422 256 431 l 256 483 b 324 640 256 617 324 592 b 268 667 324 661 300 667 l 119 667 b 65 640 85 667 65 661 b 129 483 65 592 129 617 l 129 171 b 125 128 129 156 128 142 b 63 31 114 54 63 68 b 129 0 63 6 86 0 l 339 0 b 661 208 538 0 661 58 b 346 426 661 331 582 425 z m 336 60 b 257 126 269 60 257 81 l 257 339 b 297 367 257 361 275 367 l 319 367 b 538 199 447 367 538 308 b 336 60 538 93 476 60 z "},"ы":{"ha":983,"x_min":0,"x_max":0,"o":"m 346 426 b 279 424 325 426 301 425 b 256 450 264 422 256 431 l 256 483 b 324 640 256 617 324 592 b 268 667 324 661 300 667 l 119 667 b 65 640 85 667 65 661 b 129 483 65 592 129 617 l 129 171 b 125 128 129 156 128 142 b 63 31 114 54 63 68 b 129 0 63 6 86 0 l 339 0 b 661 208 538 0 661 58 b 346 426 661 331 582 425 z m 857 483 b 924 640 857 617 924 592 b 868 667 924 661 901 667 l 719 667 b 665 640 686 667 665 661 b 731 483 665 592 731 617 l 731 183 b 663 28 731 50 663 75 b 718 0 663 6 686 0 l 867 0 b 921 26 901 0 921 6 b 857 183 921 75 857 50 z m 336 60 b 257 126 269 60 257 81 l 257 339 b 297 367 257 361 275 367 l 319 367 b 538 199 447 367 538 308 b 336 60 538 93 476 60 z "},"ъ":{"ha":789,"x_min":0,"x_max":0,"o":"m 425 426 b 358 424 403 426 381 425 b 335 450 342 422 335 431 l 335 496 b 339 540 335 511 336 525 b 401 636 350 613 401 599 b 335 667 401 661 378 667 l 117 667 b 8 618 31 667 17 654 b -8 521 -1 579 -6 550 b 15 474 -10 494 -7 474 b 65 524 35 474 43 486 b 168 606 100 582 126 606 b 211 538 199 606 211 582 l 211 171 b 207 128 211 156 210 142 b 143 31 194 54 143 68 b 211 0 143 6 167 0 l 419 0 b 742 208 618 0 742 58 b 425 426 742 331 664 425 z m 415 60 b 335 126 347 60 335 81 l 335 339 b 376 367 335 361 353 367 l 399 367 b 618 199 529 367 618 308 b 415 60 618 93 557 60 z "},"є":{"ha":710,"x_min":0,"x_max":0,"o":"m 624 176 b 428 86 575 124 508 86 b 175 310 281 86 194 178 b 240 329 199 324 218 329 b 400 281 299 329 340 281 b 539 374 458 281 539 333 b 519 394 539 386 532 394 b 419 358 499 394 468 358 b 269 404 367 358 324 404 b 169 363 240 404 203 389 l 169 372 b 364 614 169 524 256 614 b 590 513 479 614 525 513 b 643 563 621 513 643 533 b 414 681 643 633 518 681 b 49 307 182 681 49 504 b 379 -14 49 139 164 -14 b 664 151 532 -14 635 82 b 624 176 678 186 647 200 z "},"э":{"ha":686,"x_min":0,"x_max":0,"o":"m 317 681 b 161 663 221 681 199 663 b 108 681 136 663 125 681 b 71 628 89 681 81 669 b 56 524 64 599 57 561 b 74 489 54 503 57 489 b 111 522 88 489 96 499 b 285 619 142 572 196 619 b 506 376 413 619 489 500 b 442 357 483 363 464 357 b 282 407 383 357 342 407 b 143 313 224 407 143 353 b 163 292 143 300 150 292 b 263 328 183 292 214 328 b 413 283 315 328 358 283 b 510 322 440 283 478 297 b 283 50 510 147 425 50 b 88 125 211 50 133 83 b 50 97 63 147 31 131 b 288 -14 88 29 197 -14 b 636 346 525 -14 636 161 b 317 681 636 526 521 681 z "},"і":{"ha":397,"x_min":0,"x_max":0,"o":"m 151 785 b 272 883 206 781 268 835 b 210 956 274 918 247 953 b 89 854 154 963 92 904 b 151 785 86 815 114 788 z m 139 183 b 72 28 139 50 72 75 b 128 0 72 6 94 0 l 276 0 b 331 26 310 0 331 6 b 265 183 331 75 265 50 l 265 458 l 267 650 b 239 681 267 675 257 682 b 110 635 219 679 172 664 b 71 599 76 619 71 613 b 139 458 71 556 139 579 z "},"ї":{"ha":397,"x_min":0,"x_max":0,"o":"m 68 789 b 156 868 113 789 156 824 b 90 932 156 906 129 932 b 8 846 44 932 8 888 b 68 789 8 811 35 789 z m 269 789 b 357 868 314 789 357 824 b 292 932 357 906 329 932 b 210 846 246 932 210 888 b 269 789 210 811 236 789 z m 139 183 b 72 28 139 50 72 75 b 128 0 72 6 94 0 l 276 0 b 331 26 310 0 331 6 b 265 183 331 75 265 50 l 265 458 l 267 650 b 239 681 267 675 257 682 b 110 635 219 679 172 664 b 71 599 76 619 71 613 b 139 458 71 556 139 579 z "},"ю":{"ha":1128,"x_min":0,"x_max":0,"o":"m 758 681 b 394 371 565 681 422 550 l 256 371 l 256 483 b 324 640 256 617 324 592 b 268 667 324 661 300 667 l 119 667 b 65 640 85 667 65 661 b 129 483 65 592 129 617 l 129 183 b 63 28 129 50 63 75 b 118 0 63 6 85 0 l 267 0 b 321 26 300 0 321 6 b 256 183 321 75 256 50 l 256 311 l 390 311 l 390 308 b 717 -14 390 111 529 -14 b 1076 350 929 -14 1076 144 b 758 681 1076 538 942 681 z m 760 53 b 517 375 618 53 517 193 b 708 610 517 507 585 610 b 951 281 847 610 951 454 b 760 53 951 147 878 53 z "},"я":{"ha":756,"x_min":0,"x_max":0,"o":"m 628 496 b 632 540 628 511 629 525 b 696 636 644 613 696 599 b 628 667 696 661 672 667 l 463 667 b 101 436 214 667 101 567 b 244 264 101 360 153 296 b 154 146 192 238 175 193 b 61 58 122 72 97 63 b 39 39 49 57 39 50 b 131 -10 36 6 92 -10 b 278 126 228 -10 263 74 b 363 243 303 218 329 239 l 385 243 b 483 249 418 243 450 244 b 504 231 503 251 504 250 l 504 167 b 440 25 504 63 440 64 b 501 0 440 7 454 0 l 632 0 b 693 25 678 0 693 7 b 628 167 693 63 628 61 z m 504 332 b 407 304 504 314 494 304 b 228 449 269 304 228 378 b 432 607 228 553 301 607 b 504 576 492 607 504 597 z "},"⁄":{"ha":513,"x_min":0,"x_max":0,"o":"m 83 -139 b 118 -112 101 -139 113 -131 l 463 992 b 438 1028 469 1015 461 1028 l 422 1028 b 388 1001 404 1028 392 1019 l 42 -103 b 68 -139 35 -126 44 -139 z "},"¹":{"ha":347,"x_min":0,"x_max":0,"o":"m 221 964 b 203 983 221 979 214 983 b 122 958 190 982 151 969 b 71 926 75 940 71 936 b 100 906 71 918 76 913 b 140 847 136 896 140 879 l 140 471 b 83 382 140 406 83 408 b 121 367 83 371 92 367 l 224 367 b 261 382 251 367 261 371 b 221 471 261 406 221 406 z "},"²":{"ha":578,"x_min":0,"x_max":0,"o":"m 435 369 b 485 411 465 369 476 383 b 499 475 493 435 497 450 b 488 501 501 490 497 501 b 351 443 464 501 443 450 b 164 443 289 439 226 439 b 457 818 358 604 456 707 b 286 986 458 917 388 986 b 93 857 188 986 118 919 b 117 842 83 835 104 825 b 254 919 160 899 207 919 b 368 806 322 919 368 875 b 75 415 368 689 217 546 b 96 369 49 392 58 369 z "},"³":{"ha":539,"x_min":0,"x_max":0,"o":"m 282 715 b 417 863 371 750 417 800 b 269 986 417 951 336 986 b 100 918 199 986 129 953 b 124 894 79 894 94 875 b 242 931 156 915 190 931 b 331 854 282 931 331 908 b 176 713 331 793 272 736 b 185 672 156 707 157 671 b 388 543 317 678 388 631 b 244 417 388 463 326 417 b 100 456 178 417 133 435 b 75 428 69 474 53 451 b 254 361 106 393 176 361 b 475 553 403 361 475 454 b 282 715 475 653 386 708 z "}," ":{"ha":278,"x_min":0,"x_max":0,"o":""}," ":{"ha":278,"x_min":0,"x_max":0,"o":""},".":{"ha":340,"x_min":0,"x_max":0,"o":"m 168 -14 b 254 71 213 -14 254 18 b 176 149 254 121 217 149 b 90 61 135 149 90 115 b 168 -14 90 11 126 -14 z "},",":{"ha":354,"x_min":0,"x_max":0,"o":"m 128 -185 b 263 43 171 -185 263 -94 b 176 149 263 117 225 149 b 96 64 138 149 96 117 b 163 -58 96 -4 163 -12 b 107 -167 163 -107 107 -149 b 128 -185 107 -178 114 -185 z "},":":{"ha":340,"x_min":0,"x_max":0,"o":"m 168 419 b 254 504 213 419 254 451 b 176 582 254 554 217 582 b 90 494 135 582 90 549 b 168 419 90 444 126 419 z m 168 -14 b 254 71 213 -14 254 18 b 176 149 254 121 217 149 b 90 61 135 149 90 115 b 168 -14 90 11 126 -14 z "},";":{"ha":354,"x_min":0,"x_max":0,"o":"m 168 419 b 254 504 213 419 254 451 b 176 582 254 554 217 582 b 90 494 135 582 90 549 b 168 419 90 444 126 419 z m 128 -185 b 263 43 171 -185 263 -94 b 176 149 263 117 225 149 b 96 64 138 149 96 117 b 163 -58 96 -4 163 -12 b 107 -167 163 -107 107 -149 b 128 -185 107 -178 114 -185 z "},"…":{"ha":951,"x_min":0,"x_max":0,"o":"m 168 -14 b 254 71 213 -14 254 18 b 176 149 254 121 217 149 b 90 61 135 149 90 115 b 168 -14 90 11 126 -14 z m 474 -14 b 560 71 518 -14 560 18 b 482 149 560 121 522 149 b 396 61 440 149 396 115 b 474 -14 396 11 432 -14 z m 779 -14 b 865 71 824 -14 865 18 b 788 149 865 121 828 149 b 701 61 746 149 701 115 b 779 -14 701 11 738 -14 z "},"!":{"ha":340,"x_min":0,"x_max":0,"o":"m 169 339 b 188 364 182 339 186 347 b 256 893 201 628 256 815 b 169 986 256 950 218 986 b 86 893 122 986 86 950 b 151 364 86 815 138 628 b 169 339 153 347 158 339 z m 168 -14 b 254 71 213 -14 254 18 b 176 149 254 121 217 149 b 90 61 135 149 90 115 b 168 -14 90 11 126 -14 z "},"¡":{"ha":340,"x_min":0,"x_max":0,"o":"m 172 681 b 86 596 128 681 86 649 b 164 518 86 546 124 518 b 250 606 206 518 250 551 b 172 681 250 657 214 681 z m 171 328 b 153 303 158 328 154 321 b 86 -226 139 39 86 -149 b 171 -319 86 -283 124 -319 b 256 -226 219 -319 256 -283 b 189 303 256 -149 203 39 b 171 328 188 321 183 328 z "},"?":{"ha":679,"x_min":0,"x_max":0,"o":"m 360 374 b 388 482 361 413 371 453 b 607 794 453 594 604 667 b 344 986 608 904 507 986 b 78 794 181 986 78 888 b 143 722 78 750 104 722 b 207 788 186 722 196 750 b 343 924 236 886 283 924 b 456 797 411 924 457 875 b 301 379 453 649 301 564 b 360 374 301 332 356 333 z m 331 -14 b 417 71 375 -14 417 18 b 339 149 417 121 379 149 b 253 61 297 149 253 115 b 331 -14 253 11 289 -14 z "},"¿":{"ha":833,"x_min":0,"x_max":0,"o":"m 465 681 b 379 596 421 681 379 649 b 457 518 379 546 417 518 b 543 606 499 518 543 551 b 465 681 543 657 507 681 z m 438 293 b 408 185 436 254 425 214 b 189 -128 343 74 192 0 b 451 -319 188 -237 289 -319 b 719 -128 615 -319 719 -221 b 653 -56 719 -83 692 -56 b 589 -121 610 -56 600 -83 b 453 -257 560 -219 513 -257 b 340 -131 386 -257 339 -208 b 494 288 343 19 494 103 b 438 293 494 335 440 333 z "},"·":{"ha":340,"x_min":0,"x_max":0,"o":"m 168 250 b 254 335 213 250 254 282 b 176 413 254 385 217 413 b 90 325 135 413 90 379 b 168 250 90 275 126 250 z "},"•":{"ha":446,"x_min":0,"x_max":0,"o":"m 221 197 b 343 315 283 197 343 242 b 232 426 343 388 289 426 b 111 303 172 426 111 379 b 221 197 111 232 163 197 z "},"*":{"ha":692,"x_min":0,"x_max":0,"o":"m 156 438 b 249 450 183 414 224 418 b 308 599 279 485 282 544 b 381 600 325 633 363 635 b 442 450 404 551 411 485 b 535 438 467 418 507 414 b 542 533 564 461 565 503 b 414 611 513 569 458 582 b 433 683 379 636 390 681 b 585 685 483 686 544 671 b 628 771 621 700 640 736 b 539 808 614 806 576 821 b 424 715 500 794 465 746 b 363 758 388 689 350 715 b 411 899 375 803 411 857 b 346 968 411 938 382 968 b 281 899 310 968 281 938 b 328 758 281 856 314 808 b 267 715 340 715 303 689 b 151 808 231 743 190 794 b 63 771 114 821 76 806 b 106 685 50 736 69 700 b 257 683 146 671 204 686 b 278 611 300 681 313 636 b 150 533 239 586 175 567 b 156 438 125 503 126 461 z "},"#":{"ha":990,"x_min":0,"x_max":0,"o":"m 753 942 b 728 972 757 960 747 972 l 714 972 b 683 949 697 972 688 964 l 608 644 l 388 644 l 461 942 b 436 972 465 960 456 972 l 422 972 b 392 949 406 972 396 964 l 317 644 l 96 644 b 68 617 78 644 68 635 l 68 601 b 96 574 68 583 78 574 l 299 574 l 249 367 l 68 367 b 40 339 50 367 40 357 l 40 324 b 68 296 40 306 50 296 l 231 296 l 165 31 b 190 0 161 13 171 0 l 204 0 b 235 24 221 0 231 8 l 301 296 l 522 296 l 457 31 b 482 0 453 13 463 0 l 496 0 b 526 24 513 0 522 8 l 593 296 l 858 296 b 886 324 876 296 886 306 l 886 339 b 858 367 886 357 876 367 l 611 367 l 663 574 l 886 574 b 914 601 904 574 914 583 l 914 617 b 886 644 914 635 904 644 l 679 644 z m 371 574 l 590 574 l 540 367 l 319 367 z "},"/":{"ha":513,"x_min":0,"x_max":0,"o":"m 83 -139 b 118 -112 101 -139 113 -131 l 463 992 b 438 1028 469 1015 461 1028 l 422 1028 b 388 1001 404 1028 392 1019 l 42 -103 b 68 -139 35 -126 44 -139 z "},"\\":{"ha":514,"x_min":0,"x_max":0,"o":"m 438 -139 b 464 -103 461 -139 471 -126 l 118 1001 b 83 1028 113 1019 101 1028 l 68 1028 b 43 992 44 1028 36 1015 l 388 -112 b 422 -139 393 -131 404 -139 z "},"-":{"ha":472,"x_min":0,"x_max":0,"o":"m 375 372 b 403 394 390 372 400 381 l 407 410 b 386 436 410 428 401 436 l 92 436 b 65 414 78 436 68 428 l 61 399 b 82 372 57 381 65 372 z "},"­":{"ha":472,"x_min":0,"x_max":0,"o":"m 375 372 b 403 394 390 372 400 381 l 407 410 b 386 436 410 428 401 436 l 92 436 b 65 414 78 436 68 428 l 61 399 b 82 372 57 381 65 372 z "},"–":{"ha":682,"x_min":0,"x_max":0,"o":"m 583 372 b 611 394 599 372 608 381 l 615 410 b 594 436 618 428 610 436 l 92 436 b 65 414 78 436 68 428 l 61 399 b 82 372 57 381 65 372 z "},"—":{"ha":958,"x_min":0,"x_max":0,"o":"m 861 372 b 889 394 876 372 885 381 l 893 410 b 871 436 896 428 888 436 l 92 436 b 65 414 78 436 68 428 l 61 399 b 82 372 57 381 65 372 z "},"_":{"ha":551,"x_min":0,"x_max":0,"o":"m 521 -101 b 550 -71 540 -101 550 -92 b 521 -42 550 -51 540 -42 l 29 -42 b 0 -71 10 -42 0 -51 b 29 -101 0 -92 10 -101 z "},"(":{"ha":519,"x_min":0,"x_max":0,"o":"m 458 -167 b 507 -160 472 -174 497 -176 b 489 -112 518 -144 506 -126 b 224 460 314 26 224 213 b 483 1022 224 694 307 889 b 500 1069 501 1036 511 1056 b 450 1069 490 1085 468 1079 b 76 464 254 960 76 757 b 458 -167 76 142 265 -68 z "},")":{"ha":519,"x_min":0,"x_max":0,"o":"m 67 -167 b 447 464 258 -68 447 142 b 74 1069 447 757 269 960 b 24 1069 56 1079 33 1085 b 40 1022 13 1056 22 1036 b 300 460 217 889 300 694 b 35 -112 300 213 210 26 b 17 -160 18 -126 6 -144 b 67 -167 26 -176 51 -174 z "},"{":{"ha":453,"x_min":0,"x_max":0,"o":"m 336 -112 b 269 42 276 -96 269 -24 l 269 285 b 138 465 269 382 217 438 b 269 647 217 494 269 550 l 269 863 b 338 1019 269 926 286 1001 b 374 1054 360 1026 374 1035 b 333 1081 374 1074 358 1082 b 133 838 194 1072 133 976 l 133 592 b 63 500 133 556 111 513 b 35 468 43 496 35 486 b 63 432 35 447 40 439 b 133 340 106 419 133 376 l 133 67 b 333 -176 133 -72 194 -169 b 371 -144 358 -178 371 -168 b 336 -112 371 -126 356 -118 z "},"}":{"ha":453,"x_min":0,"x_max":0,"o":"m 390 500 b 321 592 342 513 321 556 l 321 838 b 119 1081 321 976 258 1072 b 79 1054 96 1082 79 1074 b 115 1019 79 1035 94 1026 b 185 863 167 1001 185 926 l 185 647 b 317 467 185 550 236 494 b 185 285 236 438 185 382 l 185 42 b 117 -112 185 -24 176 -96 b 82 -144 97 -118 82 -126 b 119 -176 82 -168 94 -178 b 321 67 258 -169 321 -72 l 321 340 b 392 432 321 376 347 419 b 419 468 413 439 419 447 b 390 500 419 486 410 496 z "},"[":{"ha":482,"x_min":0,"x_max":0,"o":"m 372 -178 b 403 -149 393 -178 403 -168 b 372 -119 403 -128 393 -119 l 286 -119 b 263 -96 272 -119 263 -110 l 263 1000 b 286 1024 263 1014 272 1024 l 372 1024 b 403 1053 393 1024 403 1032 b 372 1082 403 1072 393 1082 l 160 1082 b 128 1051 139 1082 128 1071 l 128 -147 b 160 -178 128 -167 139 -178 z "},"]":{"ha":482,"x_min":0,"x_max":0,"o":"m 322 -178 b 354 -147 343 -178 354 -167 l 354 1051 b 322 1082 354 1071 343 1082 l 111 1082 b 79 1053 89 1082 79 1072 b 111 1024 79 1032 89 1024 l 196 1024 b 219 1000 210 1024 219 1014 l 219 -96 b 196 -119 219 -110 210 -119 l 111 -119 b 79 -149 89 -119 79 -128 b 111 -178 79 -168 89 -178 z "},"‚":{"ha":354,"x_min":0,"x_max":0,"o":"m 128 -185 b 263 43 171 -185 263 -94 b 176 149 263 117 225 149 b 96 64 138 149 96 117 b 163 -58 96 -4 163 -12 b 107 -167 163 -107 107 -149 b 128 -185 107 -178 114 -185 z "},"„":{"ha":556,"x_min":0,"x_max":0,"o":"m 128 -185 b 263 43 171 -185 263 -94 b 176 149 263 117 225 149 b 96 64 138 149 96 117 b 163 -58 96 -4 163 -12 b 107 -167 163 -107 107 -149 b 128 -185 107 -178 114 -185 z m 379 -185 b 515 43 422 -185 515 -94 b 428 149 515 117 478 149 b 347 64 389 149 347 117 b 415 -58 347 -4 415 -12 b 358 -167 415 -107 358 -149 b 379 -185 358 -178 365 -185 z "},"“":{"ha":504,"x_min":0,"x_max":0,"o":"m 176 993 b 40 765 132 993 40 903 b 126 660 40 692 78 660 b 207 743 167 660 207 692 b 140 867 207 813 140 821 b 197 975 140 914 197 957 b 176 993 197 985 189 993 z m 428 993 b 292 765 385 993 292 903 b 379 660 292 692 329 660 b 460 743 418 660 460 692 b 392 867 460 813 392 821 b 449 975 392 914 449 957 b 428 993 449 985 440 993 z "},"”":{"ha":504,"x_min":0,"x_max":0,"o":"m 76 642 b 213 869 119 642 213 732 b 125 975 213 943 175 975 b 44 890 86 975 44 943 b 113 768 44 822 113 814 b 56 660 113 721 56 678 b 76 642 56 650 63 642 z m 328 642 b 464 869 371 642 464 732 b 376 975 464 943 426 975 b 297 890 338 975 297 943 b 364 768 297 822 364 814 b 307 660 364 721 307 678 b 328 642 307 650 315 642 z "},"‘":{"ha":354,"x_min":0,"x_max":0,"o":"m 226 993 b 92 767 183 993 92 903 b 178 661 92 693 129 661 b 258 744 217 661 258 693 b 192 867 258 814 192 822 b 249 976 192 915 249 958 b 226 993 249 986 240 993 z "},"’":{"ha":354,"x_min":0,"x_max":0,"o":"m 128 640 b 263 868 171 640 263 731 b 176 974 263 942 225 974 b 96 890 138 974 96 942 b 163 767 96 821 163 813 b 107 658 163 719 107 676 b 128 640 107 649 114 640 z "},"«":{"ha":593,"x_min":0,"x_max":0,"o":"m 257 117 b 275 135 267 117 275 119 b 149 349 278 171 203 281 b 275 563 203 417 278 526 b 257 581 275 579 267 581 b 128 465 238 581 186 531 b 46 349 74 406 46 378 b 128 232 46 319 74 293 b 257 117 186 168 238 117 z m 493 117 b 511 135 501 117 510 119 b 385 349 514 171 439 281 b 511 563 439 417 514 526 b 493 581 510 579 501 581 b 364 465 472 581 422 531 b 282 349 308 406 282 378 b 364 232 282 319 308 293 b 493 117 422 168 472 117 z "},"»":{"ha":592,"x_min":0,"x_max":0,"o":"m 100 117 b 228 232 119 117 171 168 b 311 349 283 293 311 319 b 228 465 311 378 283 406 b 100 581 171 531 119 581 b 81 563 90 581 82 579 b 207 349 78 526 154 417 b 81 135 154 281 78 171 b 100 117 82 119 90 117 z m 335 117 b 464 232 356 117 407 168 b 546 349 519 293 546 319 b 464 465 546 378 519 406 b 335 581 407 531 356 581 b 317 563 326 581 318 579 b 443 349 314 526 390 417 b 317 135 390 281 314 171 b 335 117 318 119 326 117 z "},"‹":{"ha":364,"x_min":0,"x_max":0,"o":"m 269 117 b 288 135 278 117 286 119 b 161 349 290 171 215 281 b 288 563 215 417 290 526 b 269 581 286 579 278 581 b 140 465 249 581 199 531 b 58 349 85 406 58 378 b 140 232 58 319 85 293 b 269 117 199 168 249 117 z "},"›":{"ha":363,"x_min":0,"x_max":0,"o":"m 93 117 b 222 232 114 117 165 168 b 304 349 278 293 304 319 b 222 465 304 378 278 406 b 93 581 165 531 114 581 b 75 563 85 581 76 579 b 201 349 72 526 149 417 b 75 135 149 281 72 171 b 93 117 76 119 85 117 z "},"\"":{"ha":543,"x_min":0,"x_max":0,"o":"m 165 618 b 194 656 183 618 190 635 b 228 914 204 718 228 888 b 165 986 228 953 210 986 b 103 913 121 986 103 953 b 135 654 103 886 124 715 b 165 618 138 635 143 618 z m 379 618 b 408 656 397 618 403 635 b 440 914 418 718 440 888 b 379 986 440 953 422 986 b 315 913 333 986 315 953 b 349 654 315 886 338 715 b 379 618 351 635 357 618 z "},"'":{"ha":331,"x_min":0,"x_max":0,"o":"m 165 618 b 194 656 183 618 190 635 b 228 914 204 718 228 888 b 165 986 228 953 210 986 b 103 913 121 986 103 953 b 135 654 103 886 124 715 b 165 618 138 635 143 618 z "}}}
